SplineFontDB: 3.2
FontName: aghtex_mathit_light
FullName: aghtex_mathit_light
FamilyName: aghtex_mathit
Weight: Light
Copyright: Copyright (c) 1997, 2009 American Mathematical Society (<http://www.ams.org>), with Reserved Font Name CMMI10.
Version: 1.1.6/2024-04-09
ItalicAngle: -14.04
UnderlinePosition: -102
UnderlineWidth: 51
Ascent: 768
Descent: 256
InvalidEm: 0
LayerCount: 2
Layer: 0 1 "+gMyXYgAA" 1
Layer: 1 1 "+Uk2XYgAA" 0
UniqueID: 5087385
FSType: 8
OS2Version: 1
OS2_WeightWidthSlopeOnly: 0
OS2_UseTypoMetrics: 0
CreationTime: 1344259757
ModificationTime: 1712630662
PfmFamily: 17
TTFWeight: 300
TTFWidth: 5
LineGap: 92
VLineGap: 0
OS2TypoAscent: 0
OS2TypoAOffset: 1
OS2TypoDescent: 0
OS2TypoDOffset: 1
OS2TypoLinegap: 92
OS2WinAscent: 0
OS2WinAOffset: 1
OS2WinDescent: 0
OS2WinDOffset: 1
HheadAscent: 0
HheadAOffset: 1
HheadDescent: 0
HheadDOffset: 1
OS2Vendor: 'PfEd'
MarkAttachClasses: 1
DEI: 91125
ShortTable: maxp 16
  0
  0
  0
  0
  0
  0
  0
  2
  1
  2
  22
  0
  256
  0
  0
  0
EndShort
TtTable: prep
PUSHW_1
 511
SCANCTRL
PUSHB_1
 1
SCANTYPE
SVTCA[y-axis]
MPPEM
PUSHB_1
 8
LT
IF
PUSHB_2
 1
 1
INSTCTRL
EIF
PUSHB_2
 70
 6
CALL
IF
POP
PUSHB_1
 16
EIF
MPPEM
PUSHB_1
 20
GT
IF
POP
PUSHB_1
 128
EIF
SCVTCI
PUSHB_1
 6
CALL
NOT
IF
SVTCA[y-axis]
PUSHB_1
 5
DUP
RCVT
PUSHB_1
 3
CALL
WCVTP
PUSHB_1
 6
DUP
RCVT
PUSHB_3
 5
 113
 2
CALL
PUSHB_1
 3
CALL
WCVTP
SVTCA[x-axis]
PUSHB_1
 7
DUP
RCVT
PUSHB_1
 3
CALL
WCVTP
EIF
PUSHB_1
 20
CALL
EndTTInstrs
TtTable: fpgm
PUSHB_1
 0
FDEF
PUSHB_1
 0
SZP0
MPPEM
PUSHB_1
 46
LT
IF
PUSHB_1
 74
SROUND
EIF
PUSHB_1
 0
SWAP
MIAP[rnd]
RTG
PUSHB_1
 6
CALL
IF
RTDG
EIF
MPPEM
PUSHB_1
 46
LT
IF
RDTG
EIF
DUP
MDRP[rp0,rnd,grey]
PUSHB_1
 1
SZP0
MDAP[no-rnd]
RTG
ENDF
PUSHB_1
 1
FDEF
DUP
MDRP[rp0,min,white]
PUSHB_1
 12
CALL
ENDF
PUSHB_1
 2
FDEF
MPPEM
GT
IF
RCVT
SWAP
EIF
POP
ENDF
PUSHB_1
 3
FDEF
ROUND[Black]
RTG
DUP
PUSHB_1
 64
LT
IF
POP
PUSHB_1
 64
EIF
ENDF
PUSHB_1
 4
FDEF
PUSHB_1
 6
CALL
IF
POP
SWAP
POP
ROFF
IF
MDRP[rp0,min,rnd,black]
ELSE
MDRP[min,rnd,black]

StartChar: A
Encoding: 65 65 0
Width: 768
Flags: W
HStem: -5 42<37.1895 122.555 201.512 257.811 464.736 553.315 663.259 736.811> 232 41<315 535>
LayerCount: 2
Fore
SplineSet
137 -2 m 2,0,-1
 49 -5 l 2,1,2
 40 -5 40 -5 35.5 -0.5 c 128,-1,3
 31 4 31 4 31 11 c 0,4,5
 31 26 31 26 37 31 c 128,-1,6
 43 36 43 36 57 37 c 0,7,8
 111 41 111 41 144 75 c 0,9,10
 161 92 161 92 179 121 c 2,11,-1
 536 719 l 2,12,13
 547 738 547 738 566 738 c 0,14,15
 573 738 573 738 577 737 c 0,16,17
 583 736 583 736 586 731.5 c 128,-1,18
 589 727 589 727 589 723 c 0,19,20
 590 716 590 716 606 553 c 0,21,22
 623 380 623 380 653 69 c 0,23,24
 655 47 655 47 663 42 c 128,-1,25
 671 37 671 37 715 37 c 0,26,27
 733 37 733 37 739 30 c 0,28,29
 743 26 743 26 743 21 c 0,30,31
 743 20 743 20 743 20 c 0,32,33
 743 8 743 8 737 1.5 c 128,-1,34
 731 -5 731 -5 720 -5 c 2,35,-1
 604 -2 l 2,36,37
 584 -2 584 -2 541 -3.5 c 128,-1,38
 498 -5 498 -5 476 -5 c 0,39,40
 466 -5 466 -5 461.5 -0.5 c 128,-1,41
 457 4 457 4 457 11 c 0,42,43
 457 28 457 28 464.5 32.5 c 128,-1,44
 472 37 472 37 486 37 c 0,45,46
 555 37 555 37 555 66 c 0,47,48
 555 71 555 71 547.5 146 c 128,-1,49
 540 221 540 221 539 232 c 1,50,-1
 290 232 l 1,51,-1
 213 103 l 1,52,53
 200 78 200 78 200 67 c 0,54,55
 200 40 200 40 243 37 c 0,56,57
 253 37 253 37 258.5 32 c 128,-1,58
 264 27 264 27 264 17 c 128,-1,59
 264 7 264 7 258 1 c 128,-1,60
 252 -5 252 -5 238 -5 c 128,-1,61
 224 -5 224 -5 189.5 -3.5 c 128,-1,62
 155 -2 155 -2 137 -2 c 2,0,-1
505 590 m 1,63,-1
 315 273 l 1,64,-1
 535 273 l 1,65,-1
 505 590 l 1,63,-1
EndSplineSet
Validated: 3073
EndChar

StartChar: B
Encoding: 66 66 1
Width: 776
Flags: W
HStem: -5 42<46.2522 139.583 242.002 502.915> 347 33<324 553.988> 663 41<208.094 299.999 398.679 640.332>
VStem: 619 105<147.783 296.844> 676 103<484.495 629.849>
LayerCount: 2
Fore
SplineSet
242 43 m 0,0,1
 242 39 242 39 250 38 c 2,2,-1
 251 38 l 2,3,4
 257 37 257 37 272 37 c 2,5,-1
 412 37 l 2,6,7
 498 37 498 37 558.5 97.5 c 128,-1,8
 619 158 619 158 619 232 c 0,9,10
 619 269 619 269 597 306 c 0,11,12
 586 324 586 324 563 335.5 c 128,-1,13
 540 347 540 347 506 347 c 2,14,-1
 316 347 l 1,15,-1
 247 66 l 2,16,17
 242 48 242 48 242 43 c 0,0,1
296 631 m 2,18,19
 300 646 300 646 300 650 c 128,-1,20
 300 654 300 654 297.5 656.5 c 128,-1,21
 295 659 295 659 291.5 659.5 c 128,-1,22
 288 660 288 660 274.5 661.5 c 128,-1,23
 261 663 261 663 241 663 c 128,-1,24
 221 663 221 663 216 664.5 c 128,-1,25
 211 666 211 666 208 669 c 128,-1,26
 205 672 205 672 205 679 c 0,27,28
 205 696 205 696 214 700 c 0,29,30
 221 704 221 704 240 704 c 2,31,-1
 584 704 l 2,32,33
 686 704 686 704 740 650 c 0,34,35
 779 611 779 611 779 558 c 0,36,37
 779 486 779 486 713 431 c 0,38,39
 658 385 658 385 587 367 c 1,40,41
 647 355 647 355 684 318 c 0,42,43
 724 278 724 278 724 221 c 0,44,45
 724 139 724 139 639 67 c 128,-1,46
 554 -5 554 -5 436 -5 c 2,47,-1
 71 -5 l 2,48,49
 54 -5 54 -5 49 -3.5 c 128,-1,50
 44 -2 44 -2 41 1 c 128,-1,51
 38 4 38 4 38 11 c 0,52,53
 38 28 38 28 46 32.5 c 128,-1,54
 54 37 54 37 71 37 c 0,55,56
 127 37 127 37 140 44 c 0,57,58
 152 51 152 51 159 81 c 2,59,-1
 296 631 l 2,18,19
468 380 m 2,60,61
 559 380 559 380 621 442 c 0,62,63
 676 497 676 497 676 562 c 0,64,65
 676 602 676 602 652 633 c 0,66,67
 628 663 628 663 569 663 c 2,68,-1
 437 663 l 2,69,70
 404 663 404 663 398.5 657.5 c 128,-1,71
 393 652 393 652 387 628 c 2,72,-1
 324 380 l 1,73,-1
 468 380 l 2,60,61
EndSplineSet
Validated: 3073
EndChar

StartChar: C
Encoding: 67 67 2
Width: 731
Flags: W
HStem: -28 42<252.194 438.5> 685 42<414.149 599.744>
VStem: 46 103<139.447 365.017> 632 36<199.562 256.874>
LayerCount: 2
Fore
SplineSet
510 727 m 0,0,1
 621 727 621 727 681 639 c 1,2,-1
 748 713 l 2,3,4
 761 727 761 727 767 727 c 0,5,6
 775 727 775 727 779 723 c 128,-1,7
 783 719 783 719 783 712 c 2,8,-1
 783 711 l 1,9,-1
 716 441 l 2,10,11
 715 438 715 438 714 434 c 0,12,13
 711 429 711 429 709 427 c 0,14,15
 705 425 705 425 694.5 425 c 128,-1,16
 684 425 684 425 679.5 429.5 c 128,-1,17
 675 434 675 434 675 440 c 0,18,19
 675 441 675 441 676.5 454.5 c 128,-1,20
 678 468 678 468 678 493 c 0,21,22
 678 592 678 592 626 644 c 0,23,24
 585 685 585 685 518 685 c 128,-1,25
 451 685 451 685 385 651.5 c 128,-1,26
 319 618 319 618 272 563 c 0,27,28
 205 485 205 485 177 386.5 c 128,-1,29
 149 288 149 288 149 222 c 0,30,31
 149 114 149 114 207.5 64 c 128,-1,32
 266 14 266 14 345 14 c 0,33,34
 439 14 439 14 531 88 c 0,35,36
 602 147 602 147 632 247 c 0,37,38
 633 252 633 252 637.5 256.5 c 128,-1,39
 642 261 642 261 650.5 261 c 128,-1,40
 659 261 659 261 663 257 c 128,-1,41
 667 253 667 253 668 246 c 0,42,43
 668 239 668 239 660.5 216 c 128,-1,44
 653 193 653 193 627 151 c 0,45,46
 596 99 596 99 553 62 c 0,47,48
 451 -27 451 -27 331 -27 c 0,49,50
 329 -28 329 -28 327 -28 c 0,51,52
 206 -28 206 -28 126 52 c 128,-1,53
 46 132 46 132 46 258 c 0,54,55
 46 346 46 346 86.5 432.5 c 128,-1,56
 127 519 127 519 191 583 c 128,-1,57
 255 647 255 647 340 687 c 128,-1,58
 425 727 425 727 510 727 c 0,0,1
EndSplineSet
Validated: 3073
EndChar

StartChar: D
Encoding: 68 68 3
Width: 846
Flags: W
HStem: -5 42<44.2524 138.583 244.002 499.535> 663 41<207.126 295.389 401.225 640.141>
VStem: 729 99<334.207 559.832>
LayerCount: 2
Fore
SplineSet
244 43 m 0,0,1
 244 39 244 39 252 38 c 2,2,-1
 253 38 l 2,3,4
 259 37 259 37 274 37 c 2,5,-1
 390 37 l 2,6,7
 472 37 472 37 531 73 c 0,8,9
 591 109 591 109 623 150 c 0,10,11
 678 223 678 223 703.5 321.5 c 128,-1,12
 729 420 729 420 729 478 c 0,13,14
 729 572 729 572 679 617.5 c 128,-1,15
 629 663 629 663 549 663 c 2,16,-1
 439 663 l 2,17,18
 408 663 408 663 401 658 c 0,19,20
 394 652 394 652 389 628 c 2,21,-1
 249 66 l 2,22,23
 244 48 244 48 244 43 c 0,0,1
295 631 m 2,24,25
 299 646 299 646 299 649 c 128,-1,26
 299 652 299 652 295.5 655.5 c 128,-1,27
 292 659 292 659 281 661 c 0,28,29
 256 663 256 663 241 663 c 128,-1,30
 226 663 226 663 219 664 c 0,31,32
 211 665 211 665 207 669 c 128,-1,33
 203 673 203 673 203 683 c 0,34,35
 203 697 203 697 212 701 c 0,36,37
 219 704 219 704 239 704 c 2,38,-1
 583 704 l 2,39,40
 697 704 697 704 762.5 629.5 c 128,-1,41
 828 555 828 555 828 442 c 128,-1,42
 828 329 828 329 769 225.5 c 128,-1,43
 710 122 710 122 612 58.5 c 128,-1,44
 514 -5 514 -5 409 -5 c 2,45,-1
 70 -5 l 2,46,47
 58 -5 58 -5 52 -4 c 0,48,49
 44 -3 44 -3 40 1 c 128,-1,50
 36 5 36 5 36 12 c 0,51,52
 36 28 36 28 44 32.5 c 128,-1,53
 52 37 52 37 70 37 c 0,54,55
 126 37 126 37 139 44 c 0,56,57
 151 51 151 51 158 81 c 2,58,-1
 295 631 l 2,24,25
EndSplineSet
Validated: 3073
EndChar

StartChar: E
Encoding: 69 69 4
Width: 755
Flags: W
HStem: -5 42<42.2524 148.339 245.002 552.637> 341 42<329 492.842> 461 21G<742 753.5> 660 41<204.094 292.77 401.194 700.016>
VStem: 548 37<455.964 498.359> 700 35<216.332 264.359> 730 57<478.048 633.969>
LayerCount: 2
Fore
SplineSet
245 43 m 0,0,1
 245 39 245 39 253 38 c 2,2,-1
 254 38 l 2,3,4
 260 37 260 37 275 37 c 2,5,-1
 425 37 l 2,6,7
 476 37 476 37 514 46 c 128,-1,8
 552 55 552 55 577 69 c 128,-1,9
 602 83 602 83 624.5 113.5 c 128,-1,10
 647 144 647 144 661.5 172.5 c 128,-1,11
 676 201 676 201 700 254 c 0,12,13
 702 260 702 260 706.5 264.5 c 128,-1,14
 711 269 711 269 718.5 269 c 128,-1,15
 726 269 726 269 730.5 264.5 c 128,-1,16
 735 260 735 260 735 253 c 0,17,18
 735 251 735 251 730 237 c 2,19,-1
 636 15 l 2,20,21
 630 1 630 1 623.5 -2 c 128,-1,22
 617 -5 617 -5 599 -5 c 2,23,-1
 68 -5 l 2,24,25
 56 -5 56 -5 50 -4 c 0,26,27
 42 -3 42 -3 38 1 c 128,-1,28
 34 5 34 5 34 12 c 0,29,30
 34 28 34 28 42 32.5 c 128,-1,31
 50 37 50 37 68 37 c 0,32,33
 124 37 124 37 137 44 c 0,34,35
 149 51 149 51 156 81 c 2,36,-1
 291 623 l 2,37,38
 296 640 296 640 296 645 c 128,-1,39
 296 650 296 650 293 653 c 0,40,41
 286 660 286 660 234 660 c 0,42,43
 216 660 216 660 211.5 661.5 c 128,-1,44
 207 663 207 663 204 666 c 128,-1,45
 201 669 201 669 201 676 c 0,46,47
 201 693 201 693 210 698 c 0,48,49
 217 701 217 701 237 701 c 2,50,-1
 754 701 l 2,51,52
 777 701 777 701 782 696 c 128,-1,53
 787 691 787 691 787 679 c 0,54,55
 787 674 787 674 781.5 627 c 128,-1,56
 776 580 776 580 770.5 530 c 128,-1,57
 765 480 765 480 764 475 c 0,58,59
 761 461 761 461 746 461 c 0,60,61
 738 461 738 461 733.5 465.5 c 128,-1,62
 729 470 729 470 729 478 c 2,63,-1
 730 497 l 1,64,-1
 730 498 l 1,65,66
 734 525 734 525 734 551 c 0,67,68
 734 614 734 614 704 637 c 128,-1,69
 674 660 674 660 584 660 c 2,70,-1
 439 660 l 2,71,72
 407 660 407 660 401 654 c 128,-1,73
 395 648 395 648 389 624 c 0,74,75
 336 416 336 416 329 383 c 1,76,-1
 419 383 l 2,77,78
 485 383 485 383 509 402 c 128,-1,79
 533 421 533 421 548 480 c 0,80,81
 551 492 551 492 556 497 c 128,-1,82
 561 502 561 502 567 503 c 0,83,84
 576 503 576 503 580 498.5 c 128,-1,85
 584 494 584 494 585 486 c 1,86,-1
 585 485 l 1,87,-1
 526 246 l 2,88,89
 520 223 520 223 506 221 c 0,90,91
 497 221 497 221 492.5 225.5 c 128,-1,92
 488 230 488 230 488 236.5 c 128,-1,93
 488 243 488 243 491 251 c 0,94,95
 498 289 498 289 498 301 c 0,96,97
 498 320 498 320 493 325 c 128,-1,98
 488 330 488 330 475 334 c 0,99,100
 456 341 456 341 416 341 c 2,101,-1
 318 341 l 1,102,-1
 250 66 l 2,103,104
 245 48 245 48 245 43 c 0,0,1
EndSplineSet
Validated: 3073
EndChar

StartChar: F
Encoding: 70 70 5
Width: 658
Flags: W
HStem: -5 42<42.2524 136.583 252.13 362.295> 328 42<324 475.553> 461 21G<726.75 734.25> 660 41<204.094 292.77 401.194 686.253>
VStem: 479 38<208.432 261.501> 544 32<431.313 484.359> 714 34<465.641 551.187> 719 53<486.489 630.319>
LayerCount: 2
Fore
SplineSet
497 208 m 0,0,1
 480 208 480 208 479 225 c 2,2,3
 479 230 479 230 482 238 c 0,4,5
 489 268 489 268 490 287 c 0,6,7
 490 309 490 309 476 318.5 c 128,-1,8
 462 328 462 328 410 328 c 2,9,-1
 314 328 l 1,10,-1
 252 77 l 2,11,12
 248 63 248 63 248 55 c 128,-1,13
 248 47 248 47 252 44 c 128,-1,14
 256 41 256 41 278.5 39 c 128,-1,15
 301 37 301 37 322 37 c 0,16,17
 358 37 358 37 361 35 c 0,18,19
 365 32 365 32 367 29 c 128,-1,20
 369 26 369 26 369 17 c 128,-1,21
 369 8 369 8 362.5 1.5 c 128,-1,22
 356 -5 356 -5 342 -5 c 2,23,-1
 189 -2 l 1,24,25
 188 -2 188 -2 54 -5 c 2,26,27
 43 -5 43 -5 38.5 0 c 128,-1,28
 34 5 34 5 34 12 c 0,29,30
 34 28 34 28 42 32.5 c 128,-1,31
 50 37 50 37 68 37 c 0,32,33
 124 37 124 37 137 44 c 0,34,35
 149 51 149 51 156 81 c 2,36,-1
 291 623 l 2,37,38
 296 640 296 640 296 645 c 128,-1,39
 296 650 296 650 293 653 c 0,40,41
 286 660 286 660 234 660 c 0,42,43
 216 660 216 660 211.5 661.5 c 128,-1,44
 207 663 207 663 204 666 c 128,-1,45
 201 669 201 669 201 676 c 0,46,47
 201 693 201 693 210 698 c 0,48,49
 217 701 217 701 237 701 c 2,50,-1
 738 701 l 2,51,52
 761 701 761 701 766.5 696 c 128,-1,53
 772 691 772 691 772 678 c 0,54,55
 772 673 772 673 766 626.5 c 128,-1,56
 760 580 760 580 754.5 530 c 128,-1,57
 749 480 749 480 748 475 c 0,58,59
 747 469 747 469 742.5 465 c 128,-1,60
 738 461 738 461 730.5 461 c 128,-1,61
 723 461 723 461 718.5 465.5 c 128,-1,62
 714 470 714 470 714 476.5 c 128,-1,63
 714 483 714 483 716 498 c 0,64,65
 719 526 719 526 719 552 c 0,66,67
 719 612 719 612 691 636 c 128,-1,68
 663 660 663 660 574 660 c 2,69,-1
 439 660 l 2,70,71
 407 660 407 660 401 654 c 128,-1,72
 395 648 395 648 389 624 c 2,73,-1
 324 370 l 1,74,-1
 412 370 l 2,75,76
 476 370 476 370 499.5 387.5 c 128,-1,77
 523 405 523 405 539 464 c 0,78,79
 542 478 542 478 544 481 c 128,-1,80
 546 484 546 484 547 485 c 0,81,82
 551 489 551 489 559 489 c 128,-1,83
 567 489 567 489 571.5 484.5 c 128,-1,84
 576 480 576 480 576 473.5 c 128,-1,85
 576 467 576 467 574.5 461.5 c 128,-1,86
 573 456 573 456 559 400 c 0,87,88
 559 400 559 400 517 233 c 2,89,-1
 517 232 l 1,90,91
 509 217 509 217 504.5 213 c 128,-1,92
 500 209 500 209 497 208 c 0,0,1
EndSplineSet
Validated: 3073
EndChar

StartChar: G
Encoding: 71 71 6
Width: 804
Flags: W
HStem: -28 42<256.54 449.83> -4 21G<591.25 597.75> 243 42<454.705 559.871 670.743 736.812> 685 42<414.303 599.633>
VStem: 46 103<138.087 362.462>
LayerCount: 2
Fore
SplineSet
510 727 m 0,0,1
 621 727 621 727 681 639 c 1,2,-1
 748 713 l 2,3,4
 761 727 761 727 767 727 c 0,5,6
 775 727 775 727 779 723 c 128,-1,7
 783 719 783 719 783 712 c 2,8,-1
 783 711 l 1,9,-1
 716 441 l 2,10,11
 715 438 715 438 714 434 c 0,12,13
 711 429 711 429 709 427 c 0,14,15
 705 425 705 425 694.5 425 c 128,-1,16
 684 425 684 425 679.5 429.5 c 128,-1,17
 675 434 675 434 675 440 c 0,18,19
 675 441 675 441 676.5 454.5 c 128,-1,20
 678 468 678 468 678 493 c 0,21,22
 678 592 678 592 626 644 c 0,23,24
 585 685 585 685 515.5 685 c 128,-1,25
 446 685 446 685 378 647 c 0,26,27
 309 609 309 609 266 555 c 0,28,29
 219 496 219 496 190 417 c 128,-1,30
 161 338 161 338 155 296 c 128,-1,31
 149 254 149 254 149 224 c 0,32,33
 149 117 149 117 208.5 65.5 c 128,-1,34
 268 14 268 14 350 14 c 0,35,36
 393 14 393 14 449 33 c 0,37,38
 481 44 481 44 507 70.5 c 128,-1,39
 533 97 533 97 543 134 c 0,40,41
 564 210 564 210 564 225 c 2,42,-1
 564 226 l 2,43,44
 564 233 564 233 560 236 c 128,-1,45
 556 239 556 239 535 241 c 128,-1,46
 514 243 514 243 489 243 c 128,-1,47
 464 243 464 243 459 244.5 c 128,-1,48
 454 246 454 246 451 249 c 128,-1,49
 448 252 448 252 448 259 c 0,50,51
 448 271 448 271 454.5 277.5 c 128,-1,52
 461 284 461 284 474 285 c 2,53,-1
 617 281 l 1,54,-1
 725 285 l 2,55,56
 734 285 734 285 738.5 280.5 c 128,-1,57
 743 276 743 276 743 268 c 0,58,59
 743 255 743 255 737 249 c 128,-1,60
 731 243 731 243 722 243 c 0,61,62
 678 242 678 242 670.5 234.5 c 128,-1,63
 663 227 663 227 656 198 c 0,64,65
 654 190 654 190 649 172 c 0,66,67
 647 165 647 165 643 145 c 2,68,-1
 623 67 l 2,69,70
 610 13 610 13 606 4 c 0,71,72
 606 1 606 1 603.5 -1.5 c 128,-1,73
 601 -4 601 -4 594.5 -4 c 128,-1,74
 588 -4 588 -4 581.5 3 c 128,-1,75
 575 10 575 10 564.5 24.5 c 128,-1,76
 554 39 554 39 546 56 c 1,77,78
 509 18 509 18 461 -3 c 0,79,80
 401 -28 401 -28 331 -28 c 0,81,82
 205 -28 205 -28 125.5 52.5 c 128,-1,83
 46 133 46 133 46 258 c 0,84,85
 46 346 46 346 86.5 432.5 c 128,-1,86
 127 519 127 519 191 583 c 128,-1,87
 255 647 255 647 340 687 c 128,-1,88
 425 727 425 727 510 727 c 0,0,1
EndSplineSet
Validated: 3073
EndChar

StartChar: H
Encoding: 72 72 7
Width: 850
Flags: W
HStem: -5 42<42.7369 136.583 247.003 338.906 440.736 529.461 645.003 736.906> 343 42<329 621> 663 41<205.094 296.999 406.415 504.358 603.094 690.934 804.385 902.358>
LayerCount: 2
Fore
SplineSet
358 701 m 1,0,-1
 490 704 l 2,1,2
 500 704 500 704 504.5 699.5 c 128,-1,3
 509 695 509 695 509 688 c 0,4,5
 509 671 509 671 500 667 c 0,6,7
 493 663 493 663 469 663 c 0,8,9
 419 663 419 663 406 655 c 0,10,11
 394 647 394 647 388 620 c 0,12,13
 365 529 365 529 329 385 c 1,14,-1
 631 385 l 1,15,-1
 691 631 l 1,16,-1
 695 649 l 2,17,18
 695 653 695 653 693.5 654.5 c 128,-1,19
 692 656 692 656 691 657 c 0,20,21
 689 659 689 659 672.5 661 c 128,-1,22
 656 663 656 663 636 663 c 128,-1,23
 616 663 616 663 611 664.5 c 128,-1,24
 606 666 606 666 603 669 c 128,-1,25
 600 672 600 672 600 681 c 0,26,27
 600 692 600 692 608 700 c 0,28,29
 611 703 611 703 614.5 703.5 c 128,-1,30
 618 704 618 704 625 704 c 2,31,-1
 757 701 l 1,32,33
 758 701 758 701 888 704 c 2,34,35
 898 704 898 704 902.5 699.5 c 128,-1,36
 907 695 907 695 907 688 c 0,37,38
 907 671 907 671 898 666 c 0,39,40
 891 663 891 663 867 663 c 0,41,42
 816 663 816 663 804 656 c 128,-1,43
 792 649 792 649 786 620 c 2,44,-1
 648 67 l 2,45,46
 648 65 648 65 646.5 59 c 128,-1,47
 645 53 645 53 645 50 c 0,48,49
 645 42 645 42 656 40 c 0,50,51
 671 37 671 37 697.5 37 c 128,-1,52
 724 37 724 37 729 36 c 128,-1,53
 734 35 734 35 737 31.5 c 128,-1,54
 740 28 740 28 740 19 c 0,55,56
 740 8 740 8 732 -0 c 0,57,58
 728 -4 728 -4 724.5 -4.5 c 128,-1,59
 721 -5 721 -5 715 -5 c 2,60,-1
 648 -3 l 1,61,-1
 583 -2 l 1,62,63
 582 -2 582 -2 452 -5 c 2,64,65
 442 -5 442 -5 437.5 -0.5 c 128,-1,66
 433 4 433 4 433 11 c 0,67,68
 433 28 433 28 440.5 32.5 c 128,-1,69
 448 37 448 37 463 37 c 0,70,71
 513 37 513 37 530 42 c 0,72,73
 545 46 545 46 551 67 c 0,74,75
 552 72 552 72 569 139.5 c 128,-1,76
 586 207 586 207 594 239.5 c 128,-1,77
 602 272 602 272 621 343 c 1,78,-1
 318 343 l 1,79,-1
 250 67 l 2,80,81
 250 65 250 65 248.5 59 c 128,-1,82
 247 53 247 53 247 50 c 0,83,84
 247 42 247 42 258 40 c 0,85,86
 273 37 273 37 299.5 37 c 128,-1,87
 326 37 326 37 331 36 c 128,-1,88
 336 35 336 35 339 31.5 c 128,-1,89
 342 28 342 28 342 19 c 0,90,91
 342 8 342 8 334 -0 c 0,92,93
 330 -4 330 -4 326.5 -4.5 c 128,-1,94
 323 -5 323 -5 316 -5 c 2,95,-1
 250 -3 l 1,96,-1
 184 -2 l 1,97,-1
 54 -5 l 2,98,99
 44 -5 44 -5 39.5 -0.5 c 128,-1,100
 35 4 35 4 35 11 c 0,101,102
 35 28 35 28 42.5 32.5 c 128,-1,103
 50 37 50 37 68 37 c 0,104,105
 124 37 124 37 137 44 c 0,106,107
 149 51 149 51 156 81 c 2,108,-1
 293 631 l 2,109,110
 297 646 297 646 297 650 c 128,-1,111
 297 654 297 654 294.5 656.5 c 128,-1,112
 292 659 292 659 288.5 659.5 c 128,-1,113
 285 660 285 660 271 661.5 c 128,-1,114
 257 663 257 663 238 663 c 128,-1,115
 219 663 219 663 213.5 664.5 c 128,-1,116
 208 666 208 666 205 669 c 128,-1,117
 202 672 202 672 202 681 c 0,118,119
 202 692 202 692 210 700 c 0,120,121
 213 703 213 703 216.5 703.5 c 128,-1,122
 220 704 220 704 226 704 c 2,123,-1
 358 701 l 1,0,-1
EndSplineSet
Validated: 3073
EndChar

StartChar: I
Encoding: 73 73 8
Width: 449
Flags: W
HStem: -5 44<34.6422 136.583 250.127 340.296> 663 41<203.704 292.906 407.417 508.843>
LayerCount: 2
Fore
SplineSet
358 701 m 1,0,-1
 494 704 l 2,1,2
 504 704 504 704 509 699 c 128,-1,3
 514 694 514 694 514 687 c 0,4,5
 514 671 514 671 505 667 c 0,6,7
 498 663 498 663 476 663 c 0,8,9
 420 663 420 663 407 655 c 0,10,11
 394 648 394 648 388 620 c 2,12,-1
 251 74 l 2,13,14
 247 60 247 60 247 52 c 0,15,16
 247 45 247 45 250 43 c 0,17,18
 254 40 254 40 267 39 c 2,19,-1
 268 39 l 2,20,21
 288 37 288 37 306 37 c 128,-1,22
 324 37 324 37 331 36 c 0,23,24
 347 35 347 35 347 19 c 0,25,26
 347 8 347 8 340.5 1.5 c 128,-1,27
 334 -5 334 -5 322 -5 c 2,28,-1
 184 -2 l 1,29,-1
 50 -5 l 2,30,31
 39 -5 39 -5 34.5 -0.5 c 128,-1,32
 30 4 30 4 30 11 c 0,33,34
 30 28 30 28 38 32.5 c 128,-1,35
 46 37 46 37 68 37 c 0,36,37
 124 37 124 37 137 45 c 0,38,39
 150 52 150 52 156 81 c 2,40,-1
 294 633 l 2,41,42
 296 641 296 641 296 647 c 128,-1,43
 296 653 296 653 293 655.5 c 128,-1,44
 290 658 290 658 284 660 c 0,45,46
 269 663 269 663 240.5 663 c 128,-1,47
 212 663 212 663 207.5 664.5 c 128,-1,48
 203 666 203 666 200 669 c 128,-1,49
 197 672 197 672 197 681.5 c 128,-1,50
 197 691 197 691 203.5 697.5 c 128,-1,51
 210 704 210 704 222 704 c 2,52,-1
 358 701 l 1,0,-1
EndSplineSet
Validated: 3073
EndChar

StartChar: J
Encoding: 74 74 9
Width: 567
Flags: W
HStem: -28 33<144.761 257.616> 57 119<115.359 171.161> 663 41<349.705 464.672 564.638 648.358>
VStem: 68 123<77.1875 153.965>
LayerCount: 2
Fore
SplineSet
520 701 m 1,0,-1
 634 704 l 2,1,2
 644 704 644 704 648.5 699.5 c 128,-1,3
 653 695 653 695 653 684 c 0,4,5
 653 670 653 670 645 666.5 c 128,-1,6
 637 663 637 663 615.5 663 c 128,-1,7
 594 663 594 663 583.5 659 c 128,-1,8
 573 655 573 655 570.5 652.5 c 128,-1,9
 568 650 568 650 566 646 c 128,-1,10
 564 642 564 642 559 624 c 2,11,-1
 439 145 l 2,12,13
 421 69 421 69 352.5 20.5 c 128,-1,14
 284 -28 284 -28 208 -28 c 0,15,16
 140 -28 140 -28 100 12 c 0,17,18
 68 44 68 44 68 88 c 0,19,20
 68 136 68 136 92.5 156 c 128,-1,21
 117 176 117 176 141 176 c 0,22,23
 159 176 159 176 174 165 c 0,24,25
 191 154 191 154 191 127 c 0,26,27
 191 99 191 99 170 78 c 128,-1,28
 149 57 149 57 120 57 c 0,29,30
 118 57 118 57 115 57 c 1,31,32
 126 30 126 30 150 18 c 0,33,34
 177 5 177 5 205 5 c 0,35,36
 248 5 248 5 289.5 46.5 c 128,-1,37
 331 88 331 88 347 155 c 0,38,39
 465 625 465 625 467 633 c 128,-1,40
 469 641 469 641 469 646 c 0,41,42
 469 652 469 652 465 656 c 0,43,44
 455 663 455 663 383 663 c 0,45,46
 359 663 359 663 354 664.5 c 128,-1,47
 349 666 349 666 346 669 c 128,-1,48
 343 672 343 672 343 681.5 c 128,-1,49
 343 691 343 691 349.5 697.5 c 128,-1,50
 356 704 356 704 370 704 c 2,51,-1
 520 701 l 1,0,-1
EndSplineSet
Validated: 3073
EndChar

StartChar: K
Encoding: 75 75 10
Width: 869
Flags: W
HStem: -5 42<42.2524 136.583 249.58 335.295 499.642 563.651 695.41 756.296> 663 40<207.189 293.389 406.385 504.358 694.189 731.993 822.932 908.812>
LayerCount: 2
Fore
SplineSet
713 703 m 130,-1,1
 713 703 713 703 826 701 c 0,2,3
 838 701 838 701 863 703 c 2,4,5
 882 704 882 704 893 704 c 2,6,-1
 894 704 l 2,7,8
 898 703 898 703 899 703 c 0,9,10
 907 703 907 703 911 699 c 128,-1,11
 915 695 915 695 915 688 c 0,12,13
 915 676 915 676 909 670 c 128,-1,14
 903 664 903 664 893 663 c 2,15,-1
 892 663 l 2,16,17
 870 661 870 661 856.5 657 c 128,-1,18
 843 653 843 653 807.5 636 c 128,-1,19
 772 619 772 619 728 586 c 2,20,-1
 549 448 l 2,21,22
 527 432 527 432 521 427 c 0,23,24
 522 424 522 424 524 420 c 2,25,-1
 672 80 l 2,26,27
 682 54 682 54 695 46 c 128,-1,28
 708 38 708 38 737 37 c 0,29,30
 752 37 752 37 758 31 c 0,31,32
 762 27 762 27 763 20 c 2,33,34
 763 8 763 8 756.5 1.5 c 128,-1,35
 750 -5 750 -5 739 -5 c 2,36,-1
 639 -2 l 2,37,38
 619 -2 619 -2 577 -3.5 c 128,-1,39
 535 -5 535 -5 514 -5 c 0,40,41
 504 -5 504 -5 499.5 -0.5 c 128,-1,42
 495 4 495 4 495 13 c 0,43,44
 495 25 495 25 503 32 c 0,45,46
 507 36 507 36 511 36.5 c 128,-1,47
 515 37 515 37 522 37 c 0,48,49
 553 37 553 37 564 48 c 0,50,51
 570 54 570 54 570 62 c 128,-1,52
 570 70 570 70 558 97 c 2,53,-1
 442 367 l 1,54,-1
 296 253 l 1,55,56
 266 133 266 133 256 94 c 0,57,58
 255 89 255 89 252 78 c 0,59,60
 247 55 247 55 247 50.5 c 128,-1,61
 247 46 247 46 249.5 43.5 c 128,-1,62
 252 41 252 41 262 39 c 128,-1,63
 272 37 272 37 299 37 c 128,-1,64
 326 37 326 37 331 36 c 128,-1,65
 336 35 336 35 339 31.5 c 128,-1,66
 342 28 342 28 342 18 c 128,-1,67
 342 8 342 8 335.5 1.5 c 128,-1,68
 329 -5 329 -5 316 -5 c 2,69,-1
 250 -3 l 1,70,-1
 184 -2 l 1,71,-1
 54 -5 l 2,72,73
 44 -5 44 -5 39 0 c 128,-1,74
 34 5 34 5 34 12 c 0,75,76
 34 28 34 28 42 32.5 c 128,-1,77
 50 37 50 37 68 37 c 0,78,79
 124 37 124 37 137 44 c 0,80,81
 149 51 149 51 156 81 c 2,82,-1
 293 631 l 2,83,84
 297 646 297 646 297 649 c 128,-1,85
 297 652 297 652 293.5 655.5 c 128,-1,86
 290 659 290 659 279 661 c 0,87,88
 254 663 254 663 239 663 c 128,-1,89
 224 663 224 663 217 664 c 0,90,91
 209 665 209 665 205 669 c 128,-1,92
 201 673 201 673 201 682 c 128,-1,93
 201 691 201 691 207 697 c 128,-1,94
 213 703 213 703 224 703 c 0,95,96
 225 703 225 703 225.5 703 c 128,-1,97
 226 703 226 703 226 703 c 130,-1,98
 226 703 226 703 358 701 c 0,99,100
 372 701 372 701 424 703 c 0,101,102
 462 704 462 704 480 704 c 1,103,-1
 490 703 l 1,104,105
 500 703 500 703 504.5 698.5 c 128,-1,106
 509 694 509 694 509 688 c 0,107,108
 509 671 509 671 499 666 c 0,109,110
 491 663 491 663 469 663 c 0,111,112
 418 663 418 663 406 655 c 0,113,114
 394 648 394 648 388 620 c 0,115,116
 359 502 359 502 309 305 c 1,117,-1
 697 603 l 1,118,119
 732 632 732 632 732 646 c 128,-1,120
 732 660 732 660 705 663 c 0,121,122
 697 664 697 664 693 668.5 c 128,-1,123
 689 673 689 673 688 679 c 0,124,125
 688 691 688 691 694 697 c 128,-1,126
 700 703 700 703 711 703 c 0,127,128
 712 703 712 703 712.5 703 c 128,-1,0
 713 703 713 703 713 703 c 130,-1,1
EndSplineSet
Validated: 3073
EndChar

StartChar: L
Encoding: 76 76 11
Width: 696
Flags: W
HStem: -5 42<43.2522 148.339 245.002 483.195> 663 41<208.704 296.999 409.512 529.842>
VStem: 624 39<245 264.359>
LayerCount: 2
Fore
SplineSet
362 701 m 1,0,-1
 514 704 l 2,1,2
 525 704 525 704 530 699 c 128,-1,3
 535 694 535 694 535 684.5 c 128,-1,4
 535 675 535 675 529 669 c 0,5,6
 527 667 527 667 525 666 c 0,7,8
 517 663 517 663 492 663 c 0,9,10
 425 663 425 663 409 655 c 0,11,12
 394 648 394 648 388 619 c 2,13,-1
 250 66 l 2,14,15
 245 49 245 49 245 43 c 0,16,17
 245 39 245 39 253 38 c 2,18,-1
 254 38 l 2,19,20
 260 37 260 37 275 37 c 2,21,-1
 372 37 l 2,22,23
 422 37 422 37 462 50 c 128,-1,24
 502 63 502 63 525.5 81 c 128,-1,25
 549 99 549 99 570.5 131.5 c 128,-1,26
 592 164 592 164 600 186 c 2,27,-1
 624 245 l 2,28,29
 630 260 630 260 634 263 c 0,30,31
 640 269 640 269 646 269 c 0,32,33
 654 269 654 269 658.5 264.5 c 128,-1,34
 663 260 663 260 663 254.5 c 128,-1,35
 663 249 663 249 659 237 c 2,36,-1
 578 15 l 2,37,38
 573 0 573 0 567 -2.5 c 128,-1,39
 561 -5 561 -5 542 -5 c 2,40,-1
 68 -5 l 2,41,42
 51 -5 51 -5 46 -3.5 c 128,-1,43
 41 -2 41 -2 38 1 c 128,-1,44
 35 4 35 4 35 11 c 0,45,46
 35 28 35 28 43 32.5 c 128,-1,47
 51 37 51 37 68 37 c 0,48,49
 124 37 124 37 137 44 c 0,50,51
 149 51 149 51 156 81 c 2,52,-1
 293 631 l 2,53,54
 297 646 297 646 297 650 c 128,-1,55
 297 654 297 654 294.5 656.5 c 128,-1,56
 292 659 292 659 288.5 659.5 c 128,-1,57
 285 660 285 660 271 661.5 c 128,-1,58
 257 663 257 663 238 663 c 128,-1,59
 219 663 219 663 213.5 664.5 c 128,-1,60
 208 666 208 666 205 669 c 128,-1,61
 202 672 202 672 202 679 c 0,62,63
 202 691 202 691 208.5 697.5 c 128,-1,64
 215 704 215 704 226 704 c 2,65,-1
 362 701 l 1,0,-1
EndSplineSet
Validated: 3073
EndChar

StartChar: M
Encoding: 77 77 12
Width: 993
Flags: W
HStem: -5 42<44.1887 136.305 210.475 282.295 615.768 709.583 814.58 900.296> 663 41<209.126 297.389 971.385 1073.8>
LayerCount: 2
Fore
SplineSet
1041 704 m 2,0,1
 1074 704 1074 704 1074 688 c 0,2,3
 1074 671 1074 671 1065 667 c 0,4,5
 1058 663 1058 663 1036 663 c 0,6,7
 983 663 983 663 971 656 c 128,-1,8
 959 649 959 649 953 620 c 2,9,-1
 817 74 l 2,10,11
 812 57 812 57 812 51.5 c 128,-1,12
 812 46 812 46 814.5 43.5 c 128,-1,13
 817 41 817 41 827.5 39 c 128,-1,14
 838 37 838 37 864.5 37 c 128,-1,15
 891 37 891 37 896 36 c 128,-1,16
 901 35 901 35 904 31.5 c 128,-1,17
 907 28 907 28 907 18 c 128,-1,18
 907 8 907 8 900.5 1.5 c 128,-1,19
 894 -5 894 -5 883 -5 c 2,20,-1
 755 -2 l 1,21,-1
 628 -5 l 2,22,23
 617 -5 617 -5 612.5 0 c 128,-1,24
 608 5 608 5 607 12 c 2,25,26
 607 28 607 28 615.5 32.5 c 128,-1,27
 624 37 624 37 641 37 c 0,28,29
 697 37 697 37 710 44 c 0,30,31
 722 51 722 51 729 81 c 2,32,-1
 869 641 l 1,33,-1
 470 15 l 2,34,35
 466 9 466 9 461 4 c 0,36,37
 452 -5 452 -5 444.5 -5 c 128,-1,38
 437 -5 437 -5 431.5 0.5 c 128,-1,39
 426 6 426 6 423 23 c 2,40,-1
 338 634 l 1,41,-1
 205 99 l 2,42,43
 201 85 201 85 201 77 c 0,44,45
 201 62 201 62 210 53 c 0,46,47
 225 38 225 38 265 37 c 0,48,49
 278 37 278 37 283 32 c 128,-1,50
 288 27 288 27 289 20 c 2,51,52
 289 8 289 8 282.5 1.5 c 128,-1,53
 276 -5 276 -5 262.5 -5 c 128,-1,54
 249 -5 249 -5 213 -3.5 c 128,-1,55
 177 -2 177 -2 159.5 -2 c 128,-1,56
 142 -2 142 -2 108 -3.5 c 128,-1,57
 74 -5 74 -5 57 -5 c 0,58,59
 47 -5 47 -5 42.5 -0.5 c 128,-1,60
 38 4 38 4 38 14 c 128,-1,61
 38 24 38 24 44 30 c 128,-1,62
 50 36 50 36 61 37 c 0,63,64
 115 39 115 39 137 57 c 128,-1,65
 159 75 159 75 167 110 c 0,66,67
 212 289 212 289 297 631 c 0,68,69
 301 646 301 646 301 649 c 128,-1,70
 301 652 301 652 297.5 655.5 c 128,-1,71
 294 659 294 659 283 661 c 0,72,73
 258 663 258 663 243 663 c 128,-1,74
 228 663 228 663 221 664 c 0,75,76
 213 665 213 665 209 669 c 128,-1,77
 205 673 205 673 205 683 c 0,78,79
 205 697 205 697 214 701 c 0,80,81
 221 704 221 704 241 704 c 2,82,-1
 381 704 l 2,83,84
 405 704 405 704 410.5 698.5 c 128,-1,85
 416 693 416 693 418 677 c 0,86,87
 418 677 418 677 496 110 c 1,88,-1
 862 683 l 2,89,90
 872 698 872 698 878.5 701 c 128,-1,91
 885 704 885 704 906 704 c 2,92,-1
 1041 704 l 2,0,1
EndSplineSet
Validated: 3073
EndChar

StartChar: N
Encoding: 78 78 13
Width: 822
Flags: W
HStem: -5 42<41.1885 132.305 205.475 278.295> 663 41<205.094 299.646 664.189 736.525 809.695 900.812>
LayerCount: 2
Fore
SplineSet
629 1 m 0,0,1
 626 -5 626 -5 615.5 -5 c 128,-1,2
 605 -5 605 -5 600.5 -0.5 c 128,-1,3
 596 4 596 4 590 17 c 2,4,-1
 335 621 l 1,5,-1
 333 627 l 1,6,-1
 201 99 l 2,7,8
 197 85 197 85 196 77 c 0,9,10
 196 62 196 62 205 53 c 0,11,12
 220 38 220 38 259 37 c 0,13,14
 274 37 274 37 280 31 c 0,15,16
 284 27 284 27 285 20 c 2,17,18
 285 8 285 8 278.5 1.5 c 128,-1,19
 272 -5 272 -5 258.5 -5 c 128,-1,20
 245 -5 245 -5 209 -3.5 c 128,-1,21
 173 -2 173 -2 155.5 -2 c 128,-1,22
 138 -2 138 -2 104 -3.5 c 128,-1,23
 70 -5 70 -5 53 -5 c 0,24,25
 44 -5 44 -5 39.5 -0.5 c 128,-1,26
 35 4 35 4 35 11 c 0,27,28
 35 24 35 24 41 30 c 128,-1,29
 47 36 47 36 57 37 c 2,30,31
 111 39 111 39 133 57 c 128,-1,32
 155 75 155 75 163 110 c 0,33,34
 244 434 244 434 300 657 c 1,35,36
 289 662 289 662 236 663 c 0,37,38
 219 663 219 663 213.5 664.5 c 128,-1,39
 208 666 208 666 205 669 c 128,-1,40
 202 672 202 672 202 679 c 0,41,42
 202 696 202 696 211 700 c 0,43,44
 218 704 218 704 237 704 c 2,45,-1
 374 704 l 2,46,47
 392 704 392 704 398 701 c 0,48,49
 400 700 400 700 403 697 c 128,-1,50
 406 694 406 694 412 682 c 2,51,-1
 632 161 l 1,52,-1
 743 602 l 2,53,54
 746 612 746 612 746 625 c 128,-1,55
 746 638 746 638 737 647 c 0,56,57
 722 662 722 662 681 663 c 0,58,59
 668 663 668 663 663 668 c 128,-1,60
 658 673 658 673 658 679 c 0,61,62
 658 692 658 692 664 698 c 128,-1,63
 670 704 670 704 681 704 c 0,64,65
 697 704 697 704 732.5 702.5 c 128,-1,66
 768 701 768 701 785.5 701 c 128,-1,67
 803 701 803 701 837.5 702.5 c 128,-1,68
 872 704 872 704 889 704 c 0,69,70
 898 704 898 704 902.5 699.5 c 128,-1,71
 907 695 907 695 907 688 c 0,72,73
 907 675 907 675 901 669 c 128,-1,74
 895 663 895 663 885 663 c 0,75,76
 831 661 831 661 809 643 c 128,-1,77
 787 625 787 625 779 591 c 2,78,-1
 636 21 l 2,79,80
 631 5 631 5 629 1 c 0,0,1
EndSplineSet
Validated: 3073
EndChar

StartChar: O
Encoding: 79 79 14
Width: 780
Flags: W
HStem: -28 37<243.455 402.296> 691 36<407.191 566.201>
VStem: 45 105<130.269 369.304> 662 101<342.209 568.665>
LayerCount: 2
Fore
SplineSet
318 9 m 0,0,1
 377 9 377 9 435 44 c 0,2,3
 494 80 494 80 534 130 c 0,4,5
 601 213 601 213 631.5 314 c 128,-1,6
 662 415 662 415 662 486 c 0,7,8
 662 589 662 589 611 640 c 128,-1,9
 560 691 560 691 490 691 c 0,10,11
 428 691 428 691 361 650 c 0,12,13
 293 609 293 609 243 534 c 0,14,15
 193 457 193 457 171.5 367 c 128,-1,16
 150 277 150 277 150 222 c 0,17,18
 150 112 150 112 209 53 c 0,19,20
 253 9 253 9 318 9 c 0,0,1
763 446 m 0,21,22
 763 356 763 356 723 268 c 0,23,24
 682 178 682 178 618.5 114.5 c 128,-1,25
 555 51 555 51 475 12 c 1,26,27
 350 -28 350 -28 315 -28 c 0,28,29
 313 -28 313 -28 312 -28 c 0,30,31
 196 -28 196 -28 120.5 48 c 128,-1,32
 45 124 45 124 45 251 c 0,33,34
 45 339 45 339 84 426 c 0,35,36
 126 519 126 519 195 588 c 0,37,38
 255 648 255 648 335 687.5 c 128,-1,39
 415 727 415 727 497 727 c 0,40,41
 614 727 614 727 688.5 649 c 128,-1,42
 763 571 763 571 763 446 c 0,21,22
EndSplineSet
Validated: 3073
EndChar

StartChar: P
Encoding: 80 80 15
Width: 657
Flags: W
HStem: -5 42<44.2524 138.583 249.003 337.295> 319 36<320 555.185> 663 41<207.126 295.389 401.225 631.725>
VStem: 672 105<466.232 619.841>
LayerCount: 2
Fore
SplineSet
459 355 m 2,0,1
 554 355 554 355 613 408 c 0,2,3
 640 433 640 433 656 484 c 128,-1,4
 672 535 672 535 672 571.5 c 128,-1,5
 672 608 672 608 649 630 c 0,6,7
 617 662 617 662 538 663 c 2,8,-1
 439 663 l 2,9,10
 408 663 408 663 401 658 c 0,11,12
 394 652 394 652 389 628 c 2,13,-1
 320 355 l 1,14,-1
 459 355 l 2,0,1
186 -2 m 1,15,-1
 56 -5 l 2,16,17
 46 -5 46 -5 41 0 c 128,-1,18
 36 5 36 5 36 12 c 0,19,20
 36 28 36 28 44 32.5 c 128,-1,21
 52 37 52 37 70 37 c 0,22,23
 126 37 126 37 139 44 c 0,24,25
 151 51 151 51 158 81 c 2,26,-1
 295 631 l 2,27,28
 299 646 299 646 299 649 c 128,-1,29
 299 652 299 652 295.5 655.5 c 128,-1,30
 292 659 292 659 281 661 c 0,31,32
 256 663 256 663 241 663 c 128,-1,33
 226 663 226 663 219 664 c 0,34,35
 211 665 211 665 207 669 c 128,-1,36
 203 673 203 673 203 683 c 0,37,38
 203 697 203 697 212 701 c 0,39,40
 219 704 219 704 239 704 c 2,41,-1
 570 704 l 2,42,43
 667 704 667 704 722 657 c 128,-1,44
 777 610 777 610 777 545 c 0,45,46
 777 457 777 457 686.5 388 c 128,-1,47
 596 319 596 319 484 319 c 2,48,-1
 314 319 l 1,49,-1
 252 67 l 2,50,51
 252 65 252 65 250.5 59 c 128,-1,52
 249 53 249 53 249 50 c 0,53,54
 249 42 249 42 260 40 c 0,55,56
 275 37 275 37 301.5 37 c 128,-1,57
 328 37 328 37 333 36 c 128,-1,58
 338 35 338 35 341 31.5 c 128,-1,59
 344 28 344 28 344 18 c 128,-1,60
 344 8 344 8 337.5 1.5 c 128,-1,61
 331 -5 331 -5 318 -5 c 2,62,-1
 252 -3 l 1,63,-1
 186 -2 l 1,15,-1
EndSplineSet
Validated: 3073
EndChar

StartChar: Q
Encoding: 81 81 16
Width: 808
Flags: W
HStem: -204 110<477.945 563.977> -28 36<284.974 398.902> 124 33<308.075 393.84> 691 36<407.308 566.62>
VStem: 45 100<129.047 360.901> 244 32<23.2477 91.0071> 636 34<-36.1465 10.8743> 663 100<336.138 567.636>
LayerCount: 2
Fore
SplineSet
318 8 m 0,0,1
 359 8 359 8 402 27 c 0,2,3
 408 29 408 29 410 31 c 0,4,5
 411 33 411 33 411 42 c 0,6,7
 411 92 411 92 393 110 c 0,8,9
 379 124 379 124 351 124 c 128,-1,10
 323 124 323 124 299.5 100 c 128,-1,11
 276 76 276 76 276 47 c 0,12,13
 276 28 276 28 286 18 c 128,-1,14
 296 8 296 8 318 8 c 0,0,1
247 23 m 1,15,16
 244 33 244 33 244 47 c 0,17,18
 244 90 244 90 277.5 123.5 c 128,-1,19
 311 157 311 157 353 157 c 0,20,21
 391 157 391 157 413 135 c 0,22,23
 423 125 423 125 431 107 c 128,-1,24
 439 89 439 89 441.5 76.5 c 128,-1,25
 444 64 444 64 447 49 c 1,26,27
 502 82 502 82 547.5 139.5 c 128,-1,28
 593 197 593 197 616.5 261 c 128,-1,29
 640 325 640 325 651.5 381 c 128,-1,30
 663 437 663 437 663 479 c 0,31,32
 663 587 663 587 605 645 c 0,33,34
 559 691 559 691 490 691 c 0,35,36
 432 691 432 691 366.5 653.5 c 128,-1,37
 301 616 301 616 249 542 c 128,-1,38
 197 468 197 468 171 375.5 c 128,-1,39
 145 283 145 283 145 214.5 c 128,-1,40
 145 146 145 146 173 93 c 0,41,42
 199 46 199 46 247 23 c 1,15,16
497 727 m 0,43,44
 614 727 614 727 688.5 649 c 128,-1,45
 763 571 763 571 763 446 c 0,46,47
 763 302 763 302 670 176 c 0,48,49
 578 51 578 51 454 3 c 1,50,51
 463 -63 463 -63 481 -81 c 0,52,53
 494 -94 494 -94 521 -94 c 0,54,55
 552 -94 552 -94 586.5 -70.5 c 128,-1,56
 621 -47 621 -47 636 1 c 0,57,58
 641 15 641 15 653 15 c 0,59,60
 661 15 661 15 665 11 c 128,-1,61
 669 7 669 7 670 0 c 0,62,63
 670 -8 670 -8 659.5 -38 c 128,-1,64
 649 -68 649 -68 629 -106 c 0,65,66
 610 -144 610 -144 574 -174 c 128,-1,67
 538 -204 538 -204 494 -204 c 0,68,69
 455 -204 455 -204 433 -182 c 0,70,71
 404 -153 404 -153 404 -86 c 0,72,73
 404 -72 404 -72 408 -14 c 1,74,75
 357 -27 357 -27 312 -28 c 2,76,77
 196 -28 196 -28 120.5 48 c 128,-1,78
 45 124 45 124 45 251 c 0,79,80
 45 339 45 339 84 426 c 0,81,82
 126 519 126 519 195 588 c 0,83,84
 255 648 255 648 335 687.5 c 128,-1,85
 415 727 415 727 497 727 c 0,43,44
EndSplineSet
Validated: 3073
EndChar

StartChar: R
Encoding: 82 82 17
Width: 777
Flags: W
HStem: -28 33<629.221 695.51> -5 42<44.7369 138.583 246.003 337.39> 334 32<323 502.501> 663 41<207.094 298.999 398.642 606.121>
VStem: 509 109<18.8282 201.179> 540 93<144.907 298> 657 105<474.938 617.88> 743 35<54.667 108.358>
LayerCount: 2
Fore
SplineSet
547 347 m 1,0,1
 632 309 632 309 633 227 c 0,2,3
 633 208 633 208 626 152.5 c 128,-1,4
 619 97 619 97 618 62 c 0,5,6
 618 25 618 25 629 13 c 0,7,8
 636 5 636 5 654 5 c 0,9,10
 676 5 676 5 701 25 c 0,11,12
 729 49 729 49 743 95 c 0,13,14
 748 112 748 112 761 113 c 0,15,16
 769 113 769 113 773.5 108.5 c 128,-1,17
 778 104 778 104 778 95 c 0,18,19
 778 68 778 68 744 21 c 0,20,21
 709 -28 709 -28 650 -28 c 0,22,23
 641 -28 641 -28 630.5 -27.5 c 128,-1,24
 620 -27 620 -27 596 -20 c 0,25,26
 559 -10 559 -10 541 8 c 0,27,28
 531 18 531 18 523 31 c 0,29,30
 509 55 509 55 509 88 c 0,31,32
 509 111 509 111 524 171 c 128,-1,33
 539 231 539 231 540 246 c 0,34,35
 540 280 540 280 517 307 c 128,-1,36
 494 334 494 334 433 334 c 2,37,-1
 315 334 l 1,38,-1
 249 67 l 2,39,40
 249 65 249 65 247.5 59 c 128,-1,41
 246 53 246 53 246 50 c 0,42,43
 246 42 246 42 257 40 c 0,44,45
 272 37 272 37 298 37 c 128,-1,46
 324 37 324 37 329 36 c 128,-1,47
 334 35 334 35 337.5 31.5 c 128,-1,48
 341 28 341 28 341 19 c 0,49,50
 341 8 341 8 333 -0 c 0,51,52
 329 -4 329 -4 326 -4.5 c 128,-1,53
 323 -5 323 -5 316 -5 c 2,54,55
 316 -5 316 -5 315 -5 c 128,-1,56
 314 -5 314 -5 186 -2 c 1,57,-1
 56 -5 l 2,58,59
 46 -5 46 -5 41.5 -0.5 c 128,-1,60
 37 4 37 4 37 11 c 0,61,62
 37 28 37 28 44.5 32.5 c 128,-1,63
 52 37 52 37 70 37 c 0,64,65
 126 37 126 37 139 44 c 0,66,67
 150 51 150 51 158 81 c 2,68,-1
 295 631 l 2,69,70
 299 647 299 647 299 650 c 0,71,72
 299 654 299 654 296.5 656.5 c 128,-1,73
 294 659 294 659 290.5 659.5 c 128,-1,74
 287 660 287 660 273 661.5 c 128,-1,75
 259 663 259 663 240 663 c 128,-1,76
 221 663 221 663 215.5 664.5 c 128,-1,77
 210 666 210 666 207 669 c 128,-1,78
 204 672 204 672 204 679 c 0,79,80
 204 696 204 696 213 700 c 0,81,82
 220 704 220 704 239 704 c 2,83,-1
 530 704 l 2,84,85
 631 704 631 704 696 660 c 0,86,87
 762 615 762 615 762 546 c 0,88,89
 762 472 762 472 691 417 c 0,90,91
 627 367 627 367 547 347 c 1,0,1
432 366 m 2,92,93
 544 366 544 366 601 425 c 0,94,95
 628 452 628 452 642.5 494 c 128,-1,96
 657 536 657 536 657 563 c 0,97,98
 657 614 657 614 625 633 c 0,99,100
 608 643 608 643 594 650 c 128,-1,101
 580 657 580 657 554.5 659.5 c 128,-1,102
 529 662 529 662 515 662.5 c 128,-1,103
 501 663 501 663 461.5 663 c 128,-1,104
 422 663 422 663 414 662 c 0,105,106
 403 661 403 661 398.5 654 c 128,-1,107
 394 647 394 647 389 628 c 2,108,-1
 323 366 l 1,109,-1
 432 366 l 2,92,93
EndSplineSet
Validated: 3073
EndChar

StartChar: S
Encoding: 83 83 18
Width: 627
Flags: W
HStem: -28 42<208.705 387.051> 462 21G<585.5 594.5> 688 39<355.003 514.267>
VStem: 105.5 36.5<159.536 231.935> 177 83<460.235 575.114> 488 83<140.413 266.708>
LayerCount: 2
Fore
SplineSet
435 727 m 0,0,1
 538 727 538 727 583 657 c 1,2,-1
 627 710 l 2,3,4
 641 727 641 727 649 727 c 128,-1,5
 657 727 657 727 661 723 c 128,-1,6
 665 719 665 719 665 712 c 2,7,-1
 665 711 l 1,8,-1
 610 486 l 2,9,10
 607 472 607 472 605.5 469.5 c 128,-1,11
 604 467 604 467 603 466 c 0,12,13
 599 462 599 462 590 462 c 128,-1,14
 581 462 581 462 577 466 c 128,-1,15
 573 470 573 470 573 477 c 0,16,17
 573 479 573 479 574 487 c 0,18,19
 577 511 577 511 577 535 c 0,20,21
 577 615 577 615 538.5 651.5 c 128,-1,22
 500 688 500 688 432 688 c 128,-1,23
 364 688 364 688 312 636 c 128,-1,24
 260 584 260 584 260 523 c 0,25,26
 260 488 260 488 278 465 c 128,-1,27
 296 442 296 442 318 435 c 0,28,29
 325 434 325 434 387 417 c 0,30,31
 459 399 459 399 480 391 c 0,32,33
 502 382 502 382 520 364 c 0,34,35
 571 316 571 316 571 241 c 0,36,37
 571 137 571 137 484 49 c 0,38,39
 407 -28 407 -28 306 -28 c 0,40,41
 189 -28 189 -28 133 43 c 1,42,43
 83 -15 83 -15 77 -21 c 128,-1,44
 71 -27 71 -27 65 -28 c 1,45,46
 57 -28 57 -28 53 -24 c 0,47,48
 48 -19 48 -19 48 -12 c 0,49,50
 48 -8 48 -8 71 83 c 0,51,52
 101 203 101 203 105.5 216.5 c 128,-1,53
 110 230 110 230 111 232 c 0,54,55
 116 237 116 237 124.5 237 c 128,-1,56
 133 237 133 237 137.5 232.5 c 128,-1,57
 142 228 142 228 142 221 c 0,58,59
 142 219 142 219 141 217 c 128,-1,60
 140 215 140 215 140 214 c 2,61,-1
 140 213 l 1,62,63
 134 176 134 176 134 159 c 0,64,65
 134 124 134 124 146 99 c 0,66,67
 159 70 159 70 176.5 55 c 128,-1,68
 194 40 194 40 219 30 c 128,-1,69
 244 20 244 20 265 17 c 128,-1,70
 286 14 286 14 308 14 c 0,71,72
 380 14 380 14 434 71.5 c 128,-1,73
 488 129 488 129 488 198 c 0,74,75
 488 254 488 254 456 276 c 0,76,77
 440 287 440 287 428.5 291.5 c 128,-1,78
 417 296 417 296 397 301 c 0,79,80
 288 330 288 330 288 330 c 0,81,82
 243 343 243 343 210 382 c 128,-1,83
 177 421 177 421 177 480 c 0,84,85
 177 575 177 575 256.5 651 c 128,-1,86
 336 727 336 727 435 727 c 0,0,1
EndSplineSet
Validated: 3073
EndChar

StartChar: T
Encoding: 84 84 19
Width: 598
Flags: W
HStem: -5 42<51.158 199.839 307.677 433.295> 458 20G<32 38 673 680> 657 41<150.706 350.81 450.611 650.855>
VStem: 20 39<462.641 532.396> 670 56<556.058 690>
LayerCount: 2
Fore
SplineSet
693 698 m 2,0,1
 726 698 726 698 726 682 c 0,2,3
 726 673 726 673 724 664 c 2,4,-1
 696 485 l 2,5,6
 694 468 694 468 688.5 462.5 c 128,-1,7
 683 457 683 457 677 457 c 0,8,9
 669 457 669 457 664 462 c 128,-1,10
 659 467 659 467 659 475.5 c 128,-1,11
 659 484 659 484 662 497 c 0,12,13
 670 549 670 549 670 578 c 0,14,15
 670 630 670 630 641 643 c 0,16,17
 610 657 610 657 525 657 c 0,18,19
 471 657 471 657 463 655 c 0,20,21
 454 653 454 653 450.5 647.5 c 128,-1,22
 447 642 447 642 442 621 c 2,23,-1
 306 77 l 2,24,25
 302 63 302 63 302 55 c 0,26,27
 302 46 302 46 307.5 43.5 c 128,-1,28
 313 41 313 41 337.5 39 c 128,-1,29
 362 37 362 37 392.5 37 c 128,-1,30
 423 37 423 37 428 36 c 128,-1,31
 433 35 433 35 436.5 31.5 c 128,-1,32
 440 28 440 28 440 18 c 128,-1,33
 440 8 440 8 433.5 1.5 c 128,-1,34
 427 -5 427 -5 413 -5 c 2,35,-1
 324 -3 l 1,36,-1
 238 -2 l 1,37,-1
 152 -3 l 1,38,-1
 68 -5 l 2,39,40
 56 -5 56 -5 51 0 c 128,-1,41
 46 5 46 5 45 12 c 2,42,43
 45 29 45 29 54 34 c 0,44,45
 61 37 61 37 104 37 c 128,-1,46
 147 37 147 37 170 42 c 0,47,48
 195 47 195 47 200 53.5 c 128,-1,49
 205 60 205 60 210 82 c 2,50,-1
 347 629 l 2,51,52
 351 642 351 642 351 649 c 2,53,-1
 351 653 l 1,54,55
 345 657 345 657 328 657 c 2,56,-1
 288 657 l 2,57,58
 175 657 175 657 137 628.5 c 128,-1,59
 99 600 99 600 59 482 c 0,60,61
 51 461 51 461 44 459 c 0,62,63
 41 458 41 458 35 458 c 128,-1,64
 29 458 29 458 24.5 462.5 c 128,-1,65
 20 467 20 467 20 474 c 128,-1,66
 20 481 20 481 26 495 c 1,67,-1
 87 675 l 2,68,69
 93 691 93 691 98.5 694.5 c 128,-1,70
 104 698 104 698 125 698 c 2,71,-1
 693 698 l 2,0,1
724 664 m 129,-1,72
 724 664 724 664 724 664 c 129,-1,72
EndSplineSet
Validated: 3073
EndChar

StartChar: U
Encoding: 85 85 20
Width: 698
Flags: W
HStem: -28 42<202.686 361.428> 663 41<81.0942 168.934 282.385 380.358 537.189 609.525 685.695 776.812>
VStem: 64 89<75.1667 260.34>
LayerCount: 2
Fore
SplineSet
554 704 m 2,0,-1
 660 701 l 2,1,2
 677 701 677 701 713 702.5 c 128,-1,3
 749 704 749 704 765 704 c 0,4,5
 774 704 774 704 778.5 699.5 c 128,-1,6
 783 695 783 695 783 688 c 0,7,8
 783 675 783 675 777 669 c 128,-1,9
 771 663 771 663 761 663 c 0,10,11
 707 661 707 661 685 643 c 128,-1,12
 663 625 663 625 655 591 c 2,13,-1
 564 227 l 2,14,15
 538 124 538 124 452.5 48 c 128,-1,16
 367 -28 367 -28 269 -28 c 0,17,18
 178 -28 178 -28 118 32 c 0,19,20
 64 86 64 86 64 174 c 0,21,22
 64 206 64 206 71 234 c 0,23,24
 73 244 73 244 101 356 c 0,25,26
 122 441 122 441 147.5 543 c 128,-1,27
 173 645 173 645 173 649 c 128,-1,28
 173 653 173 653 171.5 654.5 c 128,-1,29
 170 656 170 656 169 657 c 0,30,31
 167 659 167 659 150.5 661 c 128,-1,32
 134 663 134 663 114 663 c 128,-1,33
 94 663 94 663 89 664.5 c 128,-1,34
 84 666 84 666 81 669 c 128,-1,35
 78 672 78 672 78 681 c 0,36,37
 78 692 78 692 86 700 c 0,38,39
 89 703 89 703 92.5 703.5 c 128,-1,40
 96 704 96 704 102 704 c 2,41,-1
 234 701 l 1,42,-1
 366 704 l 2,43,44
 376 704 376 704 380.5 699.5 c 128,-1,45
 385 695 385 695 385 688 c 0,46,47
 385 671 385 671 376 666 c 0,48,49
 369 663 369 663 345 663 c 0,50,51
 294 663 294 663 282 655 c 0,52,53
 270 648 270 648 264 620 c 0,54,55
 165 221 165 221 165 221 c 0,56,57
 154 177 154 177 153 142 c 0,58,59
 153 81 153 81 187 47.5 c 128,-1,60
 221 14 221 14 273 14 c 0,61,62
 351 14 351 14 425 76.5 c 128,-1,63
 499 139 499 139 523 237 c 0,64,65
 616 602 616 602 616 602 c 0,66,67
 619 612 619 612 619 625 c 128,-1,68
 619 638 619 638 610 647 c 0,69,70
 595 662 595 662 554 663 c 0,71,72
 541 663 541 663 536 668 c 128,-1,73
 531 673 531 673 531 679 c 0,74,75
 531 692 531 692 537 698 c 128,-1,76
 543 704 543 704 554 704 c 2,0,-1
EndSplineSet
Validated: 3073
EndChar

StartChar: V
Encoding: 86 86 21
Width: 596
Flags: W
HStem: 663 40<58.1887 133.904 239.031 329.873 570.189 626.759 703.144 786.328>
LayerCount: 2
Fore
SplineSet
589 703 m 130,-1,1
 589 703 589 703 690 701 c 0,2,3
 704 701 704 701 732 703 c 2,4,5
 753 704 753 704 767 704 c 2,6,-1
 768 704 l 1,7,8
 772 703 772 703 774 703 c 0,9,10
 783 703 783 703 787.5 698.5 c 128,-1,11
 792 694 792 694 792 687 c 0,12,13
 792 674 792 674 786.5 669 c 128,-1,14
 781 664 781 664 774 663 c 2,15,16
 756 662 756 662 744.5 660 c 128,-1,17
 733 658 733 658 716 650 c 0,18,19
 678 633 678 633 647 580 c 1,20,-1
 278 -7 l 2,21,22
 266 -27 266 -27 246 -28 c 2,23,24
 234 -28 234 -28 228 -22 c 128,-1,25
 222 -16 222 -16 220 0 c 0,26,27
 192 217 192 217 139 632 c 0,28,29
 137 650 137 650 134 653 c 128,-1,30
 131 656 131 656 120.5 659.5 c 128,-1,31
 110 663 110 663 91.5 663 c 128,-1,32
 73 663 73 663 68 664 c 0,33,34
 61 665 61 665 56.5 669 c 128,-1,35
 52 673 52 673 52 682 c 128,-1,36
 52 691 52 691 58 697 c 128,-1,37
 64 703 64 703 75 703 c 0,38,39
 76 703 76 703 76.5 703 c 128,-1,40
 77 703 77 703 77 703 c 129,-1,41
 77 703 77 703 188 701 c 0,42,43
 210 701 210 701 252 703 c 2,44,-1
 276 703 l 1,45,-1
 295 703 l 1,46,-1
 315 703 l 2,47,48
 326 703 326 703 330 698.5 c 128,-1,49
 334 694 334 694 335 688 c 0,50,51
 335 675 335 675 328 669 c 0,52,53
 323 664 323 664 318 663.5 c 128,-1,54
 313 663 313 663 304 663 c 0,55,56
 238 663 238 663 238 637 c 1,57,-1
 306 109 l 1,58,-1
 613 598 l 1,59,-1
 617 604 l 2,60,61
 628 624 628 624 628 635 c 0,62,63
 628 661 628 661 586 663 c 0,64,65
 575 663 575 663 570 668 c 128,-1,66
 565 673 565 673 564 680 c 2,67,68
 564 691 564 691 570 697 c 128,-1,69
 576 703 576 703 587 703 c 0,70,71
 588 703 588 703 588.5 703 c 128,-1,0
 589 703 589 703 589 703 c 130,-1,1
EndSplineSet
Validated: 3073
EndChar

StartChar: W
Encoding: 87 87 22
Width: 966
Flags: W
HStem: 663 40<57.1885 129.717 230.067 321.295 437.189 500.26 612.384 703.358 857.189 918.588 993.56 1071.81>
LayerCount: 2
Fore
SplineSet
876 703 m 130,-1,1
 876 703 876 703 982 701 c 0,2,3
 995 701 995 701 1022 703 c 2,4,5
 1042 704 1042 704 1054 704 c 2,6,-1
 1055 704 l 1,7,8
 1059 703 1059 703 1061 703 c 0,9,10
 1070 703 1070 703 1074 699 c 128,-1,11
 1078 695 1078 695 1078 688 c 0,12,13
 1078 672 1078 672 1072 668 c 128,-1,14
 1066 664 1066 664 1054 663 c 0,15,16
 1012 660 1012 660 990 640 c 0,17,18
 967 619 967 619 943 579 c 2,19,-1
 607 -6 l 2,20,21
 595 -27 595 -27 579 -28 c 2,22,23
 567 -28 567 -28 563 -21 c 128,-1,24
 559 -14 559 -14 557 3 c 2,25,-1
 557 4 l 1,26,-1
 520 504 l 1,27,-1
 227 -4 l 2,28,29
 215 -24 215 -24 206 -27 c 0,30,31
 203 -28 203 -28 199 -28 c 0,32,33
 186 -28 186 -28 182 -19 c 0,34,35
 179 -12 179 -12 177 4 c 2,36,-1
 131 630 l 2,37,38
 130 645 130 645 128.5 648.5 c 128,-1,39
 127 652 127 652 125 654 c 128,-1,40
 123 656 123 656 115 659.5 c 128,-1,41
 107 663 107 663 89.5 663 c 128,-1,42
 72 663 72 663 66 664 c 0,43,44
 59 665 59 665 55 669 c 128,-1,45
 51 673 51 673 51 682 c 128,-1,46
 51 691 51 691 57 697 c 128,-1,47
 63 703 63 703 73 703 c 0,48,49
 74 703 74 703 74.5 703 c 128,-1,50
 75 703 75 703 75 703 c 130,-1,51
 75 703 75 703 182 701 c 0,52,53
 204 701 204 701 246 703 c 2,54,-1
 269 703 l 1,55,-1
 288 703 l 1,56,-1
 308 703 l 2,57,58
 319 703 319 703 323 698.5 c 128,-1,59
 327 694 327 694 328 688 c 0,60,61
 328 676 328 676 321.5 669.5 c 128,-1,62
 315 663 315 663 301 663 c 0,63,64
 266 663 266 663 251 656 c 0,65,66
 232 648 232 648 230 643.5 c 128,-1,67
 228 639 228 639 228 631 c 2,68,-1
 266 129 l 1,69,-1
 516 564 l 1,70,-1
 510 641 l 2,71,72
 508 653 508 653 500.5 658 c 128,-1,73
 493 663 493 663 462 663 c 128,-1,74
 431 663 431 663 431 679 c 0,75,76
 431 691 431 691 437 697 c 128,-1,77
 443 703 443 703 454 703 c 0,78,79
 455 703 455 703 455.5 703 c 128,-1,80
 456 703 456 703 456 703 c 130,-1,81
 456 703 456 703 563 701 c 0,82,83
 584 701 584 701 626 703 c 2,84,-1
 650 703 l 1,85,-1
 668 703 l 1,86,-1
 688 703 l 2,87,88
 699 703 699 703 703.5 698.5 c 128,-1,89
 708 694 708 694 708 688 c 0,90,91
 708 671 708 671 699 667 c 0,92,93
 692 663 692 663 671 663 c 128,-1,94
 650 663 650 663 636 659 c 0,95,96
 620 654 620 654 615 647 c 128,-1,97
 610 640 610 640 609 636.5 c 128,-1,98
 608 633 608 633 608 630 c 128,-1,99
 608 627 608 627 646 129 c 1,100,-1
 915 596 l 2,101,102
 927 619 927 619 927 628 c 0,103,104
 927 641 927 641 919 649 c 0,105,106
 906 662 906 662 871 663 c 0,107,108
 861 663 861 663 856 668 c 128,-1,109
 851 673 851 673 851 682 c 128,-1,110
 851 691 851 691 857 697 c 128,-1,111
 863 703 863 703 874 703 c 0,112,113
 875 703 875 703 875.5 703 c 128,-1,0
 876 703 876 703 876 703 c 130,-1,1
228 631 m 129,-1,114
 228 631 228 631 228 631 c 129,-1,114
EndSplineSet
Validated: 3073
EndChar

StartChar: X
Encoding: 88 88 23
Width: 847
Flags: W
HStem: -5 42<29.705 129.25 228.284 268.296 470.157 543.61 669.353 746.296> 663 41<210.189 285.133 413.698 484.81 630.704 670.716 770.458 869.295>
LayerCount: 2
Fore
SplineSet
227 704 m 2,0,-1
 342 701 l 2,1,2
 364 701 364 701 407.5 702.5 c 128,-1,3
 451 704 451 704 471 704 c 0,4,5
 481 704 481 704 486 699 c 128,-1,6
 491 694 491 694 491 685.5 c 128,-1,7
 491 677 491 677 485 670.5 c 128,-1,8
 479 664 479 664 463.5 662.5 c 128,-1,9
 448 661 448 661 434 655 c 128,-1,10
 420 649 420 649 416 645 c 128,-1,11
 412 641 412 641 411 639 c 1,12,-1
 416 627 l 1,13,14
 458 529 458 529 499 430 c 1,15,-1
 659 602 l 1,16,17
 677 622 677 622 677 636 c 0,18,19
 677 646 677 646 671 652 c 0,20,21
 662 661 662 661 641 663 c 2,22,-1
 640 663 l 1,23,24
 624 666 624 666 624 679 c 0,25,26
 624 691 624 691 630.5 697.5 c 128,-1,27
 637 704 637 704 648 704 c 0,28,29
 666 704 666 704 704 702.5 c 128,-1,30
 742 701 742 701 760 701 c 128,-1,31
 778 701 778 701 810.5 702.5 c 128,-1,32
 843 704 843 704 855 704 c 128,-1,33
 867 704 867 704 871.5 699.5 c 128,-1,34
 876 695 876 695 876 688 c 0,35,36
 876 672 876 672 869.5 668 c 128,-1,37
 863 664 863 664 849 663 c 2,38,39
 779 660 779 660 722 611 c 0,40,41
 708 599 708 599 672 560.5 c 128,-1,42
 636 522 636 522 589.5 471.5 c 128,-1,43
 543 421 543 421 515 392 c 1,44,45
 527 361 527 361 646 79 c 0,46,47
 658 49 658 49 669 43.5 c 128,-1,48
 680 38 680 38 729 37 c 0,49,50
 742 37 742 37 747 31.5 c 128,-1,51
 752 26 752 26 753 19 c 2,52,53
 753 8 753 8 746.5 1.5 c 128,-1,54
 740 -5 740 -5 728 -5 c 2,55,-1
 614 -2 l 1,56,-1
 485 -5 l 2,57,58
 475 -5 475 -5 470 0 c 128,-1,59
 465 5 465 5 465 13 c 0,60,61
 465 24 465 24 472 31 c 0,62,63
 475 34 475 34 478.5 35 c 128,-1,64
 482 36 482 36 489 37 c 2,65,66
 506 39 506 39 520.5 44 c 128,-1,67
 535 49 535 49 539.5 53.5 c 128,-1,68
 544 58 544 58 545 60 c 1,69,-1
 540 74 l 1,70,-1
 439 312 l 1,71,-1
 353 217 l 2,72,73
 318 180 318 180 249 107 c 0,74,75
 222 78 222 78 222 63 c 0,76,77
 222 53 222 53 228 47 c 0,78,79
 237 38 237 38 258 37 c 0,80,81
 266 37 266 37 270.5 32.5 c 128,-1,82
 275 28 275 28 275 18 c 128,-1,83
 275 8 275 8 268.5 1.5 c 128,-1,84
 262 -5 262 -5 252 -5 c 0,85,86
 233 -5 233 -5 195 -3.5 c 128,-1,87
 157 -2 157 -2 139 -2 c 128,-1,88
 121 -2 121 -2 88.5 -3.5 c 128,-1,89
 56 -5 56 -5 44 -5 c 128,-1,90
 32 -5 32 -5 27.5 -0.5 c 128,-1,91
 23 4 23 4 23 11 c 0,92,93
 23 27 23 27 29.5 31.5 c 128,-1,94
 36 36 36 36 50 37 c 2,95,96
 135 42 135 42 197 109 c 1,97,-1
 198 109 l 1,98,-1
 210 121 l 1,99,-1
 424 350 l 1,100,-1
 304 633 l 2,101,102
 297 650 297 650 285.5 656.5 c 128,-1,103
 274 663 274 663 232 663 c 0,104,105
 204 663 204 663 204 678 c 0,106,107
 204 679 204 679 204 680 c 0,108,109
 204 692 204 692 210 698 c 128,-1,110
 216 704 216 704 227 704 c 2,0,-1
EndSplineSet
Validated: 3073
EndChar

StartChar: Y
Encoding: 89 89 24
Width: 593
Flags: W
HStem: -5 42<96.7369 191.645 301.159 385.78> 663 41<38.2195 119.842 233.014 311.264 561.251 603.778 689.847 784.922>
LayerCount: 2
Fore
SplineSet
170 701 m 1,0,-1
 299 704 l 2,1,2
 310 704 310 704 314.5 699.5 c 128,-1,3
 319 695 319 695 319 688 c 0,4,5
 319 671 319 671 311.5 667 c 128,-1,6
 304 663 304 663 290 663 c 0,7,8
 233 663 233 663 233 647 c 0,9,10
 233 645 233 645 234 643 c 0,11,12
 235 640 235 640 241 628 c 1,13,-1
 350 332 l 1,14,-1
 582 598 l 1,15,16
 608 630 608 630 608 643 c 2,17,-1
 608 644 l 2,18,19
 608 652 608 652 604 656 c 0,20,21
 597 663 597 663 577 663 c 0,22,23
 566 663 566 663 562 668 c 0,24,25
 556 674 556 674 555 680 c 0,26,27
 553 690 553 690 561 698 c 0,28,29
 569 704 569 704 582 704 c 0,30,31
 597 704 597 704 631.5 702.5 c 128,-1,32
 666 701 666 701 681.5 701 c 128,-1,33
 697 701 697 701 725.5 702.5 c 128,-1,34
 754 704 754 704 765 704 c 0,35,36
 785 704 785 704 785 687 c 0,37,38
 785 668 785 668 779 668 c 0,39,40
 778 668 778 668 760 663 c 2,41,42
 728 661 728 661 701.5 648.5 c 128,-1,43
 675 636 675 636 662.5 625 c 128,-1,44
 650 614 650 614 629 593 c 1,45,-1
 615 580 l 1,46,-1
 361 288 l 2,47,48
 354 280 354 280 348 258 c 0,49,50
 312 117 312 117 312 114 c 0,51,52
 298 55 298 55 298 50 c 0,53,54
 298 44 298 44 301 43 c 0,55,56
 306 41 306 41 322 39 c 128,-1,57
 338 37 338 37 357.5 37 c 128,-1,58
 377 37 377 37 382 36 c 128,-1,59
 387 35 387 35 390 31.5 c 128,-1,60
 393 28 393 28 393 18 c 128,-1,61
 393 8 393 8 386 1.5 c 128,-1,62
 379 -5 379 -5 368 -5 c 2,63,64
 368 -5 368 -5 367 -5 c 0,65,66
 304 -4 304 -4 238 -2 c 1,67,-1
 108 -5 l 2,68,69
 99 -5 99 -5 94 -0 c 0,70,71
 90 4 90 4 89 11 c 0,72,73
 89 28 89 28 96.5 32.5 c 128,-1,74
 104 37 104 37 122 37 c 0,75,76
 181 38 181 38 192 45 c 128,-1,77
 203 52 203 52 213 93 c 1,78,79
 259 269 259 269 259 279 c 0,80,81
 259 283 259 283 255 294 c 2,82,-1
 129 631 l 2,83,84
 123 647 123 647 120 650 c 0,85,86
 115 655 115 655 101.5 659 c 128,-1,87
 88 663 88 663 59.5 663 c 128,-1,88
 31 663 31 663 31 678 c 0,89,90
 31 679 31 679 31 680 c 0,91,92
 32 692 32 692 38 698 c 0,93,94
 45 704 45 704 55 704 c 2,95,-1
 170 701 l 1,0,-1
234 643 m 129,-1,96
 234 643 234 643 234 643 c 129,-1,96
EndSplineSet
Validated: 3073
EndChar

StartChar: Z
Encoding: 90 90 25
Width: 698
Flags: W
HStem: -5 45<176 474.967> 464 21G<198.75 206.25> 663 41<346.477 625>
VStem: 190 32<468.315 517.291> 609 35<247.311 273.359>
LayerCount: 2
Fore
SplineSet
728 704 m 2,0,1
 745 704 745 704 745 690 c 0,2,3
 745 686 745 686 742 673 c 1,4,-1
 176 40 l 1,5,-1
 340 40 l 2,6,7
 404 40 404 40 447 52 c 128,-1,8
 490 64 490 64 519.5 93.5 c 128,-1,9
 549 123 549 123 567 157.5 c 128,-1,10
 585 192 585 192 603 249 c 0,11,12
 607 262 607 262 609 266 c 0,13,14
 614 278 614 278 626 278 c 0,15,16
 635 278 635 278 639.5 273.5 c 128,-1,17
 644 269 644 269 644 262 c 0,18,19
 644 257 644 257 640 247 c 1,20,-1
 640 246 l 1,21,-1
 567 18 l 2,22,23
 561 3 561 3 556 -1 c 128,-1,24
 551 -5 551 -5 530 -5 c 2,25,-1
 74 -5 l 2,26,27
 59 -5 59 -5 56 2 c 0,28,29
 54 5 54 5 54 8 c 0,30,31
 54 10 54 10 58 30 c 1,32,-1
 625 663 l 1,33,-1
 469 663 l 2,34,35
 358 663 358 663 306 619 c 128,-1,36
 254 575 254 575 222 477 c 0,37,38
 220 473 220 473 215 468.5 c 128,-1,39
 210 464 210 464 202.5 464 c 128,-1,40
 195 464 195 464 191 468 c 0,41,42
 181 478 181 478 190 497 c 1,43,-1
 246 681 l 2,44,45
 252 697 252 697 257 700.5 c 128,-1,46
 262 704 262 704 283 704 c 2,47,-1
 728 704 l 2,0,1
640 247 m 1,48,-1
 640 247 l 1,48,-1
EndSplineSet
Validated: 3073
EndChar

StartChar: a
Encoding: 97 97 26
Width: 540
Flags: W
HStem: -16 32<140.499 230.89 383.841 437.225> 417 20G<416 434> 425 33<242.25 330.399>
VStem: 36 83<56.9423 232.892> 380 80<401.3 428.233> 482 33<95.9214 157.359>
LayerCount: 2
Fore
SplineSet
289 425 m 0,0,1
 253 425 253 425 217 388 c 0,2,3
 193 364 193 364 174 330 c 0,4,5
 156 295 156 295 137.5 219.5 c 128,-1,6
 119 144 119 144 119 108 c 128,-1,7
 119 72 119 72 133 43 c 0,8,9
 147 16 147 16 179 16 c 0,10,11
 234 16 234 16 291 87 c 0,12,13
 305 103 305 103 310 123 c 2,14,-1
 362 324 l 2,15,16
 365 337 365 337 365 340.5 c 128,-1,17
 365 344 365 344 361 356 c 0,18,19
 350 389 350 389 336 404 c 0,20,21
 315 425 315 425 289 425 c 0,0,1
307 55 m 1,22,23
 244 -16 244 -16 177 -16 c 0,24,25
 115 -16 115 -16 75.5 31.5 c 128,-1,26
 36 79 36 79 36 153 c 0,27,28
 36 267 36 267 116 362 c 0,29,30
 196 458 196 458 288 458 c 0,31,32
 347 458 347 458 380 401 c 1,33,34
 385 414 385 414 394 424 c 0,35,36
 407 437 407 437 425 437 c 128,-1,37
 443 437 443 437 451.5 428.5 c 128,-1,38
 460 420 460 420 460 404 c 0,39,40
 460 397 460 397 452 369 c 2,41,-1
 416 225 l 1,42,43
 401 160 401 160 393 133 c 0,44,45
 380 81 380 81 380 56 c 0,46,47
 380 16 380 16 406 16 c 128,-1,48
 432 16 432 16 447 47 c 128,-1,49
 462 78 462 78 478 139 c 0,50,51
 480 151 480 151 482 154 c 128,-1,52
 484 157 484 157 485 158 c 0,53,54
 489 162 489 162 497.5 162 c 128,-1,55
 506 162 506 162 510.5 157.5 c 128,-1,56
 515 153 515 153 515 146 c 0,57,58
 515 143 515 143 511.5 127 c 128,-1,59
 508 111 508 111 500 85 c 128,-1,60
 492 59 492 59 482.5 40.5 c 128,-1,61
 473 22 473 22 459 8 c 0,62,63
 435 -16 435 -16 403 -16 c 0,64,65
 361 -16 361 -16 332 13 c 0,66,67
 314 31 314 31 307 55 c 1,22,23
EndSplineSet
Validated: 3073
EndChar

StartChar: b
Encoding: 98 98 27
Width: 439
Flags: W
HStem: -16 32<141.287 223.587> 425 33<233.953 287 288 321.53> 663 53<86.1257 156.935> 664 41<86.1257 118.018>
VStem: 43 72<52.5909 243.504> 346 84<208.752 384.008>
LayerCount: 2
Fore
SplineSet
115 115 m 0,0,1
 115 64 115 64 134 40 c 0,2,3
 152 16 152 16 178 16 c 0,4,5
 212 16 212 16 248 52 c 0,6,7
 274 78 274 78 294 119 c 0,8,9
 309 152 309 152 327.5 222.5 c 128,-1,10
 346 293 346 293 346 336 c 0,11,12
 346 387 346 387 322 410 c 0,13,14
 307 425 307 425 287 425 c 0,15,16
 228 425 228 425 168 345 c 0,17,18
 159 334 159 334 153 311 c 2,19,-1
 131 217 l 2,20,21
 115 152 115 152 115 115 c 0,0,1
157 657 m 0,22,23
 155 659 155 659 144.5 661 c 128,-1,24
 134 663 134 663 118.5 663 c 128,-1,25
 103 663 103 663 97 664 c 0,26,27
 90 665 90 665 86 669 c 128,-1,28
 82 673 82 673 82 682 c 128,-1,29
 82 691 82 691 88 697.5 c 128,-1,30
 94 704 94 704 103.5 705 c 128,-1,31
 113 706 113 706 142 709 c 0,32,33
 210 716 210 716 231 716 c 2,34,35
 240 715 240 715 245 710.5 c 128,-1,36
 250 706 250 706 250 699 c 2,37,-1
 250 698 l 1,38,-1
 178 407 l 1,39,40
 232 457 232 457 287 457 c 1,41,-1
 288 458 l 1,42,-1
 290 458 l 2,43,44
 352 458 352 458 391 409 c 0,45,46
 430 361 430 361 430 289 c 0,47,48
 430 176 430 176 351 80 c 0,49,50
 271 -16 271 -16 178 -16 c 0,51,52
 119 -16 119 -16 81 29.5 c 128,-1,53
 43 75 43 75 43 150 c 0,54,55
 43 186 43 186 60 254 c 2,56,-1
 143 588 l 2,57,58
 156 643 156 643 158 651 c 0,59,60
 158 655 158 655 157 657 c 0,22,23
EndSplineSet
Validated: 3073
EndChar

StartChar: c
Encoding: 99 99 28
Width: 442
Flags: W
HStem: -16 32<158.939 294.403> 294 100<357.44 396.604> 425 33<257.589 381.788>
VStem: 37 86<69.665 247.388> 337 105<313.597 378.405>
LayerCount: 2
Fore
SplineSet
397 394 m 1,0,1
 375 425 375 425 317 425 c 0,2,3
 264 425 264 425 215 376 c 0,4,5
 162 323 162 323 138 220 c 0,6,7
 123 158 123 158 123 123 c 0,8,9
 123 76 123 76 145 45 c 0,10,11
 167 16 167 16 210 16 c 0,12,13
 222 16 222 16 237 18 c 128,-1,14
 252 20 252 20 283.5 28.5 c 128,-1,15
 315 37 315 37 349.5 59.5 c 128,-1,16
 384 82 384 82 411 116 c 0,17,18
 419 128 419 128 428 128 c 0,19,20
 434 128 434 128 439.5 122.5 c 128,-1,21
 445 117 445 117 445 110.5 c 128,-1,22
 445 104 445 104 437 93 c 0,23,24
 425 76 425 76 404 58 c 128,-1,25
 383 40 383 40 356 23 c 128,-1,26
 329 6 329 6 289.5 -5 c 128,-1,27
 250 -16 250 -16 208 -16 c 0,28,29
 129 -16 129 -16 83 35.5 c 128,-1,30
 37 87 37 87 37 162 c 0,31,32
 37 279 37 279 133 375 c 0,33,34
 216 458 216 458 316 458 c 0,35,36
 381 458 381 458 418 422 c 0,37,38
 442 398 442 398 442 365 c 128,-1,39
 442 332 442 332 423 313 c 128,-1,40
 404 294 404 294 380 294 c 0,41,42
 360 294 360 294 348.5 305.5 c 128,-1,43
 337 317 337 317 337 335 c 0,44,45
 337 360 337 360 357 379 c 0,46,47
 371 392 371 392 397 394 c 1,0,1
EndSplineSet
Validated: 3073
EndChar

StartChar: d
Encoding: 100 100 29
Width: 532
Flags: W
HStem: -16 32<140.499 230.89 383.997 437.225> 425 33<242.25 330.399> 663 53<370.126 439.936>
VStem: 36 83<56.9423 232.892> 482 33<95.9214 157.359>
LayerCount: 2
Fore
SplineSet
289 425 m 0,0,1
 253 425 253 425 217 388 c 0,2,3
 193 364 193 364 174 330 c 0,4,5
 156 295 156 295 137.5 219.5 c 128,-1,6
 119 144 119 144 119 108 c 128,-1,7
 119 72 119 72 133 43 c 0,8,9
 147 16 147 16 179 16 c 0,10,11
 234 16 234 16 291 87 c 0,12,13
 305 103 305 103 310 123 c 2,14,-1
 362 324 l 2,15,16
 365 337 365 337 365 340.5 c 128,-1,17
 365 344 365 344 361 356 c 0,18,19
 350 389 350 389 336 404 c 0,20,21
 315 425 315 425 289 425 c 0,0,1
288 458 m 0,22,23
 347 458 347 458 380 401 c 1,24,-1
 438 631 l 1,25,-1
 441 650 l 2,26,27
 441 654 441 654 440 657 c 0,28,29
 438 659 438 659 428 661 c 128,-1,30
 418 663 418 663 402 663 c 128,-1,31
 386 663 386 663 381 664 c 0,32,33
 374 665 374 665 370 669 c 128,-1,34
 366 673 366 673 366 682.5 c 128,-1,35
 366 692 366 692 371.5 697.5 c 128,-1,36
 377 703 377 703 384 704 c 2,37,38
 480 715 480 715 515 716 c 1,39,40
 524 715 524 715 528.5 710.5 c 128,-1,41
 533 706 533 706 533 699 c 2,42,-1
 533 698 l 1,43,-1
 386 107 l 2,44,45
 380 82 380 82 380 57 c 0,46,47
 380 16 380 16 406 16 c 128,-1,48
 432 16 432 16 447 47 c 128,-1,49
 462 78 462 78 478 139 c 0,50,51
 480 151 480 151 482 154 c 128,-1,52
 484 157 484 157 485 158 c 0,53,54
 489 162 489 162 497.5 162 c 128,-1,55
 506 162 506 162 510.5 157.5 c 128,-1,56
 515 153 515 153 515 146 c 0,57,58
 515 143 515 143 511.5 127 c 128,-1,59
 508 111 508 111 500 85 c 128,-1,60
 492 59 492 59 482.5 40.5 c 128,-1,61
 473 22 473 22 459 8 c 0,62,63
 435 -16 435 -16 403 -16 c 0,64,65
 361 -16 361 -16 332 13 c 0,66,67
 314 31 314 31 307 55 c 1,68,69
 244 -16 244 -16 177 -16 c 0,70,71
 115 -16 115 -16 75.5 31.5 c 128,-1,72
 36 79 36 79 36 153 c 0,73,74
 36 267 36 267 116 362 c 0,75,76
 196 458 196 458 288 458 c 0,22,23
EndSplineSet
Validated: 3073
EndChar

StartChar: e
Encoding: 101 101 30
Width: 476
Flags: W
HStem: -16 32<162.923 294.403> 232 32<150 311.361> 425 33<256.965 366.519>
VStem: 42 84<72.4742 230.874> 386 44<310.109 409.338>
LayerCount: 2
Fore
SplineSet
185 264 m 2,0,1
 386 264 386 264 386 366 c 0,2,3
 386 392 386 392 367 408.5 c 128,-1,4
 348 425 348 425 315 425 c 0,5,6
 284 425 284 425 238 399 c 0,7,8
 212 384 212 384 187.5 348.5 c 128,-1,9
 163 313 163 313 150 264 c 1,10,-1
 185 264 l 2,0,1
126 130 m 0,11,12
 126 106 126 106 130.5 84 c 128,-1,13
 135 62 135 62 155 39 c 128,-1,14
 175 16 175 16 210 16 c 0,15,16
 222 16 222 16 237 18 c 128,-1,17
 252 20 252 20 283.5 28.5 c 128,-1,18
 315 37 315 37 349.5 59.5 c 128,-1,19
 384 82 384 82 411 116 c 0,20,21
 419 128 419 128 428 128 c 0,22,23
 434 128 434 128 439.5 122.5 c 128,-1,24
 445 117 445 117 445 110.5 c 128,-1,25
 445 104 445 104 437 93 c 0,26,27
 425 76 425 76 404 58 c 128,-1,28
 383 40 383 40 356 23 c 128,-1,29
 329 6 329 6 289.5 -5 c 128,-1,30
 250 -16 250 -16 208 -16 c 0,31,32
 132 -16 132 -16 87 38 c 128,-1,33
 42 92 42 92 42 176 c 128,-1,34
 42 260 42 260 87 327 c 128,-1,35
 132 394 132 394 193.5 426 c 128,-1,36
 255 458 255 458 315 458 c 0,37,38
 371 458 371 458 404 425 c 0,39,40
 430 399 430 399 430 366 c 0,41,42
 430 345 430 345 419 318 c 0,43,44
 412 300 412 300 394 283 c 128,-1,45
 376 266 376 266 350 255 c 0,46,47
 292 232 292 232 191 232 c 2,48,-1
 141 232 l 1,49,50
 126 168 126 168 126 130 c 0,11,12
EndSplineSet
Validated: 3073
EndChar

StartChar: f
Encoding: 102 102 31
Width: 500
Flags: W
HStem: -215 33<105.38 171.87> 405 41<210.126 301 388 499.799> 694 33<441.226 513.587>
VStem: 49 104<-161.582 -91.5654> 466 104<603.565 670.965>
LayerCount: 2
Fore
SplineSet
467 446 m 2,0,1
 500 446 500 446 500 430 c 0,2,3
 500 413 500 413 490 408 c 0,4,5
 482 405 482 405 464 405 c 2,6,-1
 380 405 l 1,7,-1
 319 84 l 2,8,9
 318 75 318 75 311.5 44.5 c 128,-1,10
 305 14 305 14 290.5 -35 c 128,-1,11
 276 -84 276 -84 262 -113 c 0,12,13
 243 -153 243 -153 212 -184 c 128,-1,14
 181 -215 181 -215 141 -215 c 0,15,16
 105 -215 105 -215 78 -195 c 0,17,18
 49 -175 49 -175 49 -139 c 0,19,20
 49 -109 49 -109 68 -91 c 128,-1,21
 87 -73 87 -73 111 -73 c 0,22,23
 130 -73 130 -73 141.5 -84.5 c 128,-1,24
 153 -96 153 -96 153 -114.5 c 128,-1,25
 153 -133 153 -133 140 -152 c 0,26,27
 129 -168 129 -168 105 -172 c 1,28,29
 120 -182 120 -182 139 -182 c 128,-1,30
 158 -182 158 -182 171 -169 c 128,-1,31
 184 -156 184 -156 194.5 -124.5 c 128,-1,32
 205 -93 205 -93 211 -68 c 0,33,34
 214 -54 214 -54 301 405 c 1,35,-1
 240 405 l 2,36,37
 228 405 228 405 222 406 c 0,38,39
 214 407 214 407 210 411 c 128,-1,40
 206 415 206 415 206 425 c 0,41,42
 206 439 206 439 215 443 c 0,43,44
 222 446 222 446 242 446 c 2,45,-1
 308 446 l 1,46,47
 332 571 332 571 341 603 c 0,48,49
 361 673 361 673 399.5 700 c 128,-1,50
 438 727 438 727 475.5 727 c 128,-1,51
 513 727 513 727 541 707 c 0,52,53
 570 687 570 687 570 651 c 0,54,55
 570 621 570 621 551 603 c 128,-1,56
 532 585 532 585 509 585 c 0,57,58
 490 585 490 585 478 597 c 128,-1,59
 466 609 466 609 466 627 c 128,-1,60
 466 645 466 645 480 663 c 0,61,62
 492 678 492 678 514 684 c 1,63,64
 498 694 498 694 478 694 c 128,-1,65
 458 694 458 694 445 682 c 0,66,67
 438 675 438 675 432 662 c 0,68,69
 424 645 424 645 403 528 c 0,70,71
 398 499 398 499 388 446 c 1,72,-1
 467 446 l 2,0,1
319 84 m 129,-1,73
 319 84 319 84 319 84 c 129,-1,73
EndSplineSet
Validated: 3073
EndChar

StartChar: g
Encoding: 103 103 32
Width: 487
Flags: W
HStem: -215 33<84.9119 218.152> -199 116<30.1097 83.3245> -5 33<174.376 262.235> 417 20G<449 465> 425 33<271.696 361.947>
VStem: 10 105<-169.832 -100.534> 70 82<66.5455 237.115> 412 78<402 426.748>
LayerCount: 2
Fore
SplineSet
393 328 m 2,0,1
 396 339 396 339 396 343.5 c 128,-1,2
 396 348 396 348 391 365.5 c 128,-1,3
 386 383 386 383 366 405 c 0,4,5
 347 425 347 425 318 425 c 0,6,7
 283 425 283 425 247 389 c 0,8,9
 225 367 225 367 207.5 333 c 128,-1,10
 190 299 190 299 171 226.5 c 128,-1,11
 152 154 152 154 152 117.5 c 128,-1,12
 152 81 152 81 167 54 c 0,13,14
 182 28 182 28 214 28 c 0,15,16
 260 28 260 28 309 77 c 0,17,18
 339 107 339 107 344 132 c 2,19,-1
 393 328 l 2,0,1
152 -215 m 0,20,21
 78 -215 78 -215 45 -199 c 0,22,23
 10 -182 10 -182 10 -147 c 0,24,25
 10 -117 10 -117 29.5 -100 c 128,-1,26
 49 -83 49 -83 70 -83 c 0,27,28
 92 -83 92 -83 103.5 -95.5 c 128,-1,29
 115 -108 115 -108 115 -124 c 128,-1,30
 115 -140 115 -140 104 -158 c 0,31,32
 96 -169 96 -169 84 -176 c 1,33,34
 112 -182 112 -182 150 -182 c 0,35,36
 249 -182 249 -182 291 -77 c 1,37,-1
 292 -77 l 1,38,-1
 292 -75 l 1,39,40
 293 -68 293 -68 304 -27.5 c 128,-1,41
 315 13 315 13 323 44 c 1,42,43
 240 -5 240 -5 216 -5 c 0,44,45
 216 -5 216 -5 215 -5 c 0,46,47
 213 -5 213 -5 211 -5 c 0,48,49
 152 -5 152 -5 111 40.5 c 128,-1,50
 70 86 70 86 70 162 c 0,51,52
 70 274 70 274 148 366 c 128,-1,53
 226 458 226 458 318 458 c 0,54,55
 360 458 360 458 394 425 c 0,56,57
 404 415 404 415 412 402 c 1,58,59
 417 419 417 419 427 427 c 0,60,61
 441 437 441 437 457 437 c 128,-1,62
 473 437 473 437 481.5 428.5 c 128,-1,63
 490 420 490 420 490 406 c 2,64,-1
 490 404 l 1,65,-1
 490 403 l 1,66,-1
 487 385 l 1,67,-1
 374 -70 l 2,68,69
 361 -125 361 -125 301.5 -170 c 128,-1,70
 242 -215 242 -215 152 -215 c 0,20,21
EndSplineSet
Validated: 3073
EndChar

StartChar: h
Encoding: 104 104 33
Width: 589
Flags: W
HStem: -16 32<411.641 468.404> 425 33<298.427 398.406> 663 53<135.126 205.935> 664 41<135.126 167.018>
VStem: 51 78<-8.74756 105.531> 336 71<18.6458 123.141> 413 75<249.992 414.31>
LayerCount: 2
Fore
SplineSet
224 393 m 1,0,1
 284 458 284 458 366 458 c 0,2,3
 425 458 425 458 456.5 426.5 c 128,-1,4
 488 395 488 395 488 343 c 0,5,6
 488 285 488 285 426 116 c 0,7,8
 408 70 408 70 407 45 c 0,9,10
 407 28 407 28 414 21 c 0,11,12
 419 16 419 16 427 16 c 0,13,14
 462 16 462 16 487 52.5 c 128,-1,15
 512 89 512 89 526 139 c 0,16,17
 531 157 531 157 540 161 c 0,18,19
 543 162 543 162 549 162 c 128,-1,20
 555 162 555 162 559.5 157.5 c 128,-1,21
 564 153 564 153 564 146 c 128,-1,22
 564 139 564 139 556.5 116 c 128,-1,23
 549 93 549 93 535 66 c 0,24,25
 518 32 518 32 489 8 c 128,-1,26
 460 -16 460 -16 423.5 -16 c 128,-1,27
 387 -16 387 -16 361.5 9.5 c 128,-1,28
 336 35 336 35 336 73 c 0,29,30
 336 92 336 92 349 131 c 2,31,32
 412 292 412 292 413 358 c 0,33,34
 413 396 413 396 397 413 c 0,35,36
 385 425 385 425 362 425 c 0,37,38
 315 425 315 425 267 390 c 0,39,40
 245 373 245 373 224.5 341.5 c 128,-1,41
 204 310 204 310 200 299 c 0,42,43
 196 274 196 274 188 253 c 0,44,45
 183 229 183 229 165.5 162 c 128,-1,46
 148 95 148 95 148 92 c 0,47,48
 129 15 129 15 129 14 c 0,49,50
 125 2 125 2 112.5 -7 c 128,-1,51
 100 -16 100 -16 87.5 -16 c 128,-1,52
 75 -16 75 -16 63 -9 c 0,53,54
 51 -1 51 -1 51 17 c 0,55,56
 51 26 51 26 55 41 c 2,57,-1
 204 631 l 1,58,-1
 207 650 l 2,59,60
 207 654 207 654 206 657 c 0,61,62
 204 659 204 659 193.5 661 c 128,-1,63
 183 663 183 663 167.5 663 c 128,-1,64
 152 663 152 663 146 664 c 0,65,66
 139 665 139 665 135 669 c 128,-1,67
 131 673 131 673 131 682 c 128,-1,68
 131 691 131 691 137.5 697.5 c 128,-1,69
 144 704 144 704 153.5 705 c 128,-1,70
 163 706 163 706 192 709 c 0,71,72
 259 716 259 716 281 716 c 2,73,74
 290 715 290 715 294.5 710.5 c 128,-1,75
 299 706 299 706 299 699 c 2,76,-1
 299 698 l 1,77,-1
 224 393 l 1,0,1
EndSplineSet
Validated: 3073
EndChar

StartChar: i
Encoding: 105 105 34
Width: 352
Flags: W
HStem: -16 32<152.31 210.411> 425 33<120.056 177.253> 581 101<208.194 281.07>
VStem: 77 71<18.6304 124.195> 182 72<315.299 422.14> 193 103<596.381 666.806>
LayerCount: 2
Fore
SplineSet
148 45 m 0,0,1
 148 27 148 27 155 21 c 0,2,3
 160 16 160 16 168 16 c 0,4,5
 233 16 233 16 267 139 c 0,6,7
 272 157 272 157 281 161 c 0,8,9
 284 162 284 162 290 162 c 128,-1,10
 296 162 296 162 300.5 157.5 c 128,-1,11
 305 153 305 153 305 146 c 128,-1,12
 305 139 305 139 297.5 115.5 c 128,-1,13
 290 92 290 92 276 66 c 0,14,15
 259 32 259 32 230 8 c 128,-1,16
 201 -16 201 -16 164 -16 c 128,-1,17
 127 -16 127 -16 102 9.5 c 128,-1,18
 77 35 77 35 77 73 c 0,19,20
 77 96 77 96 106 172 c 0,21,22
 156 304 156 304 171 346 c 0,23,24
 182 374 182 374 182 394 c 128,-1,25
 182 414 182 414 175 420 c 0,26,27
 170 425 170 425 162 425 c 0,28,29
 99 425 99 425 63 302 c 0,30,31
 59 288 59 288 55 284 c 128,-1,32
 51 280 51 280 42 280 c 128,-1,33
 33 280 33 280 29 284 c 128,-1,34
 25 288 25 288 25 295 c 128,-1,35
 25 302 25 302 33 325.5 c 128,-1,36
 41 349 41 349 55 376 c 0,37,38
 72 410 72 410 101 434 c 128,-1,39
 130 458 130 458 167 458 c 0,40,41
 205 458 205 458 229.5 432 c 128,-1,42
 254 406 254 406 254 369 c 0,43,44
 254 348 254 348 241 312 c 0,45,46
 223 265 223 265 218 253 c 2,47,-1
 178 145 l 2,48,49
 148 67 148 67 148 45 c 0,0,1
296 640 m 0,50,51
 296 616 296 616 276.5 598.5 c 128,-1,52
 257 581 257 581 237 581 c 128,-1,53
 217 581 217 581 205 593 c 128,-1,54
 193 605 193 605 193 623 c 0,55,56
 193 645 193 645 211.5 663.5 c 128,-1,57
 230 682 230 682 253 682 c 0,58,59
 272 682 272 682 284 669.5 c 128,-1,60
 296 657 296 657 296 640 c 0,50,51
EndSplineSet
Validated: 3073
EndChar

StartChar: j
Encoding: 106 106 35
Width: 420
Flags: W
HStem: -215 33<49.422 124.418> 425 33<223.269 295.192> 581 101<322.93 396.396>
VStem: -18 104<-168.641 -97.8724> 299 75<272.256 423.866> 308 104<596.722 666.619>
LayerCount: 2
Fore
SplineSet
292 332 m 2,0,1
 299 362 299 362 299 386 c 0,2,3
 299 425 299 425 271 425 c 0,4,5
 234 425 234 425 201 389.5 c 128,-1,6
 168 354 168 354 147 303 c 0,7,8
 141 288 141 288 139 286 c 128,-1,9
 137 284 137 284 137 284 c 0,10,11
 133 280 133 280 124 280 c 128,-1,12
 115 280 115 280 111 284 c 128,-1,13
 107 288 107 288 107 294.5 c 128,-1,14
 107 301 107 301 118.5 325 c 128,-1,15
 130 349 130 349 149 380 c 0,16,17
 169 411 169 411 203 434.5 c 128,-1,18
 237 458 237 458 274 458 c 0,19,20
 318 458 318 458 346 430 c 128,-1,21
 374 402 374 402 374 358 c 0,22,23
 374 340 374 340 369 320 c 0,24,25
 336 191 336 191 274 -55 c 0,26,27
 256 -129 256 -129 197 -172 c 128,-1,28
 138 -215 138 -215 77 -215 c 0,29,30
 36 -215 36 -215 10 -197 c 0,31,32
 -18 -179 -18 -179 -18 -146 c 0,33,34
 -18 -118 -18 -118 1 -100.5 c 128,-1,35
 20 -83 20 -83 41 -83 c 0,36,37
 63 -83 63 -83 74.5 -95.5 c 128,-1,38
 86 -108 86 -108 86 -125.5 c 128,-1,39
 86 -143 86 -143 72 -160 c 0,40,41
 63 -172 63 -172 49 -178 c 1,42,43
 61 -182 61 -182 75 -182 c 0,44,45
 115 -182 115 -182 148 -145 c 128,-1,46
 181 -108 181 -108 196 -50 c 2,47,-1
 292 332 l 2,0,1
412 640 m 0,48,49
 412 618 412 618 393 599.5 c 128,-1,50
 374 581 374 581 351 581 c 0,51,52
 332 581 332 581 320 593 c 128,-1,53
 308 605 308 605 308 623 c 0,54,55
 308 647 308 647 327.5 664.5 c 128,-1,56
 347 682 347 682 367 682 c 128,-1,57
 387 682 387 682 399.5 669.5 c 128,-1,58
 412 657 412 657 412 640 c 0,48,49
EndSplineSet
Validated: 3073
EndChar

StartChar: k
Encoding: 107 107 36
Width: 532
Flags: W
HStem: -16 32<362.244 421.993> 321 99<433.016 469.777> 425 33<394.626 469.637> 663 53<135.126 205.935> 664 41<135.126 167.018>
VStem: 51 74<-8.74756 87.0938> 285 73<20.132 147.094> 292 79<90.3474 194.373> 420 105<339.565 406.802> 474 33<99.2627 157.843>
LayerCount: 2
Fore
SplineSet
228 259 m 1,0,1
 371 237 371 237 371 148 c 0,2,3
 371 133 371 133 366 116 c 0,4,5
 358 84 358 84 358 58 c 0,6,7
 358 16 358 16 386 16 c 0,8,9
 415 16 415 16 434 47 c 128,-1,10
 453 78 453 78 470 139 c 0,11,12
 472 151 472 151 474 154 c 128,-1,13
 476 157 476 157 477 158 c 0,14,15
 481 162 481 162 489.5 162 c 128,-1,16
 498 162 498 162 502 158 c 0,17,18
 507 153 507 153 507 146 c 0,19,20
 507 143 507 143 503.5 128.5 c 128,-1,21
 500 114 500 114 490.5 87.5 c 128,-1,22
 481 61 481 61 469 40 c 0,23,24
 434 -16 434 -16 384 -16 c 0,25,26
 341 -16 341 -16 313 13.5 c 128,-1,27
 285 43 285 43 285 90 c 0,28,29
 285 101 285 101 289 127 c 1,30,31
 292 136 292 136 292 147 c 0,32,33
 292 175 292 175 272 195 c 0,34,35
 255 212 255 212 211 224 c 0,36,37
 197 228 197 228 182 229 c 1,38,39
 132 21 132 21 125 8 c 0,40,41
 114 -16 114 -16 88 -16 c 2,42,-1
 86 -16 l 2,43,44
 75 -16 75 -16 63 -9 c 0,45,46
 51 -1 51 -1 51 17 c 0,47,48
 51 26 51 26 55 41 c 2,49,-1
 204 631 l 1,50,-1
 207 650 l 2,51,52
 207 654 207 654 206 657 c 0,53,54
 204 659 204 659 193.5 661 c 128,-1,55
 183 663 183 663 167.5 663 c 128,-1,56
 152 663 152 663 146 664 c 0,57,58
 139 665 139 665 135 669 c 128,-1,59
 131 673 131 673 131 682 c 128,-1,60
 131 691 131 691 137.5 697.5 c 128,-1,61
 144 704 144 704 153.5 705 c 128,-1,62
 163 706 163 706 192 709 c 0,63,64
 259 716 259 716 281 716 c 2,65,66
 290 715 290 715 294.5 710.5 c 128,-1,67
 299 706 299 706 299 699 c 2,68,-1
 299 698 l 1,69,-1
 194 276 l 1,70,71
 235 296 235 296 297 365 c 0,72,73
 379 457 379 457 451 458 c 0,74,75
 486 458 486 458 505.5 437 c 128,-1,76
 525 416 525 416 525 387 c 0,77,78
 525 357 525 357 506 339 c 128,-1,79
 487 321 487 321 465 321 c 128,-1,80
 443 321 443 321 431.5 333 c 128,-1,81
 420 345 420 345 420 361 c 0,82,83
 420 385 420 385 437 402 c 0,84,85
 452 417 452 417 470 420 c 1,86,87
 464 423 464 423 456 424 c 0,88,89
 454 425 454 425 449 425 c 0,90,91
 416 425 416 425 382 401 c 0,92,93
 348 376 348 376 306 329 c 0,94,95
 303 325 303 325 293 315 c 0,96,97
 256 278 256 278 228 259 c 1,0,1
EndSplineSet
Validated: 3073
EndChar

StartChar: l
Encoding: 108 108 37
Width: 305
Flags: W
HStem: -16 32<123.242 171.554> 663 53<107.704 175.936>
VStem: 40 76<20.295 169.32> 218 33<97.1777 157.843>
LayerCount: 2
Fore
SplineSet
132 663 m 0,0,1
 101 663 101 663 101 679 c 0,2,3
 101 691 101 691 107.5 697.5 c 128,-1,4
 114 704 114 704 123.5 705 c 128,-1,5
 133 706 133 706 162 709 c 0,6,7
 229 716 229 716 251 716 c 2,8,9
 260 715 260 715 264.5 710.5 c 128,-1,10
 269 706 269 706 269 699 c 2,11,-1
 269 698 l 1,12,-1
 122 107 l 2,13,14
 116 84 116 84 116 57.5 c 128,-1,15
 116 31 116 31 126 22 c 0,16,17
 132 16 132 16 141 16 c 0,18,19
 166 16 166 16 182 47.5 c 128,-1,20
 198 79 198 79 214 139 c 0,21,22
 216 151 216 151 218 154 c 128,-1,23
 220 157 220 157 221 158 c 0,24,25
 225 162 225 162 233.5 162 c 128,-1,26
 242 162 242 162 246 158 c 0,27,28
 251 153 251 153 251 146 c 0,29,30
 251 143 251 143 247.5 127.5 c 128,-1,31
 244 112 244 112 236 86.5 c 128,-1,32
 228 61 228 61 218.5 41.5 c 128,-1,33
 209 22 209 22 195 8 c 0,34,35
 171 -16 171 -16 138 -16 c 0,36,37
 96 -16 96 -16 68 12 c 128,-1,38
 40 40 40 40 40 83 c 0,39,40
 40 100 40 100 45 119 c 0,41,42
 45 119 45 119 174 631 c 1,43,-1
 177 650 l 2,44,45
 177 653 177 653 176 656 c 0,46,47
 174 658 174 658 164 660.5 c 128,-1,48
 154 663 154 663 132 663 c 0,0,1
EndSplineSet
Validated: 3073
EndChar

StartChar: m
Encoding: 109 109 38
Width: 899
Flags: W
HStem: -16 32<721.663 777.404> 425 33<105.138 157.35 322.298 423.633 604.427 707.67>
VStem: 76 77<-6.20227 101.734> 361 77<-6.71753 99.4272> 645 72<18.1459 127.1> 722 76<250.12 414.307> 836 37<91.0267 157.359>
LayerCount: 2
Fore
SplineSet
511 366 m 1,0,1
 580 457 580 457 675 458 c 0,2,3
 735 458 735 458 766.5 426.5 c 128,-1,4
 798 395 798 395 798 341.5 c 128,-1,5
 798 288 798 288 735 116 c 1,6,7
 717 72 717 72 717 45 c 0,8,9
 717 27 717 27 724 20 c 0,10,11
 728 16 728 16 736 16 c 0,12,13
 771 16 771 16 796 52.5 c 128,-1,14
 821 89 821 89 836 139 c 0,15,16
 842 157 842 157 849 161 c 0,17,18
 852 162 852 162 858 162 c 128,-1,19
 864 162 864 162 868.5 157.5 c 128,-1,20
 873 153 873 153 873 146 c 128,-1,21
 873 139 873 139 865.5 116 c 128,-1,22
 858 93 858 93 844 66 c 0,23,24
 827 32 827 32 798 8 c 128,-1,25
 769 -16 769 -16 732.5 -16 c 128,-1,26
 696 -16 696 -16 670.5 9.5 c 128,-1,27
 645 35 645 35 645 73 c 0,28,29
 645 94 645 94 659 131 c 0,30,31
 722 298 722 298 722 358 c 0,32,33
 722 397 722 397 706 413 c 0,34,35
 694 425 694 425 672 425 c 0,36,37
 634 425 634 425 601 407 c 128,-1,38
 568 389 568 389 549 363 c 128,-1,39
 530 337 530 337 520 318.5 c 128,-1,40
 510 300 510 300 508 293 c 0,41,42
 446 46 446 46 443.5 35 c 128,-1,43
 441 24 441 24 438 14 c 128,-1,44
 435 4 435 4 424 -6 c 128,-1,45
 413 -16 413 -16 397 -16 c 0,46,47
 379 -16 379 -16 370 -7 c 128,-1,48
 361 2 361 2 361 16 c 0,49,50
 361 19 361 19 363.5 29.5 c 128,-1,51
 366 40 366 40 369 55 c 0,52,53
 372 71 372 71 378 94 c 0,54,55
 423 269 423 269 423 274 c 0,56,57
 438 330 438 330 438 358 c 0,58,59
 438 397 438 397 422 413 c 0,60,61
 410 425 410 425 388 425 c 0,62,63
 355 425 355 425 328 412 c 0,64,65
 297 397 297 397 277 375 c 128,-1,66
 257 353 257 353 245.5 336.5 c 128,-1,67
 234 320 234 320 226 303 c 0,68,69
 225 300 225 300 220 280.5 c 128,-1,70
 215 261 215 261 213 253 c 0,71,72
 208 229 208 229 195 184 c 1,73,-1
 173 92 l 2,74,75
 157 23 157 23 153 15 c 0,76,77
 142 -16 142 -16 113 -16 c 2,78,-1
 111 -16 l 2,79,80
 95 -16 95 -16 85.5 -6.5 c 128,-1,81
 76 3 76 3 76 16 c 0,82,83
 76 23 76 23 80 39 c 0,84,85
 83 49 83 49 85 61 c 2,86,-1
 145 298 l 2,87,88
 161 363 161 363 161 386 c 0,89,90
 161 425 161 425 134 425 c 0,91,92
 92 425 92 425 64 307 c 0,93,94
 59 289 59 289 55 284.5 c 128,-1,95
 51 280 51 280 42 280 c 128,-1,96
 33 280 33 280 29 284 c 128,-1,97
 25 288 25 288 25 293 c 0,98,99
 25 305 25 305 36.5 342.5 c 128,-1,100
 48 380 48 380 58 399.5 c 128,-1,101
 68 419 68 419 83 434 c 0,102,103
 106 457 106 457 137 458 c 2,104,105
 179 458 179 458 208 429 c 0,106,107
 229 408 229 408 234 376 c 1,108,109
 299 458 299 458 391 458 c 0,110,111
 445 458 445 458 478 430 c 0,112,113
 504 407 504 407 511 366 c 1,0,1
EndSplineSet
Validated: 3073
EndChar

StartChar: n
Encoding: 110 110 39
Width: 614
Flags: W
HStem: -16 32<437.483 494.848> 425 33<105.185 157.35 322.298 423.479>
VStem: 76 77<-6.20227 101.734> 362 71<18.6304 127.129> 438 76<249.236 412.494>
LayerCount: 2
Fore
SplineSet
234 376 m 1,0,1
 299 458 299 458 391 458 c 0,2,3
 450 458 450 458 483 425 c 0,4,5
 514 394 514 394 514 342.5 c 128,-1,6
 514 291 514 291 451 116 c 1,7,8
 433 72 433 72 433 45 c 0,9,10
 433 27 433 27 440 21 c 0,11,12
 445 16 445 16 453 16 c 0,13,14
 517 16 517 16 552 139 c 0,15,16
 557 157 557 157 565 161 c 0,17,18
 568 162 568 162 574.5 162 c 128,-1,19
 581 162 581 162 585 158 c 0,20,21
 590 153 590 153 590 146 c 128,-1,22
 590 139 590 139 582 116 c 128,-1,23
 574 93 574 93 561 66 c 0,24,25
 544 31 544 31 514.5 7.5 c 128,-1,26
 485 -16 485 -16 449 -16 c 128,-1,27
 413 -16 413 -16 387.5 9.5 c 128,-1,28
 362 35 362 35 362 73 c 0,29,30
 362 94 362 94 372 122 c 0,31,32
 438 297 438 297 438 356 c 2,33,-1
 438 358 l 2,34,35
 438 397 438 397 422 413 c 0,36,37
 410 425 410 425 388 425 c 0,38,39
 355 425 355 425 328 412 c 0,40,41
 297 397 297 397 277 375 c 128,-1,42
 257 353 257 353 245.5 336.5 c 128,-1,43
 234 320 234 320 226 303 c 0,44,45
 225 300 225 300 220 280.5 c 128,-1,46
 215 261 215 261 213 253 c 0,47,48
 208 229 208 229 195 184 c 1,49,-1
 173 92 l 2,50,51
 157 23 157 23 153 15 c 0,52,53
 142 -16 142 -16 113 -16 c 2,54,-1
 111 -16 l 2,55,56
 95 -16 95 -16 85.5 -6.5 c 128,-1,57
 76 3 76 3 76 16 c 0,58,59
 76 23 76 23 80 39 c 0,60,61
 83 49 83 49 85 61 c 2,62,-1
 145 298 l 2,63,64
 161 363 161 363 161 386 c 0,65,66
 161 425 161 425 134 425 c 0,67,68
 92 425 92 425 64 307 c 0,69,70
 59 289 59 289 55 284.5 c 128,-1,71
 51 280 51 280 42 280 c 128,-1,72
 33 280 33 280 29 284 c 128,-1,73
 25 288 25 288 25 293.5 c 128,-1,74
 25 299 25 299 29 315.5 c 128,-1,75
 33 332 33 332 40.5 356.5 c 128,-1,76
 48 381 48 381 56 396 c 1,77,78
 65 412 65 412 69 418.5 c 128,-1,79
 73 425 73 425 78.5 430.5 c 128,-1,80
 84 436 84 436 95 444 c 0,81,82
 114 458 114 458 137 458 c 0,83,84
 179 458 179 458 208 429 c 0,85,86
 228 408 228 408 234 376 c 1,0,1
EndSplineSet
Validated: 3073
EndChar

StartChar: o
Encoding: 111 111 40
Width: 495
Flags: W
HStem: -16 32<159.912 263.082> 425 33<258.156 365.106>
VStem: 37 86<68.0227 248.311> 401 84<194.614 374.097>
LayerCount: 2
Fore
SplineSet
123 123 m 0,0,1
 123 70 123 70 147.5 43 c 128,-1,2
 172 16 172 16 206.5 16 c 128,-1,3
 241 16 241 16 278 40 c 128,-1,4
 315 64 315 64 342 108 c 128,-1,5
 369 152 369 152 385 218.5 c 128,-1,6
 401 285 401 285 401 319 c 0,7,8
 401 365 401 365 378 395 c 0,9,10
 356 425 356 425 315 425 c 0,11,12
 286 425 286 425 250.5 404.5 c 128,-1,13
 215 384 215 384 181 333 c 0,14,15
 157 297 157 297 140 229.5 c 128,-1,16
 123 162 123 162 123 123 c 0,0,1
485 280 m 0,17,18
 485 162 485 162 392 68 c 0,19,20
 308 -16 308 -16 206 -16 c 0,21,22
 132 -16 132 -16 84.5 34 c 128,-1,23
 37 84 37 84 37 162 c 0,24,25
 37 279 37 279 133 375 c 0,26,27
 216 458 216 458 316 458 c 0,28,29
 389 458 389 458 437 409 c 128,-1,30
 485 360 485 360 485 280 c 0,17,18
EndSplineSet
Validated: 3073
EndChar

StartChar: p
Encoding: 112 112 41
Width: 515
Flags: W
HStem: -204 42<-30.264 29.2906 117.064 184.296> -16 32<211.256 300.697> 425 33<107.329 159.54 312.147 400.191>
VStem: 423 84<208.522 382.969>
LayerCount: 2
Fore
SplineSet
178 102 m 0,0,1
 178 90 178 90 193 57 c 0,2,3
 200 40 200 40 216 28 c 128,-1,4
 232 16 232 16 254 16 c 0,5,6
 283 16 283 16 315 42 c 0,7,8
 347 69 347 69 371 119 c 0,9,10
 386 152 386 152 404.5 222.5 c 128,-1,11
 423 293 423 293 423 335 c 0,12,13
 423 387 423 387 399 410 c 0,14,15
 384 425 384 425 362 425 c 0,16,17
 325 425 325 425 283 387 c 0,18,19
 269 375 269 375 264 370 c 0,20,21
 237 343 237 343 231 318 c 2,22,-1
 181 118 l 2,23,24
 178 106 178 106 178 102 c 0,0,1
67 -201 m 2,25,-1
 -19 -204 l 2,26,27
 -28 -204 -28 -204 -33 -199 c 128,-1,28
 -38 -194 -38 -194 -38 -184 c 0,29,30
 -38 -170 -38 -170 -30.5 -166 c 128,-1,31
 -23 -162 -23 -162 -9 -162 c 0,32,33
 23 -162 23 -162 29.5 -155.5 c 128,-1,34
 36 -149 36 -149 41 -124 c 2,35,-1
 156 332 l 2,36,37
 163 362 163 362 163 386 c 0,38,39
 163 425 163 425 136 425 c 0,40,41
 94 425 94 425 66 307 c 0,42,43
 61 289 61 289 57 284.5 c 128,-1,44
 53 280 53 280 44 280 c 128,-1,45
 35 280 35 280 31 284 c 128,-1,46
 27 288 27 288 27 293 c 0,47,48
 27 305 27 305 43 356 c 0,49,50
 59 408 59 408 83.5 432.5 c 128,-1,51
 108 457 108 457 139 458 c 2,52,53
 173 458 173 458 200 438 c 0,54,55
 225 420 225 420 234 387 c 1,56,57
 297 458 297 458 366 458 c 0,58,59
 426 458 426 458 466.5 410 c 128,-1,60
 507 362 507 362 507 289 c 0,61,62
 507 175 507 175 427 80 c 0,63,64
 347 -16 347 -16 255 -16 c 0,65,66
 193 -16 193 -16 162 40 c 1,67,68
 154 8 154 8 135 -67.5 c 128,-1,69
 116 -143 116 -143 116 -151 c 0,70,71
 116 -155 116 -155 117 -157 c 0,72,73
 119 -158 119 -158 128.5 -160 c 128,-1,74
 138 -162 138 -162 162 -162 c 0,75,76
 191 -162 191 -162 191 -178 c 0,77,78
 191 -191 191 -191 184.5 -197 c 128,-1,79
 178 -203 178 -203 168 -204 c 2,80,81
 152 -204 152 -204 118 -202.5 c 128,-1,82
 84 -201 84 -201 67 -201 c 2,25,-1
EndSplineSet
Validated: 3073
EndChar

StartChar: q
Encoding: 113 113 42
Width: 456
Flags: W
HStem: -204 42<156.125 229.649 323.064 391.296> -16 32<141.049 222.502> 425 33<241.312 329.171>
VStem: 36 83<57.1066 228.569>
LayerCount: 2
Fore
SplineSet
179 16 m 0,0,1
 215 16 215 16 252 48 c 0,2,3
 290 80 290 80 305 108 c 1,4,5
 316 148 316 148 338 235 c 0,6,7
 361 325 361 325 364 340 c 0,8,9
 364 344 364 344 360 356 c 0,10,11
 349 389 349 389 335 404 c 0,12,13
 314 425 314 425 288 425 c 0,14,15
 257 425 257 425 222 395 c 0,16,17
 187 364 187 364 166 309 c 0,18,19
 152 273 152 273 135.5 206.5 c 128,-1,20
 119 140 119 140 119 108 c 0,21,22
 119 86 119 86 128 55 c 0,23,24
 133 38 133 38 146 27 c 128,-1,25
 159 16 159 16 179 16 c 0,0,1
288 458 m 0,26,27
 353 458 353 458 384 392 c 1,28,29
 397 412 397 412 419.5 434.5 c 128,-1,30
 442 457 442 457 453 457 c 0,31,32
 460 457 460 457 464 452.5 c 128,-1,33
 468 448 468 448 468 441 c 2,34,-1
 468 440 l 1,35,-1
 327 -129 l 2,36,37
 323 -146 323 -146 322 -151 c 0,38,39
 322 -155 322 -155 323 -156 c 0,40,41
 325 -157 325 -157 334.5 -159.5 c 128,-1,42
 344 -162 344 -162 367 -162 c 0,43,44
 398 -162 398 -162 398 -177 c 0,45,46
 398 -178 398 -178 398 -179 c 0,47,48
 398 -191 398 -191 391.5 -197 c 128,-1,49
 385 -203 385 -203 375 -204 c 2,50,51
 359 -204 359 -204 323 -202.5 c 128,-1,52
 287 -201 287 -201 269.5 -201 c 128,-1,53
 252 -201 252 -201 217.5 -202.5 c 128,-1,54
 183 -204 183 -204 167 -204 c 0,55,56
 158 -204 158 -204 153.5 -199.5 c 128,-1,57
 149 -195 149 -195 149 -186 c 0,58,59
 149 -174 149 -174 156 -167 c 0,60,61
 160 -163 160 -163 164.5 -163 c 128,-1,62
 169 -163 169 -163 177 -162 c 0,63,64
 219 -161 219 -161 230 -156 c 0,65,66
 240 -151 240 -151 246 -132 c 0,67,68
 284 18 284 18 288 35 c 1,69,70
 201 -16 201 -16 179 -16 c 0,71,72
 177 -16 177 -16 176 -16 c 0,73,74
 117 -16 117 -16 76.5 30.5 c 128,-1,75
 36 77 36 77 36 153 c 0,76,77
 36 266 36 266 115 362 c 0,78,79
 195 458 195 458 288 458 c 0,26,27
EndSplineSet
Validated: 3073
EndChar

StartChar: r
Encoding: 114 114 43
Width: 461
Flags: W
HStem: -16 21G<103 121.5> 425 33<105.329 157.319 305.228 389.658>
VStem: 346 105<335.783 406.265>
LayerCount: 2
Fore
SplineSet
390 419 m 1,0,1
 378 425 378 425 361 425 c 0,2,3
 320 425 320 425 283 392 c 0,4,5
 267 377 267 377 249 350 c 128,-1,6
 231 323 231 323 227 311 c 0,7,8
 224 296 224 296 194 178 c 0,9,10
 191 163 191 163 173.5 93.5 c 128,-1,11
 156 24 156 24 152 13.5 c 128,-1,12
 148 3 148 3 141 -5 c 0,13,14
 130 -16 130 -16 113 -16 c 2,15,-1
 111 -16 l 2,16,17
 95 -16 95 -16 85.5 -6.5 c 128,-1,18
 76 3 76 3 76 16 c 0,19,20
 76 23 76 23 80 39 c 0,21,22
 83 49 83 49 85 61 c 2,23,-1
 145 298 l 2,24,25
 161 363 161 363 161 386 c 0,26,27
 161 425 161 425 134 425 c 0,28,29
 92 425 92 425 64 307 c 0,30,31
 59 289 59 289 55 284.5 c 128,-1,32
 51 280 51 280 42 280 c 128,-1,33
 33 280 33 280 29 284 c 128,-1,34
 25 288 25 288 25 293 c 0,35,36
 25 305 25 305 41 356 c 0,37,38
 57 408 57 408 81.5 432.5 c 128,-1,39
 106 457 106 457 137 458 c 2,40,41
 179 458 179 458 207 430 c 0,42,43
 225 412 225 412 232 386 c 1,44,45
 285 458 285 458 361 458 c 0,46,47
 406 458 406 458 432 432 c 0,48,49
 451 413 451 413 451 385 c 128,-1,50
 451 357 451 357 432.5 339 c 128,-1,51
 414 321 414 321 392 321 c 0,52,53
 369 321 369 321 357.5 333 c 128,-1,54
 346 345 346 345 346 361 c 0,55,56
 346 384 346 384 365 403 c 0,57,58
 376 414 376 414 390 419 c 1,0,1
EndSplineSet
Validated: 3073
EndChar

StartChar: s
Encoding: 115 115 44
Width: 479
Flags: W
HStem: -16 32<123.661 278.969> 60 101<93.0938 133.561> 302 85<355.799 392.741> 425 33<240.15 374.335>
VStem: 48 105<74.6265 141.402> 130 69<297.59 374.951> 342 69<86.0905 166.811> 346 89<318.504 376.479>
LayerCount: 2
Fore
SplineSet
93 60 m 1,0,1
 119 17 119 17 201 16 c 0,2,3
 243 16 243 16 273 29 c 128,-1,4
 303 42 303 42 317 61 c 0,5,6
 342 96 342 96 342 124 c 0,7,8
 342 150 342 150 328 164 c 0,9,10
 309 183 309 183 240 197 c 0,11,12
 184 209 184 209 157.5 236 c 128,-1,13
 131 263 131 263 130 303 c 0,14,15
 130 323 130 323 139.5 347.5 c 128,-1,16
 149 372 149 372 166 398 c 0,17,18
 184 424 184 424 222 441 c 128,-1,19
 260 458 260 458 308 458 c 0,20,21
 374 458 374 458 410 422 c 0,22,23
 435 397 435 397 435 366 c 0,24,25
 435 334 435 334 419 318 c 128,-1,26
 403 302 403 302 384 302 c 128,-1,27
 365 302 365 302 355.5 312.5 c 128,-1,28
 346 323 346 323 346 337 c 0,29,30
 346 356 346 356 360.5 370 c 128,-1,31
 375 384 375 384 393 387 c 1,32,33
 374 425 374 425 308 425 c 0,34,35
 251 425 251 425 225 396 c 128,-1,36
 199 367 199 367 199 338 c 0,37,38
 199 326 199 326 203 317 c 0,39,40
 208 307 208 307 213 302.5 c 128,-1,41
 218 298 218 298 231 293 c 128,-1,42
 244 288 244 288 249.5 287 c 128,-1,43
 255 286 255 286 272 281 c 0,44,45
 302 275 302 275 315 272 c 128,-1,46
 328 269 328 269 345.5 260 c 128,-1,47
 363 251 363 251 378 237 c 0,48,49
 411 204 411 204 411 159 c 0,50,51
 411 138 411 138 400.5 111 c 128,-1,52
 390 84 390 84 369 54 c 0,53,54
 347 24 347 24 303 4 c 128,-1,55
 259 -16 259 -16 200 -16 c 0,56,57
 132 -16 132 -16 91 12 c 0,58,59
 48 41 48 41 48 88 c 0,60,61
 48 123 48 123 67 142 c 128,-1,62
 86 161 86 161 111 161 c 0,63,64
 130 161 130 161 141.5 149.5 c 128,-1,65
 153 138 153 138 153 120 c 0,66,67
 153 94 153 94 134 74 c 0,68,69
 120 60 120 60 99 60 c 2,70,-1
 96 60 l 2,71,72
 95 60 95 60 93 60 c 1,0,1
EndSplineSet
Validated: 3073
EndChar

StartChar: t
Encoding: 116 116 45
Width: 369
Flags: W
HStem: -16 32<138.076 210.831> 405 41<23.1257 136 225 339.906>
VStem: 60 74<17.357 170.113> 185 81<575.008 634.654>
LayerCount: 2
Fore
SplineSet
309 446 m 2,0,1
 326 446 326 446 331.5 444.5 c 128,-1,2
 337 443 337 443 340 440 c 128,-1,3
 343 437 343 437 343 430 c 0,4,5
 343 413 343 413 334 409 c 0,6,7
 327 405 327 405 307 405 c 2,8,-1
 215 405 l 1,9,-1
 140 107 l 2,10,11
 134 82 134 82 134 57 c 0,12,13
 134 16 134 16 161 16 c 0,14,15
 237 16 237 16 289 144 c 0,16,17
 296 161 296 161 309 162 c 0,18,19
 318 162 318 162 322 158 c 0,20,21
 327 153 327 153 327 146 c 0,22,23
 327 142 327 142 319.5 125.5 c 128,-1,24
 312 109 312 109 298 84.5 c 128,-1,25
 284 60 284 60 265 38 c 0,26,27
 246 15 246 15 217.5 -0.5 c 128,-1,28
 189 -16 189 -16 159 -16 c 0,29,30
 115 -16 115 -16 87.5 11.5 c 128,-1,31
 60 39 60 39 60 83 c 0,32,33
 60 102 60 102 136 405 c 1,34,-1
 52 405 l 2,35,36
 40 405 40 405 34 406 c 0,37,38
 27 407 27 407 23 411 c 128,-1,39
 19 415 19 415 19 425 c 0,40,41
 19 439 19 439 28 443 c 0,42,43
 35 446 35 446 54 446 c 2,44,-1
 147 446 l 1,45,-1
 185 605 l 2,46,47
 190 624 190 624 201 635 c 128,-1,48
 212 646 212 646 230.5 646 c 128,-1,49
 249 646 249 646 257.5 637.5 c 128,-1,50
 266 629 266 629 266 613 c 0,51,52
 266 606 266 606 225 446 c 1,53,-1
 309 446 l 2,0,1
EndSplineSet
Validated: 3073
EndChar

StartChar: u
Encoding: 117 117 46
Width: 585
Flags: W
HStem: -16 32<200.44 292.018 433.1 480.893> 425 33<120.049 177.479>
VStem: 106 75<30.5189 205.035> 182 72<314.335 422.14>
LayerCount: 2
Fore
SplineSet
356 46 m 1,0,1
 305 -16 305 -16 239 -16 c 2,2,-1
 237 -16 l 2,3,4
 185 -16 185 -16 146 13 c 0,5,6
 106 43 106 43 106 112 c 0,7,8
 106 169 106 169 165 329 c 0,9,10
 182 372 182 372 182 396 c 0,11,12
 182 414 182 414 175 420 c 0,13,14
 170 425 170 425 162 425 c 0,15,16
 99 425 99 425 63 302 c 0,17,18
 59 288 59 288 55 284 c 128,-1,19
 51 280 51 280 42 280 c 128,-1,20
 33 280 33 280 29 284 c 128,-1,21
 25 288 25 288 25 295 c 128,-1,22
 25 302 25 302 32.5 325.5 c 128,-1,23
 40 349 40 349 54 376 c 0,24,25
 71 411 71 411 100 434.5 c 128,-1,26
 129 458 129 458 166 458 c 0,27,28
 205 458 205 458 229.5 432 c 128,-1,29
 254 406 254 406 254 369 c 0,30,31
 254 348 254 348 236 302 c 0,32,33
 181 157 181 157 181 95 c 0,34,35
 181 49 181 49 200 30 c 0,36,37
 214 16 214 16 240 16 c 0,38,39
 272 16 272 16 299 36 c 0,40,41
 327 57 327 57 338 75 c 128,-1,42
 349 93 349 93 351 98 c 0,43,44
 374 199 374 199 428 407 c 0,45,46
 432 425 432 425 442.5 435.5 c 128,-1,47
 453 446 453 446 471 446 c 2,48,-1
 473 446 l 2,49,50
 489 446 489 446 498.5 436.5 c 128,-1,51
 508 427 508 427 508 414 c 0,52,53
 508 407 508 407 492 344 c 0,54,55
 478 292 478 292 475 274 c 2,56,-1
 446 164 l 1,57,58
 426 76 426 76 426 58 c 0,59,60
 426 32 426 32 436 22 c 0,61,62
 442 16 442 16 454 16 c 0,63,64
 470 16 470 16 485 36.5 c 128,-1,65
 500 57 500 57 507.5 79.5 c 128,-1,66
 515 102 515 102 524 139 c 0,67,68
 526 153 526 153 531 157.5 c 128,-1,69
 536 162 536 162 544 162 c 128,-1,70
 552 162 552 162 556.5 157.5 c 128,-1,71
 561 153 561 153 561 146 c 0,72,73
 561 143 561 143 557.5 127 c 128,-1,74
 554 111 554 111 546.5 85 c 128,-1,75
 539 59 539 59 529 43 c 0,76,77
 500 -16 500 -16 450 -16 c 0,78,79
 415 -16 415 -16 389 3 c 0,80,81
 366 19 366 19 356 46 c 1,0,1
EndSplineSet
Validated: 3073
EndChar

StartChar: v
Encoding: 118 118 47
Width: 495
Flags: W
HStem: -16 32<204.211 304.023> 425 33<120.056 177.809>
VStem: 107 75<35.0079 203.757> 182 72<314.345 422.14> 430 54<254.74 401>
LayerCount: 2
Fore
SplineSet
484 381 m 0,0,1
 484 353 484 353 471.5 295 c 128,-1,2
 459 237 459 237 433.5 164 c 128,-1,3
 408 91 408 91 360 38 c 0,4,5
 311 -16 311 -16 249 -16 c 0,6,7
 226 -16 226 -16 205 -11.5 c 128,-1,8
 184 -7 184 -7 161 6 c 0,9,10
 137 19 137 19 122 47.5 c 128,-1,11
 107 76 107 76 107 116 c 0,12,13
 107 173 107 173 165 328 c 0,14,15
 182 372 182 372 182 397 c 0,16,17
 182 414 182 414 175 420 c 0,18,19
 170 425 170 425 162 425 c 0,20,21
 99 425 99 425 63 302 c 0,22,23
 59 288 59 288 55 284 c 128,-1,24
 51 280 51 280 42 280 c 128,-1,25
 33 280 33 280 29 284 c 128,-1,26
 25 288 25 288 25 295 c 128,-1,27
 25 302 25 302 33 325.5 c 128,-1,28
 41 349 41 349 55 376 c 0,29,30
 72 410 72 410 101 434 c 128,-1,31
 130 458 130 458 167 458 c 0,32,33
 205 458 205 458 229.5 432 c 128,-1,34
 254 406 254 406 254 369 c 0,35,36
 254 346 254 346 242 315 c 0,37,38
 183 157 183 157 182 100 c 0,39,40
 182 54 182 54 203 33 c 0,41,42
 220 16 220 16 253 16 c 0,43,44
 293 16 293 16 329 52 c 128,-1,45
 365 88 365 88 385.5 137 c 128,-1,46
 406 186 406 186 418 228 c 128,-1,47
 430 270 430 270 430 289 c 0,48,49
 430 338 430 338 397 369 c 0,50,51
 379 386 379 386 379 404 c 128,-1,52
 379 422 379 422 396.5 440 c 128,-1,53
 414 458 414 458 432 458 c 0,54,55
 453 458 453 458 468.5 439.5 c 128,-1,56
 484 421 484 421 484 381 c 0,0,1
EndSplineSet
Validated: 3073
EndChar

StartChar: w
Encoding: 119 119 48
Width: 732
Flags: W
HStem: -16 32<209.728 301.9 447.289 546.654> 425 33<120.049 177.318>
VStem: 107 76<38.4606 213.105> 182 72<316.496 422.268> 348 76<67.3114 219.086> 416 77<328.429 436.718> 659 54<251.411 401.25>
LayerCount: 2
Fore
SplineSet
363 49 m 1,0,1
 323 -16 323 -16 259 -16 c 2,2,-1
 257 -16 l 2,3,4
 192 -16 192 -16 150 17 c 0,5,6
 107 50 107 50 107 118 c 0,7,8
 107 172 107 172 164 327 c 0,9,10
 182 373 182 373 182 396 c 0,11,12
 182 414 182 414 175 420 c 0,13,14
 170 425 170 425 162 425 c 0,15,16
 99 425 99 425 63 302 c 0,17,18
 59 288 59 288 55 284 c 128,-1,19
 51 280 51 280 42 280 c 128,-1,20
 33 280 33 280 29 284 c 128,-1,21
 25 288 25 288 25 295 c 128,-1,22
 25 302 25 302 32.5 325.5 c 128,-1,23
 40 349 40 349 54 376 c 0,24,25
 71 411 71 411 100 434.5 c 128,-1,26
 129 458 129 458 166 458 c 0,27,28
 204 458 204 458 229 431.5 c 128,-1,29
 254 405 254 405 254 369 c 0,30,31
 254 350 254 350 236 301 c 0,32,33
 183 163 183 163 183 104 c 0,34,35
 183 57 183 57 205 35 c 0,36,37
 224 16 224 16 260 16 c 0,38,39
 313 16 313 16 349 98 c 0,40,41
 348 104 348 104 348 116 c 0,42,43
 348 145 348 145 357 184 c 1,44,45
 369 229 369 229 392 320 c 0,46,47
 415 412 415 412 416 415 c 0,48,49
 427 446 427 446 457 446 c 2,50,-1
 459 446 l 2,51,52
 475 446 475 446 484 437 c 128,-1,53
 493 428 493 428 493 414 c 0,54,55
 493 406 493 406 478 346 c 2,56,-1
 435 174 l 2,57,58
 424 135 424 135 424 100 c 0,59,60
 424 54 424 54 445 33 c 0,61,62
 462 16 462 16 495 16 c 0,63,64
 561 16 561 16 603 103 c 0,65,66
 622 142 622 142 640.5 202.5 c 128,-1,67
 659 263 659 263 659 289 c 0,68,69
 659 337 659 337 624 372 c 0,70,71
 608 386 608 386 606 403 c 2,72,73
 606 422 606 422 624 440 c 128,-1,74
 642 458 642 458 663 458 c 0,75,76
 681 458 681 458 697 439.5 c 128,-1,77
 713 421 713 421 713 381.5 c 128,-1,78
 713 342 713 342 692 256.5 c 128,-1,79
 671 171 671 171 645 113 c 0,80,81
 590 -16 590 -16 493 -16 c 128,-1,82
 396 -16 396 -16 363 49 c 1,0,1
EndSplineSet
Validated: 3073
EndChar

StartChar: x
Encoding: 120 120 49
Width: 584
Flags: W
HStem: -16 32<89.2661 169.92 309.369 395.538> 425 33<172.455 259.681 397.891 480.265>
VStem: 25 104<34.7539 102.435> 56 36<284.641 338.909> 440 105<338.534 406.217> 477 36<100.854 156.844>
LayerCount: 2
Fore
SplineSet
338 386 m 1,0,1
 379 458 379 458 444 458 c 0,2,3
 480 458 480 458 512 441 c 0,4,5
 545 424 545 424 545 385 c 0,6,7
 545 355 545 355 525.5 338 c 128,-1,8
 506 321 506 321 485 321 c 0,9,10
 463 321 463 321 451.5 333 c 128,-1,11
 440 345 440 345 440 363 c 128,-1,12
 440 381 440 381 455 399 c 0,13,14
 466 412 466 412 481 418 c 1,15,16
 464 425 464 425 443 425 c 0,17,18
 374 425 374 425 347 308 c 1,19,-1
 312 168 l 2,20,21
 295 99 295 99 295 79 c 0,22,23
 295 52 295 52 308 33 c 0,24,25
 321 16 321 16 346 16 c 0,26,27
 378 16 378 16 417 46 c 128,-1,28
 456 76 456 76 477 146 c 0,29,30
 479 152 479 152 483 157 c 0,31,32
 488 162 488 162 496 162 c 128,-1,33
 504 162 504 162 508.5 157.5 c 128,-1,34
 513 153 513 153 513 146 c 0,35,36
 513 134 513 134 501 108.5 c 128,-1,37
 489 83 489 83 470 56 c 0,38,39
 450 28 450 28 416 6 c 128,-1,40
 382 -16 382 -16 344 -16 c 0,41,42
 299 -16 299 -16 269 8 c 0,43,44
 244 28 244 28 232 55 c 1,45,46
 230 52 230 52 226 45.5 c 128,-1,47
 222 39 222 39 213.5 29.5 c 128,-1,48
 205 20 205 20 202 17 c 0,49,50
 189 4 189 4 170 -6 c 128,-1,51
 151 -16 151 -16 126 -16 c 0,52,53
 87 -16 87 -16 56 2 c 0,54,55
 25 21 25 21 25 56 c 0,56,57
 25 85 25 85 43 103 c 128,-1,58
 61 121 61 121 86 121 c 0,59,60
 102 121 102 121 115 111 c 0,61,62
 129 100 129 100 129 79 c 0,63,64
 129 56 129 56 111 38 c 0,65,66
 101 28 101 28 89 24 c 1,67,68
 106 17 106 17 127 16 c 0,69,70
 158 16 158 16 182.5 44 c 128,-1,71
 207 72 207 72 219 119 c 0,72,73
 274 327 274 327 275 361 c 0,74,75
 275 398 275 398 259 411.5 c 128,-1,76
 243 425 243 425 224 425 c 0,77,78
 191 425 191 425 153 395.5 c 128,-1,79
 115 366 115 366 92 295 c 0,80,81
 91 289 91 289 86.5 284.5 c 128,-1,82
 82 280 82 280 73.5 280 c 128,-1,83
 65 280 65 280 61 284 c 128,-1,84
 57 288 57 288 56 295 c 0,85,86
 56 307 56 307 68 332.5 c 128,-1,87
 80 358 80 358 99 386 c 0,88,89
 119 415 119 415 153.5 436.5 c 128,-1,90
 188 458 188 458 226 458 c 0,91,92
 306 458 306 458 338 386 c 1,0,1
EndSplineSet
Validated: 3073
EndChar

StartChar: y
Encoding: 121 121 50
Width: 501
Flags: W
HStem: -215 33<103.937 217.906> -149 100<90.3796 128.591> -16 32<200.44 287.214> 425 33<120.049 177.479>
VStem: 46 105<-135.374 -67.5671> 106 75<30.527 208.618> 182 72<313.305 422.14> 432 75<340.125 436.203>
LayerCount: 2
Fore
SplineSet
90 -149 m 1,0,1
 108 -182 108 -182 159 -182 c 0,2,3
 221 -182 221 -182 268 -120 c 0,4,5
 305 -71 305 -71 330 20 c 1,6,7
 259 -16 259 -16 239 -16 c 0,8,9
 237 -16 237 -16 236 -16 c 0,10,11
 182 -16 182 -16 144 14 c 0,12,13
 106 45 106 45 106 111 c 0,14,15
 106 169 106 169 165 328 c 0,16,17
 182 374 182 374 182 397 c 0,18,19
 182 414 182 414 175 420 c 0,20,21
 170 425 170 425 162 425 c 0,22,23
 99 425 99 425 63 302 c 0,24,25
 59 288 59 288 55 284 c 128,-1,26
 51 280 51 280 42 280 c 128,-1,27
 33 280 33 280 29 284 c 128,-1,28
 25 288 25 288 25 295 c 128,-1,29
 25 302 25 302 32.5 325.5 c 128,-1,30
 40 349 40 349 54 376 c 0,31,32
 71 411 71 411 100 434.5 c 128,-1,33
 129 458 129 458 166 458 c 0,34,35
 205 458 205 458 229.5 432 c 128,-1,36
 254 406 254 406 254 369 c 0,37,38
 254 346 254 346 233 293 c 0,39,40
 181 159 181 159 181 94 c 0,41,42
 181 49 181 49 200 30 c 0,43,44
 214 16 214 16 240 16 c 0,45,46
 282 16 282 16 313.5 48 c 128,-1,47
 345 80 345 80 350 99 c 0,48,49
 396 284 396 284 396 284 c 0,50,51
 403 318 403 318 417 366 c 0,52,53
 428 415 428 415 432 422 c 0,54,55
 445 446 445 446 470 446 c 2,56,-1
 472 446 l 2,57,58
 488 446 488 446 497.5 436.5 c 128,-1,59
 507 427 507 427 507 415 c 128,-1,60
 507 403 507 403 503 389 c 2,61,-1
 404 -2 l 2,62,63
 382 -90 382 -90 311.5 -152.5 c 128,-1,64
 241 -215 241 -215 160 -215 c 0,65,66
 104 -215 104 -215 71 -182 c 0,67,68
 46 -157 46 -157 46 -122 c 0,69,70
 46 -85 46 -85 65.5 -67 c 128,-1,71
 85 -49 85 -49 107.5 -49 c 128,-1,72
 130 -49 130 -49 140.5 -59.5 c 128,-1,73
 151 -70 151 -70 151 -88 c 2,74,-1
 151 -90 l 2,75,76
 151 -116 151 -116 129 -136 c 0,77,78
 116 -148 116 -148 90 -149 c 1,0,1
EndSplineSet
Validated: 3073
EndChar

StartChar: z
Encoding: 122 122 51
Width: 476
Flags: W
HStem: -16 78<232.89 358.147> 61 32<134.219 195.19> 379 79<186.688 304.749>
VStem: 123 36<324.641 359.62>
LayerCount: 2
Fore
SplineSet
239 223 m 1,0,1
 332 302 332 302 373 348 c 1,2,3
 344 350 344 350 303 364 c 0,4,5
 260 379 260 379 241 379 c 0,6,7
 176 379 176 379 159 334 c 0,8,9
 157 329 157 329 152.5 324.5 c 128,-1,10
 148 320 148 320 140 320 c 128,-1,11
 132 320 132 320 127.5 324.5 c 128,-1,12
 123 329 123 329 123 336 c 0,13,14
 123 364 123 364 161 411 c 0,15,16
 200 458 200 458 252 458 c 0,17,18
 277 458 277 458 293 446 c 0,19,20
 310 433 310 433 327 412 c 0,21,22
 335 402 335 402 338 399 c 0,23,24
 352 385 352 385 359.5 383 c 128,-1,25
 367 381 367 381 375 381 c 0,26,27
 414 381 414 381 448 444 c 0,28,29
 455 457 455 457 467 458 c 0,30,31
 475 458 475 458 479 454 c 128,-1,32
 483 450 483 450 483 443.5 c 128,-1,33
 483 437 483 437 474 422 c 128,-1,34
 465 407 465 407 437 373 c 0,35,36
 405 334 405 334 362 290 c 0,37,38
 341 268 341 268 320 250 c 0,39,40
 284 219 284 219 277 213 c 2,41,-1
 261 198 l 1,42,43
 200 146 200 146 150 92 c 1,44,45
 156 93 156 93 164 93 c 0,46,47
 187 93 187 93 238 76 c 0,48,49
 277 63 277 63 296 62 c 0,50,51
 339 62 339 62 380 96 c 0,52,53
 401 114 401 114 414 145 c 0,54,55
 417 152 417 152 422 156.5 c 128,-1,56
 427 161 427 161 433 162 c 0,57,58
 442 162 442 162 446 157.5 c 128,-1,59
 450 153 450 153 450 146 c 0,60,61
 450 110 450 110 401 47 c 128,-1,62
 352 -16 352 -16 285 -16 c 0,63,64
 250 -16 250 -16 215 24 c 0,65,66
 195 47 195 47 185 54 c 128,-1,67
 175 61 175 61 160 61 c 0,68,69
 118 61 118 61 77 -1 c 0,70,71
 67 -16 67 -16 56 -16 c 0,72,73
 47 -16 47 -16 43 -12 c 128,-1,74
 39 -8 39 -8 39 -2 c 128,-1,75
 39 4 39 4 56 31 c 0,76,77
 72 58 72 58 88 73 c 0,78,79
 122 106 122 106 156 138 c 1,80,81
 220 205 220 205 239 223 c 1,0,1
EndSplineSet
Validated: 3073
EndChar

StartChar: Alpha
Encoding: 913 913 52
Width: 788
Flags: W
HStem: -5 42<39.1255 125.907 207.317 257.811 481.705 571.635 684.258 756.811> 232 41<319 549>
LayerCount: 2
Fore
SplineSet
139 -2 m 1,0,-1
 52 -5 l 2,1,2
 43 -5 43 -5 38 0 c 128,-1,3
 33 5 33 5 33 15 c 128,-1,4
 33 25 33 25 39 32 c 0,5,6
 43 36 43 36 49 37 c 0,7,8
 69 39 69 39 81 41 c 128,-1,9
 93 43 93 43 111 50 c 0,10,11
 148 65 148 65 182 123 c 1,12,-1
 544 716 l 2,13,14
 557 738 557 738 577 738 c 0,15,16
 592 738 592 738 596 732 c 128,-1,17
 600 726 600 726 602 707 c 2,18,-1
 674 69 l 2,19,20
 676 47 676 47 684 42 c 128,-1,21
 692 37 692 37 734 37 c 0,22,23
 751 37 751 37 758 30 c 0,24,25
 763 25 763 25 763 16 c 128,-1,26
 763 7 763 7 757 1 c 128,-1,27
 751 -5 751 -5 738 -5 c 0,28,29
 714 -5 714 -5 682 -3 c 0,30,31
 657 -2 657 -2 622 -2 c 2,32,-1
 560 -3 l 1,33,-1
 496 -5 l 2,34,35
 486 -5 486 -5 481 0 c 128,-1,36
 476 5 476 5 475 13 c 2,37,38
 475 23 475 23 481.5 29.5 c 128,-1,39
 488 36 488 36 504 37 c 2,40,41
 573 37 573 37 573 65 c 0,42,43
 573 67 573 67 571 79 c 0,44,45
 569 93 569 93 566.5 113 c 128,-1,46
 564 133 564 133 562 152 c 2,47,-1
 562 153 l 2,48,49
 557 209 557 209 554 232 c 1,50,-1
 294 232 l 1,51,-1
 214 101 l 2,52,53
 201 78 201 78 201 67 c 128,-1,54
 201 56 201 56 207 50 c 0,55,56
 217 40 217 40 244 37 c 0,57,58
 254 37 254 37 259 32 c 128,-1,59
 264 27 264 27 264 17 c 128,-1,60
 264 7 264 7 258 1 c 128,-1,61
 252 -5 252 -5 240 -5 c 2,62,-1
 139 -2 l 1,0,-1
514 591 m 1,63,-1
 319 273 l 1,64,-1
 549 273 l 1,65,-1
 514 591 l 1,63,-1
EndSplineSet
Validated: 3073
EndChar

StartChar: Beta
Encoding: 914 914 53
Width: 812
Flags: W
HStem: -5 42<48.1567 143.615 250.099 517.199> 346 36<333 571.135> 663 41<214.641 300.388 406.194 654.619>
VStem: 635 107<146.744 294.326> 692 105<485.923 628.503>
LayerCount: 2
Fore
SplineSet
278 37 m 2,0,-1
 424 37 l 2,1,2
 515 37 515 37 577 100 c 0,3,4
 635 158 635 158 635 230 c 0,5,6
 635 293 635 293 599.5 319.5 c 128,-1,7
 564 346 564 346 512 346 c 2,8,-1
 323 346 l 1,9,-1
 254 65 l 2,10,11
 248 43 248 43 250 40 c 0,12,13
 253 37 253 37 278 37 c 2,0,-1
300.5 657 m 128,-1,15
 297 659 297 659 283 661 c 128,-1,16
 269 663 269 663 251 663 c 128,-1,17
 233 663 233 663 226 664 c 128,-1,18
 219 665 219 665 214.5 669 c 128,-1,19
 210 673 210 673 210 683 c 0,20,21
 210 697 210 697 220 701 c 0,22,23
 228 704 228 704 246 704 c 2,24,-1
 596 704 l 2,25,26
 702 704 702 704 759 647 c 0,27,28
 797 609 797 609 797 557 c 0,29,30
 797 488 797 488 732 433 c 0,31,32
 677 387 677 387 602 367 c 1,33,34
 663 355 663 355 701 317 c 0,35,36
 742 276 742 276 742 220 c 0,37,38
 742 139 742 139 656 67 c 128,-1,39
 570 -5 570 -5 450 -5 c 2,40,-1
 77 -5 l 2,41,42
 66 -5 66 -5 60 -4 c 0,43,44
 53 -3 53 -3 48 1.5 c 128,-1,45
 43 6 43 6 43 15 c 0,46,47
 43 28 43 28 51.5 32.5 c 128,-1,48
 60 37 60 37 79 37 c 0,49,50
 132 37 132 37 144 44 c 128,-1,51
 156 51 156 51 162 79 c 2,52,-1
 300 631 l 2,53,54
 304 645 304 645 304 650 c 128,-1,14
 304 655 304 655 300.5 657 c 128,-1,15
486 382 m 2,55,56
 575 382 575 382 639 447 c 0,57,58
 692 500 692 500 692 561 c 0,59,60
 692 589 692 589 676 621 c 0,61,62
 667 639 667 639 642 651 c 128,-1,63
 617 663 617 663 582 663 c 2,64,-1
 443 663 l 2,65,66
 412 663 412 663 406 657 c 128,-1,67
 400 651 400 651 394 627 c 2,68,-1
 333 382 l 1,69,-1
 486 382 l 2,55,56
EndSplineSet
Validated: 3073
EndChar

StartChar: Gamma
Encoding: 915 915 54
Width: 703
Flags: W
HStem: -5 42<45.1575 140.615 259.13 367.295> 461 21G<713.25 721.75> 660 41<210.641 294.741 408.194 674.259>
VStem: 698 38<466.157 633.125>
LayerCount: 2
Fore
SplineSet
269 -3 m 1,0,-1
 197 -2 l 2,1,2
 139 -2 139 -2 124.5 -3.5 c 128,-1,3
 110 -5 110 -5 60 -5 c 0,4,5
 50 -5 50 -5 45 0 c 128,-1,6
 40 5 40 5 40 15 c 0,7,8
 40 28 40 28 48.5 32.5 c 128,-1,9
 57 37 57 37 76 37 c 0,10,11
 129 37 129 37 141 44 c 128,-1,12
 153 51 153 51 159 79 c 0,13,14
 206 266 206 266 295 624 c 0,15,16
 300 641 300 641 300 646 c 128,-1,17
 300 651 300 651 299 652 c 128,-1,18
 298 653 298 653 295 655 c 0,19,20
 287 660 287 660 243 660 c 0,21,22
 230 660 230 660 223 661 c 0,23,24
 215 662 215 662 210.5 666.5 c 128,-1,25
 206 671 206 671 206 680 c 0,26,27
 206 693 206 693 215 698 c 0,28,29
 222 701 222 701 242 701 c 2,30,-1
 725 701 l 2,31,32
 743 701 743 701 748 699.5 c 128,-1,33
 753 698 753 698 755 696 c 0,34,35
 760 691 760 691 760 682 c 2,36,-1
 760 681 l 1,37,38
 736 477 736 477 736 473 c 128,-1,39
 736 469 736 469 731 465 c 128,-1,40
 726 461 726 461 717.5 461 c 128,-1,41
 709 461 709 461 704 466 c 128,-1,42
 699 471 699 471 698 481 c 2,43,44
 698 487 698 487 701 497 c 0,45,46
 705 543 705 543 705 556 c 0,47,48
 705 615 705 615 677 637.5 c 128,-1,49
 649 660 649 660 568 660 c 2,50,-1
 445 660 l 2,51,52
 414 660 414 660 408 655 c 0,53,54
 402 649 402 649 396 623 c 2,55,-1
 259 76 l 2,56,57
 255 62 255 62 255 54 c 128,-1,58
 255 46 255 46 259 43.5 c 128,-1,59
 263 41 263 41 286 39 c 128,-1,60
 309 37 309 37 329.5 37 c 128,-1,61
 350 37 350 37 356 36 c 0,62,63
 364 35 364 35 369 30.5 c 128,-1,64
 374 26 374 26 374 17 c 128,-1,65
 374 8 374 8 367.5 1.5 c 128,-1,66
 361 -5 361 -5 347 -5 c 2,67,-1
 269 -3 l 1,0,-1
EndSplineSet
Validated: 3073
EndChar

StartChar: Delta
Encoding: 916 916 55
Width: 876
Flags: W
HStem: -5 87<148 706>
LayerCount: 2
Fore
SplineSet
830 28 m 2,0,1
 833 15 833 15 833 9.5 c 128,-1,2
 833 4 833 4 830 1 c 128,-1,3
 827 -2 827 -2 822 -3.5 c 128,-1,4
 817 -5 817 -5 800 -5 c 2,5,-1
 76 -5 l 2,6,7
 59 -5 59 -5 56 -4 c 0,8,9
 47 -2 47 -2 47 7 c 0,10,11
 47 13 47 13 57 26 c 0,12,13
 238 263 238 263 585 717 c 0,14,15
 601 738 601 738 621 738 c 0,16,17
 635 738 635 738 640.5 732 c 128,-1,18
 646 726 646 726 650 710 c 2,19,-1
 830 28 l 2,0,1
706 82 m 1,20,-1
 562 625 l 1,21,-1
 148 82 l 1,22,-1
 706 82 l 1,20,-1
EndSplineSet
Validated: 3073
EndChar

StartChar: Epsilon
Encoding: 917 917 56
Width: 808
Flags: W
HStem: -5 42<45.1567 140.615 253.099 565.883> 341 42<336 493.007> 461 21G<757.25 765.75> 660 41<210.641 294.741 400.835 712.365>
VStem: 562 35<439.484 498.359> 708 45<195.102 263.843> 743 61<491.07 633.412>
LayerCount: 2
Fore
SplineSet
426 341 m 2,0,-1
 326 341 l 1,1,-1
 257 65 l 2,2,3
 251 43 251 43 253 40 c 0,4,5
 256 37 256 37 281 37 c 2,6,-1
 437 37 l 2,7,8
 486 37 486 37 523.5 45.5 c 128,-1,9
 561 54 561 54 587 67 c 0,10,11
 612 81 612 81 634 108.5 c 128,-1,12
 656 136 656 136 671.5 164 c 128,-1,13
 687 192 687 192 708 242 c 0,14,15
 716 260 716 260 720.5 264.5 c 128,-1,16
 725 269 725 269 734 269 c 128,-1,17
 743 269 743 269 747.5 264 c 128,-1,18
 752 259 752 259 753 251 c 2,19,20
 753 242 753 242 653 17 c 0,21,22
 647 3 647 3 641 -1 c 0,23,24
 636 -5 636 -5 614 -5 c 2,25,-1
 74 -5 l 2,26,27
 63 -5 63 -5 57 -4 c 0,28,29
 50 -3 50 -3 45 1.5 c 128,-1,30
 40 6 40 6 40 15 c 0,31,32
 40 28 40 28 48.5 32.5 c 128,-1,33
 57 37 57 37 76 37 c 0,34,35
 129 37 129 37 141 44 c 128,-1,36
 153 51 153 51 159 79 c 0,37,38
 206 266 206 266 295 624 c 0,39,40
 300 641 300 641 300 646 c 128,-1,41
 300 651 300 651 299 652 c 128,-1,42
 298 653 298 653 295 655 c 0,43,44
 287 660 287 660 243 660 c 0,45,46
 230 660 230 660 223 661 c 0,47,48
 215 662 215 662 210.5 666.5 c 128,-1,49
 206 671 206 671 206 680 c 0,50,51
 206 693 206 693 215 698 c 0,52,53
 222 701 222 701 242 701 c 2,54,-1
 769 701 l 2,55,56
 787 701 787 701 792 699.5 c 128,-1,57
 797 698 797 698 799 696 c 0,58,59
 804 691 804 691 804 682 c 2,60,-1
 804 681 l 1,61,62
 780 477 780 477 779.5 473 c 128,-1,63
 779 469 779 469 774.5 465 c 128,-1,64
 770 461 770 461 761.5 461 c 128,-1,65
 753 461 753 461 748 466 c 128,-1,66
 743 471 743 471 743 481 c 2,67,68
 747 533 747 533 748 551 c 0,69,70
 748 613 748 613 717.5 636.5 c 128,-1,71
 687 660 687 660 596 660 c 2,72,-1
 445 660 l 2,73,74
 420 660 420 660 412 657 c 0,75,76
 405 654 405 654 403 646 c 0,77,78
 396 629 396 629 336 383 c 1,79,-1
 427 383 l 2,80,81
 501 383 501 383 525 407 c 0,82,83
 545 427 545 427 556 473 c 0,84,85
 560 490 560 490 562 493.5 c 128,-1,86
 564 497 564 497 565 498 c 0,87,88
 570 503 570 503 579 503 c 128,-1,89
 588 503 588 503 592.5 498.5 c 128,-1,90
 597 494 597 494 597 486 c 128,-1,91
 597 478 597 478 594 463 c 2,92,-1
 540 248 l 1,93,-1
 537 238 l 2,94,95
 536 235 536 235 534 231 c 0,96,97
 530 224 530 224 526 222.5 c 128,-1,98
 522 221 522 221 515.5 221 c 128,-1,99
 509 221 509 221 504 226 c 128,-1,100
 499 231 499 231 499 238.5 c 128,-1,101
 499 246 499 246 502 255 c 0,102,103
 509 283 509 283 509 301 c 0,104,105
 509 324 509 324 493.5 332.5 c 128,-1,106
 478 341 478 341 426 341 c 2,0,-1
EndSplineSet
Validated: 3073
EndChar

StartChar: Zeta
Encoding: 918 918 57
Width: 765
Flags: W
HStem: -5 45<182 485.491> 464 21G<202.5 214.5> 663 41<350.544 636>
VStem: 189 37<469.157 524.082>
LayerCount: 2
Fore
SplineSet
226 477 m 0,0,1
 222 464 222 464 207 464 c 0,2,3
 198 464 198 464 193.5 469 c 128,-1,4
 189 474 189 474 189 480.5 c 128,-1,5
 189 487 189 487 194 503 c 0,6,7
 248 677 248 677 248 680 c 0,8,9
 254 697 254 697 259 700.5 c 128,-1,10
 264 704 264 704 286 704 c 2,11,-1
 742 704 l 2,12,13
 757 704 757 704 759 697 c 0,14,15
 761 694 761 694 761 689 c 0,16,17
 760 678 760 678 746 661 c 2,18,-1
 182 40 l 1,19,-1
 351 40 l 2,20,21
 417 40 417 40 461 53 c 0,22,23
 507 67 507 67 535.5 97 c 128,-1,24
 564 127 564 127 581 161 c 128,-1,25
 598 195 598 195 617 251 c 0,26,27
 622 267 622 267 624.5 269.5 c 128,-1,28
 627 272 627 272 628 273 c 0,29,30
 633 278 633 278 641.5 278 c 128,-1,31
 650 278 650 278 654.5 273.5 c 128,-1,32
 659 269 659 269 659 260 c 2,33,-1
 659 259 l 1,34,-1
 657 252 l 1,35,-1
 655 245 l 1,36,-1
 584 18 l 2,37,38
 578 2 578 2 572.5 -1.5 c 128,-1,39
 567 -5 567 -5 546 -5 c 2,40,-1
 88 -5 l 2,41,42
 71 -5 71 -5 66.5 -3.5 c 128,-1,43
 62 -2 62 -2 59 1 c 128,-1,44
 56 4 56 4 56 11 c 2,45,-1
 56 12 l 1,46,-1
 61 29 l 1,47,-1
 62 31 l 1,48,-1
 636 663 l 1,49,-1
 476 663 l 2,50,51
 417 663 417 663 374.5 651 c 128,-1,52
 332 639 332 639 304 613 c 128,-1,53
 276 587 276 587 259.5 556 c 128,-1,54
 243 525 243 525 226 477 c 0,0,1
EndSplineSet
Validated: 3073
EndChar

StartChar: Eta
Encoding: 919 919 58
Width: 898
Flags: W
HStem: -5 42<45.1575 140.615 255.229 341.811 455.705 554.872 663.228 750.295> 343 42<336 634> 663 40<213.189 297.388 414.386 509.843 622.189 706.388 823.417 917.873>
LayerCount: 2
Fore
SplineSet
663 44 m 0,0,1
 670 37 670 37 715 37 c 0,2,3
 733 37 733 37 739 36 c 0,4,5
 747 35 747 35 752 30.5 c 128,-1,6
 757 26 757 26 757 17 c 128,-1,7
 757 8 757 8 750.5 1.5 c 128,-1,8
 744 -5 744 -5 731 -5 c 0,9,10
 705 -5 705 -5 665 -3 c 0,11,12
 634 -2 634 -2 599 -2 c 128,-1,13
 564 -2 564 -2 534 -3 c 0,14,15
 495 -5 495 -5 469 -5 c 0,16,17
 459 -5 459 -5 454 0 c 128,-1,18
 449 5 449 5 449 14 c 128,-1,19
 449 23 449 23 455.5 29.5 c 128,-1,20
 462 36 462 36 478 37 c 2,21,22
 516 37 516 37 533 40 c 0,23,24
 551 43 551 43 555 47 c 0,25,26
 558 50 558 50 561 58 c 128,-1,27
 564 66 564 66 594.5 185 c 128,-1,28
 625 304 625 304 634 343 c 1,29,-1
 326 343 l 1,30,-1
 259 73 l 2,31,32
 254 56 254 56 254 51 c 0,33,34
 254 45 254 45 255 44 c 0,35,36
 262 37 262 37 311 37 c 0,37,38
 324 37 324 37 331 36 c 0,39,40
 339 35 339 35 343.5 30.5 c 128,-1,41
 348 26 348 26 348 16.5 c 128,-1,42
 348 7 348 7 342 1 c 128,-1,43
 336 -5 336 -5 323 -5 c 0,44,45
 297 -5 297 -5 256 -3 c 0,46,47
 225 -2 225 -2 190.5 -2 c 128,-1,48
 156 -2 156 -2 125 -3 c 0,49,50
 86 -5 86 -5 60 -5 c 0,51,52
 50 -5 50 -5 45 0 c 128,-1,53
 40 5 40 5 40 15 c 0,54,55
 40 28 40 28 48.5 32.5 c 128,-1,56
 57 37 57 37 76 37 c 0,57,58
 129 37 129 37 141 44 c 128,-1,59
 153 51 153 51 159 79 c 0,60,61
 206 269 206 269 297 631 c 0,62,63
 301 645 301 645 301 650 c 128,-1,64
 301 655 301 655 297.5 657 c 128,-1,65
 294 659 294 659 280 661 c 128,-1,66
 266 663 266 663 248.5 663 c 128,-1,67
 231 663 231 663 224 664 c 0,68,69
 216 665 216 665 211.5 669.5 c 128,-1,70
 207 674 207 674 207 682.5 c 128,-1,71
 207 691 207 691 213 697 c 128,-1,72
 219 703 219 703 230 703 c 0,73,74
 231 703 231 703 231.5 703 c 128,-1,75
 232 703 232 703 245 703 c 128,-1,76
 258 703 258 703 294 702 c 128,-1,77
 330 701 330 701 364.5 701 c 128,-1,78
 399 701 399 701 430 702 c 0,79,80
 452 702 452 702 495 703 c 0,81,82
 505 703 505 703 510 698 c 128,-1,83
 515 693 515 693 515 684 c 0,84,85
 515 671 515 671 507 667 c 128,-1,86
 499 663 499 663 482 663 c 0,87,88
 426 663 426 663 414 655 c 0,89,90
 402 648 402 648 395 620 c 0,91,92
 375 540 375 540 336 385 c 1,93,-1
 644 385 l 1,94,-1
 706 631 l 2,95,96
 710 646 710 646 710 650 c 128,-1,97
 710 654 710 654 706.5 656.5 c 128,-1,98
 703 659 703 659 688.5 661 c 128,-1,99
 674 663 674 663 656.5 663 c 128,-1,100
 639 663 639 663 633 664 c 0,101,102
 626 665 626 665 621 669.5 c 128,-1,103
 616 674 616 674 616 682.5 c 128,-1,104
 616 691 616 691 622 697 c 128,-1,105
 628 703 628 703 639 703 c 0,106,107
 640 703 640 703 640.5 703 c 128,-1,108
 641 703 641 703 654 703 c 128,-1,109
 667 703 667 703 703 702 c 128,-1,110
 739 701 739 701 773.5 701 c 128,-1,111
 808 701 808 701 839 702 c 0,112,113
 860 702 860 702 903 703 c 0,114,115
 914 703 914 703 918 698 c 0,116,117
 923 693 923 693 924 684 c 0,118,119
 924 671 924 671 915.5 667 c 128,-1,120
 907 663 907 663 891 663 c 0,121,122
 836 663 836 663 823 656 c 128,-1,123
 810 649 810 649 804 620 c 2,124,-1
 667 74 l 2,125,126
 663 60 663 60 662 50 c 0,127,128
 662 45 662 45 663 44 c 0,0,1
255 44 m 129,-1,129
 255 44 255 44 255 44 c 129,-1,129
EndSplineSet
Validated: 3073
EndChar

StartChar: Theta
Encoding: 920 920 59
Width: 800
Flags: W
HStem: -28 38<247.277 420.941> 307 87<264 565> 691 36<415.43 578.992>
VStem: 46 100<132.311 365.642> 199 38<278.157 289> 227 40<394 423.843> 561 41<278.157 306.391> 586 44<394.5 423.843> 681 100<331.093 562.821>
LayerCount: 2
Fore
SplineSet
329 10 m 0,0,1
 398 10 398 10 466 52 c 0,2,3
 535 94 535 94 581 161 c 0,4,5
 623 219 623 219 647 292.5 c 128,-1,6
 671 366 671 366 676 405 c 128,-1,7
 681 444 681 444 681 475 c 0,8,9
 681 584 681 584 623 642 c 0,10,11
 574 691 574 691 501 691 c 0,12,13
 437 691 437 691 368 651 c 0,14,15
 298 611 298 611 243 531 c 0,16,17
 197 465 197 465 171.5 378 c 128,-1,18
 146 291 146 291 146 223 c 0,19,20
 146 117 146 117 203 60 c 0,21,22
 253 10 253 10 329 10 c 0,0,1
781 443 m 0,23,24
 781 355 781 355 741 269 c 0,25,26
 700 180 700 180 636 116 c 128,-1,27
 572 52 572 52 491 12 c 1,28,29
 365 -28 365 -28 328 -28 c 0,30,31
 327 -28 327 -28 326 -28 c 0,32,33
 324 -28 324 -28 322 -28 c 0,34,35
 201 -28 201 -28 123.5 49.5 c 128,-1,36
 46 127 46 127 46 253 c 0,37,38
 46 369 46 369 112 479.5 c 128,-1,39
 178 590 178 590 286 658.5 c 128,-1,40
 394 727 394 727 507 727 c 0,41,42
 629 727 629 727 705 647 c 128,-1,43
 781 567 781 567 781 443 c 0,23,24
561 292 m 2,44,45
 561 296 561 296 565 307 c 1,46,-1
 243 307 l 1,47,48
 241 301 241 301 237 289 c 0,49,50
 236 282 236 282 231.5 277.5 c 128,-1,51
 227 273 227 273 218 273 c 128,-1,52
 209 273 209 273 204 278 c 128,-1,53
 199 283 199 283 199 289.5 c 128,-1,54
 199 296 199 296 210 338 c 0,55,56
 226 402 226 402 227 406 c 0,57,58
 232 428 232 428 248 429 c 2,59,60
 257 429 257 429 262 424 c 128,-1,61
 267 419 267 419 267 410 c 2,62,-1
 267 409 l 1,63,-1
 264 394 l 1,64,-1
 586 394 l 1,65,66
 586 396 586 396 587 402 c 128,-1,67
 588 408 588 408 591.5 414.5 c 128,-1,68
 595 421 595 421 599 425 c 128,-1,69
 603 429 603 429 611 429 c 128,-1,70
 619 429 619 429 624 424 c 128,-1,71
 629 419 629 419 630 410 c 2,72,73
 630 407 630 407 616 354 c 0,74,75
 604 307 604 307 602 296 c 0,76,77
 596 273 596 273 581 273 c 0,78,79
 572 273 572 273 567 278 c 128,-1,80
 562 283 562 283 561 292 c 2,44,45
EndSplineSet
Validated: 3073
EndChar

StartChar: Iota
Encoding: 921 921 60
Width: 494
Flags: W
HStem: -5 42<40.1575 140.584 257.096 346.811> 663 40<208.189 299.4 415.417 514.842>
LayerCount: 2
Fore
SplineSet
227 703 m 129,-1,1
 227 703 227 703 365 701 c 1,2,3
 422 702 422 702 433 702 c 128,-1,4
 444 702 444 702 466 703 c 2,5,-1
 486 703 l 1,6,-1
 499 703 l 2,7,8
 510 703 510 703 515 698 c 128,-1,9
 520 693 520 693 520 684 c 0,10,11
 520 671 520 671 512 667 c 128,-1,12
 504 663 504 663 485 663 c 0,13,14
 428 663 428 663 415 656 c 128,-1,15
 402 649 402 649 395 619 c 2,16,-1
 258 73 l 2,17,18
 254 60 254 60 254 50 c 0,19,20
 254 46 254 46 257 43.5 c 128,-1,21
 260 41 260 41 271 39 c 0,22,23
 289 37 289 37 309 37 c 128,-1,24
 329 37 329 37 336 36 c 0,25,26
 344 35 344 35 348.5 30.5 c 128,-1,27
 353 26 353 26 353 16.5 c 128,-1,28
 353 7 353 7 347 1 c 128,-1,29
 341 -5 341 -5 328 -5 c 2,30,-1
 261 -3 l 1,31,32
 260 -3 260 -3 190 -2 c 1,33,-1
 120 -3 l 1,34,-1
 55 -5 l 2,35,36
 45 -5 45 -5 40 0 c 128,-1,37
 35 5 35 5 35 15 c 0,38,39
 35 28 35 28 44 32.5 c 128,-1,40
 53 37 53 37 74 37 c 0,41,42
 128 37 128 37 141 44 c 0,43,44
 153 51 153 51 159 79 c 0,45,46
 207 269 207 269 298 632 c 0,47,48
 300 639 300 639 300 646 c 128,-1,49
 300 653 300 653 300 655 c 0,50,51
 281 662 281 662 238 663 c 0,52,53
 226 663 226 663 219 664 c 0,54,55
 211 665 211 665 206.5 669.5 c 128,-1,56
 202 674 202 674 202 682.5 c 128,-1,57
 202 691 202 691 208 697 c 128,-1,58
 214 703 214 703 225 703 c 0,59,60
 226 703 226 703 226.5 703 c 128,-1,0
 227 703 227 703 227 703 c 129,-1,1
EndSplineSet
Validated: 3073
EndChar

StartChar: Kappa
Encoding: 922 922 61
Width: 909
Flags: W
HStem: -5 42<45.1575 140.615 255.198 341.811 520.221 582.683 717.41 775.811> 663 40<213.189 297.388 414.386 509.843 712.673 749.994 912 930.874>
LayerCount: 2
Fore
SplineSet
731 703 m 130,-1,1
 731 703 731 703 842 701 c 0,2,3
 876 701 876 701 893 702.5 c 128,-1,4
 910 704 910 704 913 704 c 128,-1,5
 916 704 916 704 919 703 c 0,6,7
 927 703 927 703 931 698.5 c 128,-1,8
 935 694 935 694 935 686 c 0,9,10
 935 676 935 676 928 669 c 0,11,12
 924 665 924 665 921 665 c 2,13,-1
 912 663 l 1,14,15
 884 660 884 660 856 649 c 128,-1,16
 828 638 828 638 809 625.5 c 128,-1,17
 790 613 790 613 752 587 c 1,18,-1
 751 587 l 1,19,-1
 739 580 l 1,20,-1
 534 425 l 1,21,-1
 693 77 l 2,22,23
 704 52 704 52 717 45 c 128,-1,24
 730 38 730 38 759 37 c 0,25,26
 771 37 771 37 776.5 31.5 c 128,-1,27
 782 26 782 26 782 16.5 c 128,-1,28
 782 7 782 7 776 1 c 128,-1,29
 770 -5 770 -5 759 -5 c 2,30,-1
 709 -3 l 2,31,32
 698 -2 698 -2 656 -2 c 2,33,-1
 594 -3 l 1,34,-1
 535 -5 l 2,35,36
 524 -5 524 -5 519 0 c 128,-1,37
 514 5 514 5 513 13 c 2,38,39
 513 23 513 23 520 29.5 c 128,-1,40
 527 36 527 36 543 37 c 2,41,42
 573 37 573 37 583 47 c 0,43,44
 589 53 589 53 589 62 c 0,45,46
 589 66 589 66 582 84 c 0,47,48
 518 225 518 225 454 365 c 1,49,-1
 303 252 l 1,50,51
 254 55 254 55 254 50.5 c 128,-1,52
 254 46 254 46 255 44 c 0,53,54
 261 37 261 37 311 37 c 0,55,56
 324 37 324 37 331 36 c 0,57,58
 339 35 339 35 343.5 30.5 c 128,-1,59
 348 26 348 26 348 16.5 c 128,-1,60
 348 7 348 7 342 1 c 128,-1,61
 336 -5 336 -5 323 -5 c 0,62,63
 297 -5 297 -5 256 -3 c 0,64,65
 225 -2 225 -2 190.5 -2 c 128,-1,66
 156 -2 156 -2 125 -3 c 0,67,68
 86 -5 86 -5 60 -5 c 0,69,70
 50 -5 50 -5 45 0 c 128,-1,71
 40 5 40 5 40 15 c 0,72,73
 40 28 40 28 48.5 32.5 c 128,-1,74
 57 37 57 37 76 37 c 0,75,76
 129 37 129 37 141 44 c 128,-1,77
 153 51 153 51 159 79 c 0,78,79
 206 269 206 269 297 631 c 0,80,81
 301 645 301 645 301 650 c 128,-1,82
 301 655 301 655 297.5 657 c 128,-1,83
 294 659 294 659 280 661 c 128,-1,84
 266 663 266 663 248 663 c 128,-1,85
 230 663 230 663 223 664 c 128,-1,86
 216 665 216 665 211.5 669 c 128,-1,87
 207 673 207 673 207 682 c 128,-1,88
 207 691 207 691 213 697 c 128,-1,89
 219 703 219 703 230 703 c 0,90,91
 231 703 231 703 231.5 703 c 128,-1,92
 232 703 232 703 245 703 c 128,-1,93
 258 703 258 703 294 702 c 0,94,95
 337 701 337 701 371 701 c 128,-1,96
 405 701 405 701 430 702 c 1,97,98
 440 702 440 702 462 703 c 2,99,-1
 482 703 l 1,100,-1
 495 703 l 2,101,102
 505 703 505 703 510 698 c 128,-1,103
 515 693 515 693 515 684 c 0,104,105
 515 671 515 671 507 667 c 128,-1,106
 499 663 499 663 482 663 c 0,107,108
 426 663 426 663 414 655 c 0,109,110
 402 648 402 648 395 620 c 0,111,112
 368 511 368 511 316 306 c 1,113,-1
 713 603 l 1,114,115
 733 620 733 620 736 624 c 0,116,117
 749 637 749 637 750 649 c 0,118,119
 750 658 750 658 726 663 c 0,120,121
 717 663 717 663 712 668 c 128,-1,122
 707 673 707 673 707 682.5 c 128,-1,123
 707 692 707 692 712.5 697.5 c 128,-1,124
 718 703 718 703 729 703 c 0,125,126
 730 703 730 703 730.5 703 c 128,-1,0
 731 703 731 703 731 703 c 130,-1,1
255 44 m 129,-1,127
 255 44 255 44 255 44 c 129,-1,127
EndSplineSet
Validated: 3073
EndChar

StartChar: Lambda
Encoding: 923 923 62
Width: 730
Flags: W
HStem: -5 42<39.7045 113.67 195.347 246.811 431.705 509.586 635.71 698.811>
LayerCount: 2
Fore
SplineSet
131 -2 m 1,0,-1
 51 -5 l 2,1,2
 42 -5 42 -5 37.5 -0.5 c 128,-1,3
 33 4 33 4 33 15 c 0,4,5
 33 27 33 27 39.5 31.5 c 128,-1,6
 46 36 46 36 58 37 c 0,7,8
 113 42 113 42 153 97 c 0,9,10
 156 102 156 102 162 110 c 0,11,12
 167 117 167 117 169 123 c 2,13,-1
 515 714 l 2,14,15
 523 728 523 728 525.5 730.5 c 128,-1,16
 528 733 528 733 534 735.5 c 128,-1,17
 540 738 540 738 549 738 c 0,18,19
 560 738 560 738 565 732 c 0,20,21
 568 729 568 729 569.5 724.5 c 128,-1,22
 571 720 571 720 572 708 c 0,23,24
 591 488 591 488 627 69 c 0,25,26
 629 47 629 47 635.5 42 c 128,-1,27
 642 37 642 37 675 37 c 0,28,29
 694 37 694 37 701 30 c 0,30,31
 705 26 705 26 705 19 c 0,32,33
 705 18 705 18 705 18 c 0,34,35
 705 8 705 8 699 1.5 c 128,-1,36
 693 -5 693 -5 681 -5 c 2,37,-1
 627 -3 l 1,38,39
 615 -2 615 -2 570 -2 c 2,40,-1
 505 -3 l 1,41,-1
 445 -5 l 2,42,43
 435 -5 435 -5 430 0 c 128,-1,44
 425 5 425 5 425 14 c 128,-1,45
 425 23 425 23 431.5 29.5 c 128,-1,46
 438 36 438 36 453 37 c 2,47,48
 497 38 497 38 510 47 c 0,49,50
 523 55 523 55 523 71 c 0,51,52
 522 80 522 80 479 577 c 1,53,-1
 203 106 l 1,54,55
 189 76 189 76 188 68 c 0,56,57
 188 56 188 56 195 49 c 0,58,59
 206 38 206 38 232 37 c 0,60,61
 242 37 242 37 247 32 c 128,-1,62
 252 27 252 27 253 18 c 2,63,64
 253 7 253 7 247 1 c 128,-1,65
 241 -5 241 -5 229 -5 c 2,66,-1
 131 -2 l 1,0,-1
EndSplineSet
Validated: 3073
EndChar

StartChar: Mu
Encoding: 924 924 63
Width: 1069
Flags: W
HStem: -5 42<50.1887 142.389 217.443 288.326 634.157 728.646 834.128 921.811> 663 41<215.641 301.388 994.417 1090.36>
LayerCount: 2
Fore
SplineSet
271 -5 m 2,0,-1
 218 -3 l 1,1,2
 193 -2 193 -2 162 -2 c 128,-1,3
 131 -2 131 -2 109.5 -3.5 c 128,-1,4
 88 -5 88 -5 63 -5 c 0,5,6
 54 -5 54 -5 49 0 c 128,-1,7
 44 5 44 5 44 14.5 c 128,-1,8
 44 24 44 24 50 30 c 128,-1,9
 56 36 56 36 67 37 c 0,10,11
 124 39 124 39 147 62 c 0,12,13
 164 79 164 79 171 110 c 2,14,-1
 301 631 l 2,15,16
 305 645 305 645 305 650 c 128,-1,17
 305 655 305 655 301.5 657 c 128,-1,18
 298 659 298 659 284 661 c 128,-1,19
 270 663 270 663 252.5 663 c 128,-1,20
 235 663 235 663 228 664 c 0,21,22
 220 665 220 665 215.5 669.5 c 128,-1,23
 211 674 211 674 211 683 c 0,24,25
 211 696 211 696 220 701 c 0,26,27
 227 704 227 704 247 704 c 2,28,-1
 387 704 l 2,29,30
 412 704 412 704 417.5 698.5 c 128,-1,31
 423 693 423 693 426 674 c 0,32,33
 454 482 454 482 509 110 c 1,34,-1
 880 683 l 2,35,36
 890 698 890 698 897 701 c 128,-1,37
 904 704 904 704 926 704 c 2,38,-1
 1060 704 l 2,39,40
 1072 704 1072 704 1078 703 c 0,41,42
 1086 702 1086 702 1090.5 697.5 c 128,-1,43
 1095 693 1095 693 1095 684 c 0,44,45
 1095 671 1095 671 1086 666 c 0,46,47
 1079 663 1079 663 1062 663 c 0,48,49
 1007 663 1007 663 994 656 c 128,-1,50
 981 649 981 649 975 620 c 2,51,-1
 838 74 l 2,52,53
 834 60 834 60 833 50 c 0,54,55
 833 46 833 46 834 44 c 0,56,57
 838 40 838 40 853 39 c 0,58,59
 869 37 869 37 886.5 37 c 128,-1,60
 904 37 904 37 910 36 c 0,61,62
 918 35 918 35 923 30.5 c 128,-1,63
 928 26 928 26 928 16.5 c 128,-1,64
 928 7 928 7 922 1 c 128,-1,65
 916 -5 916 -5 903 -5 c 2,66,-1
 841 -3 l 1,67,-1
 816 -3 l 2,68,69
 800 -3 800 -3 788 -2.5 c 128,-1,70
 776 -2 776 -2 752.5 -2 c 128,-1,71
 729 -2 729 -2 709 -3.5 c 128,-1,72
 689 -5 689 -5 649 -5 c 0,73,74
 639 -5 639 -5 634 0 c 128,-1,75
 629 5 629 5 629 15 c 0,76,77
 629 28 629 28 637.5 32.5 c 128,-1,78
 646 37 646 37 665 37 c 0,79,80
 718 37 718 37 729 44 c 128,-1,81
 740 51 740 51 748 79 c 0,82,83
 748 79 748 79 888 638 c 1,84,-1
 485 16 l 2,85,86
 471 -5 471 -5 457 -5 c 0,87,88
 450 -5 450 -5 443.5 1.5 c 128,-1,89
 437 8 437 8 434 26 c 2,90,-1
 364 497 l 1,91,-1
 344 632 l 1,92,-1
 212 97 l 2,93,94
 208 79 208 79 208 76 c 0,95,96
 208 61 208 61 217 52 c 0,97,98
 231 38 231 38 269 37 c 0,99,100
 283 37 283 37 288.5 31.5 c 128,-1,101
 294 26 294 26 295 18 c 2,102,103
 295 7 295 7 289 1 c 128,-1,104
 283 -5 283 -5 271 -5 c 2,0,-1
EndSplineSet
Validated: 3073
EndChar

StartChar: Nu
Encoding: 925 925 64
Width: 898
Flags: W
HStem: -5 42<46.1885 136.703 213.443 284.326> 663 41<211.641 304 679.189 750.525 826.18 917.811>
LayerCount: 2
Fore
SplineSet
802 701 m 2,0,-1
 904 704 l 2,1,2
 914 704 914 704 918.5 699 c 128,-1,3
 923 694 923 694 924 686 c 2,4,5
 924 675 924 675 918 669 c 128,-1,6
 912 663 912 663 900 663 c 0,7,8
 847 661 847 661 825.5 642 c 128,-1,9
 804 623 804 623 796 588 c 2,10,-1
 653 21 l 2,11,12
 649 4 649 4 644.5 -0.5 c 128,-1,13
 640 -5 640 -5 631 -5 c 0,14,15
 621 -5 621 -5 616 -0.5 c 128,-1,16
 611 4 611 4 606 16 c 0,17,18
 606 16 606 16 338 623 c 1,19,-1
 208 97 l 2,20,21
 204 79 204 79 204 76 c 0,22,23
 204 61 204 61 213 52 c 0,24,25
 227 38 227 38 265 37 c 0,26,27
 279 37 279 37 284.5 31.5 c 128,-1,28
 290 26 290 26 291 18 c 2,29,30
 291 7 291 7 285 1 c 128,-1,31
 279 -5 279 -5 267 -5 c 2,32,-1
 214 -3 l 1,33,34
 189 -2 189 -2 158 -2 c 128,-1,35
 127 -2 127 -2 105.5 -3.5 c 128,-1,36
 84 -5 84 -5 59 -5 c 0,37,38
 50 -5 50 -5 45 0 c 128,-1,39
 40 5 40 5 40 15 c 128,-1,40
 40 25 40 25 46 30.5 c 128,-1,41
 52 36 52 36 62 37 c 2,42,43
 120 39 120 39 143 63 c 0,44,45
 160 80 160 80 167 110 c 0,46,47
 226 344 226 344 304 658 c 1,48,49
 280 663 280 663 243 663 c 0,50,51
 231 663 231 663 224 664 c 0,52,53
 216 665 216 665 211.5 669.5 c 128,-1,54
 207 674 207 674 207 683 c 0,55,56
 207 696 207 696 216 701 c 0,57,58
 223 704 223 704 243 704 c 2,59,-1
 379 704 l 2,60,61
 397 704 397 704 404 700 c 0,62,63
 406 699 406 699 409 696 c 128,-1,64
 412 693 412 693 418 681 c 2,65,-1
 646 162 l 1,66,-1
 757 604 l 1,67,-1
 759 613 l 2,68,69
 760 618 760 618 760 620 c 0,70,71
 760 621 760 621 760 624 c 0,72,73
 760 638 760 638 751 647 c 0,74,75
 736 662 736 662 696 663 c 0,76,77
 684 663 684 663 678.5 668 c 128,-1,78
 673 673 673 673 673 682.5 c 128,-1,79
 673 692 673 692 679 698 c 128,-1,80
 685 704 685 704 696 704 c 2,81,-1
 750 702 l 1,82,83
 775 701 775 701 802 701 c 2,0,-1
EndSplineSet
Validated: 3073
EndChar

StartChar: Xi
Encoding: 926 926 65
Width: 822
Flags: W
HStem: -5 81<107 630.75> 321 80<281 600> 434 20G<264.5 273.5 645 653> 618 80<249.066 762>
VStem: 77 40<79.8428 169.326> 213 41<273.157 320.193> 253 36<402.219 448.843> 592 41<274.189 320.008> 630 38<412.328 448.843>
LayerCount: 2
Fore
SplineSet
552 76 m 2,0,1
 594 76 594 76 615 78 c 1,2,-1
 631 81 l 1,3,4
 643 99 643 99 661 155 c 0,5,6
 667 175 667 175 681 175 c 0,7,8
 690 175 690 175 695 170 c 128,-1,9
 700 165 700 165 700 157 c 0,10,11
 700 152 700 152 680 90 c 0,12,13
 657 18 657 18 655 11 c 0,14,15
 651 1 651 1 645.5 -2 c 128,-1,16
 640 -5 640 -5 621 -5 c 2,17,-1
 86 -5 l 2,18,19
 75 -5 75 -5 69 -4 c 0,20,21
 61 -3 61 -3 56 1.5 c 128,-1,22
 51 6 51 6 51 13 c 0,23,24
 51 42 51 42 77 149 c 0,25,26
 79 164 79 164 84.5 169.5 c 128,-1,27
 90 175 90 175 98 175 c 128,-1,28
 106 175 106 175 111 170 c 128,-1,29
 116 165 116 165 117 156 c 2,30,31
 117 152 117 152 112.5 129 c 128,-1,32
 108 106 108 106 107 79 c 1,33,34
 135 76 135 76 177 76 c 2,35,-1
 552 76 l 2,0,1
775 530 m 0,36,37
 774 530 774 530 774 530 c 0,38,39
 765 530 765 530 760 535 c 128,-1,40
 755 540 755 540 755 549 c 0,41,42
 755 552 755 552 756 559 c 0,43,44
 761 589 761 589 762 616 c 1,45,46
 737 618 737 618 695 618 c 2,47,-1
 323 618 l 2,48,49
 284 618 284 618 267.5 616.5 c 128,-1,50
 251 615 251 615 249 613 c 0,51,52
 239 606 239 606 223 556 c 0,53,54
 219 542 219 542 216.5 539 c 128,-1,55
 214 536 214 536 213 535 c 0,56,57
 208 530 208 530 199.5 530 c 128,-1,58
 191 530 191 530 186.5 535 c 128,-1,59
 182 540 182 540 181 548 c 2,60,61
 181 556 181 556 186 569 c 1,62,-1
 220 675 l 2,63,64
 226 691 226 691 231.5 694.5 c 128,-1,65
 237 698 237 698 258 698 c 2,66,-1
 782 698 l 2,67,68
 800 698 800 698 805 696.5 c 128,-1,69
 810 695 810 695 812 693 c 0,70,71
 817 688 817 688 817 679 c 2,72,-1
 817 678 l 1,73,-1
 815 663 l 1,74,-1
 796 556 l 2,75,76
 793 541 793 541 787.5 535.5 c 128,-1,77
 782 530 782 530 775 530 c 0,36,37
289 434 m 2,78,79
 289 431 289 431 281 401 c 1,80,-1
 620 401 l 1,81,82
 627 429 627 429 630 441 c 0,83,84
 631 446 631 446 636 450 c 128,-1,85
 641 454 641 454 649 454 c 128,-1,86
 657 454 657 454 662 449 c 128,-1,87
 667 444 667 444 668 435 c 2,88,89
 668 431 668 431 660 399.5 c 128,-1,90
 652 368 652 368 643 334 c 0,91,92
 636 306 636 306 633 293 c 128,-1,93
 630 280 630 280 624 274 c 128,-1,94
 618 268 618 268 610 268 c 128,-1,95
 602 268 602 268 597 273 c 128,-1,96
 592 278 592 278 592 288 c 0,97,98
 592 289 592 289 600 321 c 1,99,-1
 261 321 l 1,100,101
 255 295 255 295 254 292 c 0,102,103
 248 269 248 269 232 268 c 2,104,105
 223 268 223 268 218 273 c 128,-1,106
 213 278 213 278 213 287 c 128,-1,107
 213 296 213 296 217 305 c 1,108,-1
 248 427 l 2,109,110
 251 442 251 442 253 445 c 128,-1,111
 255 448 255 448 256 450 c 0,112,113
 260 454 260 454 269 454 c 128,-1,114
 278 454 278 454 283 449 c 128,-1,115
 288 444 288 444 289 434 c 2,78,79
EndSplineSet
Validated: 3073
EndChar

StartChar: Omicron
Encoding: 927 927 66
Width: 800
Flags: W
HStem: -28 41<247.461 417.895> 688 39<408.726 581.992>
VStem: 46 109<132.843 371.987> 678 103<344.912 563.312>
LayerCount: 2
Fore
SplineSet
329 13 m 0,0,1
 386 13 386 13 449.5 48 c 128,-1,2
 513 83 513 83 566 154 c 0,3,4
 622 231 622 231 650 325 c 128,-1,5
 678 419 678 419 678 482 c 0,6,7
 678 583 678 583 622 639 c 0,8,9
 573 688 573 688 500 688 c 0,10,11
 440 688 440 688 373.5 652.5 c 128,-1,12
 307 617 307 617 256 546 c 0,13,14
 202 470 202 470 178.5 378.5 c 128,-1,15
 155 287 155 287 155 227 c 0,16,17
 155 117 155 117 213 60 c 0,18,19
 259 13 259 13 329 13 c 0,0,1
781 443 m 0,20,21
 781 355 781 355 741 269 c 0,22,23
 700 180 700 180 636 116 c 128,-1,24
 572 52 572 52 491 12 c 1,25,26
 365 -28 365 -28 328 -28 c 0,27,28
 327 -28 327 -28 326 -28 c 0,29,30
 324 -28 324 -28 322 -28 c 0,31,32
 201 -28 201 -28 123.5 49.5 c 128,-1,33
 46 127 46 127 46 253 c 0,34,35
 46 369 46 369 112 479.5 c 128,-1,36
 178 590 178 590 286 658.5 c 128,-1,37
 394 727 394 727 507 727 c 0,38,39
 629 727 629 727 705 647 c 128,-1,40
 781 567 781 567 781 443 c 0,20,21
EndSplineSet
Validated: 3073
EndChar

StartChar: Pi
Encoding: 928 928 67
Width: 897
Flags: W
HStem: -5 42<45.1575 140.615 255.229 341.811 454.157 548.615 663.228 750.295> 660 41<210.641 294.741 405 714 822.386 917.778>
LayerCount: 2
Fore
SplineSet
663 44 m 0,0,1
 670 37 670 37 715 37 c 0,2,3
 733 37 733 37 739 36 c 0,4,5
 747 35 747 35 752 30.5 c 128,-1,6
 757 26 757 26 757 17 c 128,-1,7
 757 8 757 8 750.5 1.5 c 128,-1,8
 744 -5 744 -5 731 -5 c 0,9,10
 705 -5 705 -5 665 -3 c 0,11,12
 634 -2 634 -2 599 -2 c 128,-1,13
 564 -2 564 -2 534 -3 c 0,14,15
 495 -5 495 -5 469 -5 c 0,16,17
 459 -5 459 -5 454 0 c 128,-1,18
 449 5 449 5 449 15 c 0,19,20
 449 28 449 28 457.5 32.5 c 128,-1,21
 466 37 466 37 484 37 c 0,22,23
 537 37 537 37 549 44 c 128,-1,24
 561 51 561 51 567 79 c 0,25,26
 628 323 628 323 714 660 c 1,27,-1
 405 660 l 1,28,-1
 259 73 l 2,29,30
 254 56 254 56 254 51 c 0,31,32
 254 45 254 45 255 44 c 0,33,34
 262 37 262 37 311 37 c 0,35,36
 324 37 324 37 331 36 c 0,37,38
 339 35 339 35 343.5 30.5 c 128,-1,39
 348 26 348 26 348 16.5 c 128,-1,40
 348 7 348 7 342 1 c 128,-1,41
 336 -5 336 -5 323 -5 c 0,42,43
 297 -5 297 -5 256 -3 c 0,44,45
 225 -2 225 -2 190.5 -2 c 128,-1,46
 156 -2 156 -2 125 -3 c 0,47,48
 86 -5 86 -5 60 -5 c 0,49,50
 50 -5 50 -5 45 0 c 128,-1,51
 40 5 40 5 40 15 c 0,52,53
 40 28 40 28 48.5 32.5 c 128,-1,54
 57 37 57 37 76 37 c 0,55,56
 129 37 129 37 141 44 c 128,-1,57
 153 51 153 51 159 79 c 0,58,59
 206 266 206 266 295 624 c 0,60,61
 300 641 300 641 300 646 c 128,-1,62
 300 651 300 651 299 652 c 128,-1,63
 298 653 298 653 295 655 c 0,64,65
 287 660 287 660 243 660 c 0,66,67
 230 660 230 660 223 661 c 0,68,69
 215 662 215 662 210.5 666.5 c 128,-1,70
 206 671 206 671 206 680 c 0,71,72
 206 693 206 693 214 697 c 128,-1,73
 222 701 222 701 242 701 c 2,74,-1
 889 701 l 2,75,76
 900 701 900 701 906 700 c 0,77,78
 914 699 914 699 918.5 694.5 c 128,-1,79
 923 690 923 690 923 681 c 128,-1,80
 923 672 923 672 918 667 c 0,81,82
 911 660 911 660 890 660 c 0,83,84
 834 660 834 660 822 652 c 0,85,86
 810 645 810 645 803 615 c 2,87,-1
 667 74 l 2,88,89
 663 60 663 60 662 50 c 0,90,91
 662 45 662 45 663 44 c 0,0,1
255 44 m 129,-1,92
 255 44 255 44 255 44 c 129,-1,92
EndSplineSet
Validated: 3073
EndChar

StartChar: Rho
Encoding: 929 929 68
Width: 808
Flags: W
HStem: -5 42<46.1575 141.615 256.197 342.811> 317 38<327 571.338> 663 41<212.641 298.388 406.678 642.312>
VStem: 686 107<463.678 619.494>
LayerCount: 2
Fore
SplineSet
469 355 m 2,0,1
 568 355 568 355 624 405 c 0,2,3
 658 436 658 436 672 487.5 c 128,-1,4
 686 539 686 539 686 568 c 0,5,6
 686 607 686 607 663 629 c 0,7,8
 630 662 630 662 548 663 c 2,9,-1
 444 663 l 2,10,11
 412 663 412 663 406.5 657.5 c 128,-1,12
 401 652 401 652 395 627 c 2,13,-1
 327 355 l 1,14,-1
 469 355 l 2,0,1
256 44 m 0,15,16
 262 37 262 37 307 37 c 0,17,18
 325 37 325 37 332 36 c 0,19,20
 340 35 340 35 344.5 30.5 c 128,-1,21
 349 26 349 26 349 16.5 c 128,-1,22
 349 7 349 7 343 1 c 128,-1,23
 337 -5 337 -5 324 -5 c 0,24,25
 298 -5 298 -5 257 -3 c 0,26,27
 226 -2 226 -2 191.5 -2 c 128,-1,28
 157 -2 157 -2 126 -3 c 0,29,30
 87 -5 87 -5 61 -5 c 0,31,32
 51 -5 51 -5 46 0 c 128,-1,33
 41 5 41 5 41 15 c 0,34,35
 41 28 41 28 49.5 32.5 c 128,-1,36
 58 37 58 37 77 37 c 0,37,38
 130 37 130 37 142 44 c 128,-1,39
 154 51 154 51 160 79 c 0,40,41
 207 269 207 269 298 631 c 0,42,43
 302 645 302 645 302 650 c 128,-1,44
 302 655 302 655 298.5 657 c 128,-1,45
 295 659 295 659 281 661 c 128,-1,46
 267 663 267 663 249 663 c 128,-1,47
 231 663 231 663 224 664 c 128,-1,48
 217 665 217 665 212.5 669 c 128,-1,49
 208 673 208 673 208 683 c 0,50,51
 208 697 208 697 218 701 c 0,52,53
 226 704 226 704 244 704 c 2,54,-1
 582 704 l 2,55,56
 691 704 691 704 750 645 c 0,57,58
 793 602 793 602 793 544 c 0,59,60
 793 458 793 458 701.5 387.5 c 128,-1,61
 610 317 610 317 487 317 c 2,62,-1
 320 317 l 1,63,-1
 260 73 l 2,64,65
 255 56 255 56 255 51 c 128,-1,66
 255 46 255 46 256 44 c 0,15,16
256 44 m 129,-1,67
 256 44 256 44 256 44 c 129,-1,67
EndSplineSet
Validated: 3073
EndChar

StartChar: Sigma
Encoding: 931 931 69
Width: 852
Flags: W
HStem: -5 53<150 590.749> 464 21G<802.25 810.75> 663 41<347 741.317>
VStem: 725 37<211 235.78> 788 37<469.158 619.277>
LayerCount: 2
Fore
SplineSet
480 370 m 2,0,1
 487 355 487 355 487 349 c 0,2,3
 487 342 487 342 473 330 c 2,4,-1
 150 48 l 1,5,-1
 423 48 l 2,6,7
 562 48 562 48 620 84 c 128,-1,8
 678 120 678 120 725 235 c 1,9,-1
 725 236 l 1,10,-1
 730 241 l 2,11,12
 735 246 735 246 743 247 c 0,13,14
 752 247 752 247 756.5 242 c 128,-1,15
 761 237 761 237 762 228 c 1,16,-1
 762 227 l 1,17,-1
 758 211 l 1,18,-1
 758 210 l 1,19,-1
 684 17 l 2,20,21
 678 1 678 1 671.5 -2 c 128,-1,22
 665 -5 665 -5 645 -5 c 2,23,-1
 91 -5 l 2,24,25
 80 -5 80 -5 74 -4 c 0,26,27
 66 -3 66 -3 61.5 1.5 c 128,-1,28
 57 6 57 6 57 13 c 0,29,30
 57 21 57 21 72 35 c 2,31,-1
 390 311 l 1,32,-1
 229 663 l 2,33,34
 223 676 223 676 223 681 c 0,35,36
 223 696 223 696 234 701 c 0,37,38
 242 704 242 704 260 704 c 2,39,-1
 814 704 l 2,40,41
 825 704 825 704 831 703 c 0,42,43
 838 702 838 702 843 697.5 c 128,-1,44
 848 693 848 693 848 686 c 2,45,-1
 847 669 l 1,46,-1
 847 668 l 1,47,48
 826 482 826 482 825 477.5 c 128,-1,49
 824 473 824 473 819.5 468.5 c 128,-1,50
 815 464 815 464 806.5 464 c 128,-1,51
 798 464 798 464 793 469 c 128,-1,52
 788 474 788 474 788 485 c 2,53,54
 791 520 791 520 791 525.5 c 128,-1,55
 791 531 791 531 791 534 c 0,56,57
 791 613 791 613 751 638 c 128,-1,58
 711 663 711 663 593 663 c 2,59,-1
 347 663 l 1,60,-1
 480 370 l 2,0,1
EndSplineSet
Validated: 3073
EndChar

StartChar: Tau
Encoding: 932 932 70
Width: 749
Flags: W
HStem: -3 40<61.158 207.839 317.346 442.295> 458 21G<35.25 43.75 689.5 698.5> 657 41<158.113 359.999 463.095 665.422>
VStem: 685 59<548.734 684.75>
LayerCount: 2
Fore
SplineSet
162 -3 m 1,0,-1
 78 -5 l 2,1,2
 66 -5 66 -5 61 0 c 0,3,4
 55 6 55 6 55 16 c 0,5,6
 55 31 55 31 67 34 c 0,7,8
 76 37 76 37 102 37 c 0,9,10
 154 37 154 37 178 42 c 0,11,12
 203 47 203 47 208 54 c 128,-1,13
 213 61 213 61 218 82 c 0,14,15
 359 645 359 645 360 650 c 0,16,17
 360 654 360 654 357.5 655.5 c 128,-1,18
 355 657 355 657 336 657 c 2,19,-1
 296 657 l 2,20,21
 235 657 235 657 204.5 652.5 c 128,-1,22
 174 648 174 648 147 630 c 128,-1,23
 120 612 120 612 103.5 580 c 128,-1,24
 87 548 87 548 64 485 c 0,25,26
 59 470 59 470 56.5 467 c 128,-1,27
 54 464 54 464 53 463 c 0,28,29
 48 458 48 458 39.5 458 c 128,-1,30
 31 458 31 458 26.5 462.5 c 128,-1,31
 22 467 22 467 22 476 c 0,32,33
 22 480 22 480 26 495 c 2,34,-1
 89 675 l 2,35,36
 95 691 95 691 101.5 694.5 c 128,-1,37
 108 698 108 698 127 698 c 2,38,-1
 710 698 l 2,39,40
 728 698 728 698 732.5 696.5 c 128,-1,41
 737 695 737 695 739 693 c 0,42,43
 744 688 744 688 744 681.5 c 128,-1,44
 744 675 744 675 742 664 c 2,45,-1
 716 486 l 2,46,47
 714 470 714 470 708 464 c 128,-1,48
 702 458 702 458 695 458 c 0,49,50
 694 458 694 458 694 458 c 0,51,52
 685 458 685 458 680 463 c 128,-1,53
 675 468 675 468 675 477 c 2,54,-1
 675 478 l 1,55,-1
 676 486 l 1,56,57
 685 546 685 546 685 574 c 0,58,59
 685 628 685 628 657.5 642.5 c 128,-1,60
 630 657 630 657 538 657 c 0,61,62
 485 657 485 657 476 654 c 1,63,64
 466 652 466 652 463 647 c 128,-1,65
 460 642 460 642 455 623 c 2,66,-1
 317 75 l 2,67,68
 309 48 309 48 317 45 c 0,69,70
 328 40 328 40 350 38.5 c 128,-1,71
 372 37 372 37 410 37 c 2,72,-1
 426 37 l 2,73,74
 431 37 431 37 437 35 c 0,75,76
 444 33 444 33 446.5 29 c 128,-1,77
 449 25 449 25 449 16.5 c 128,-1,78
 449 8 449 8 442.5 1.5 c 128,-1,79
 436 -5 436 -5 423 -5 c 2,80,-1
 334 -3 l 1,81,82
 296 -2 296 -2 249 -2 c 2,83,-1
 162 -3 l 1,0,-1
EndSplineSet
Validated: 3073
EndChar

StartChar: YUpsilon
Encoding: 933 933 71
Width: 780
Flags: W
HStem: -3 42<108.767 204.675 312.127 398.811> 663 41<40.189 121.873 241.013 315.749 586.189 629.993 713.849 800.358>
LayerCount: 2
Fore
SplineSet
603 704 m 2,0,-1
 703 701 l 2,1,2
 726 701 726 701 745 702 c 128,-1,3
 764 703 764 703 772 703 c 2,4,-1
 782 703 l 1,5,-1
 786 704 l 1,6,-1
 787 704 l 1,7,8
 796 704 796 704 800.5 699 c 128,-1,9
 805 694 805 694 806 686 c 2,10,11
 806 674 806 674 801 669 c 128,-1,12
 796 664 796 664 788 663 c 0,13,14
 759 661 759 661 744 657 c 128,-1,15
 729 653 729 653 703 636 c 0,16,17
 669 614 669 614 634 576 c 2,18,-1
 377 288 l 1,19,-1
 376 288 l 1,20,-1
 366 278 l 1,21,22
 353 222 353 222 338.5 166 c 128,-1,23
 324 110 324 110 324 109 c 0,24,25
 311 60 311 60 311 50 c 0,26,27
 311 45 311 45 312 44 c 0,28,29
 316 40 316 40 330 39 c 2,30,-1
 331 39 l 2,31,32
 347 37 347 37 364.5 37 c 128,-1,33
 382 37 382 37 388 36 c 0,34,35
 395 35 395 35 400 30.5 c 128,-1,36
 405 26 405 26 405 16.5 c 128,-1,37
 405 7 405 7 399 1 c 128,-1,38
 393 -5 393 -5 380 -5 c 0,39,40
 355 -5 355 -5 314 -3 c 0,41,42
 276 -2 276 -2 246 -2 c 128,-1,43
 216 -2 216 -2 194 -3 c 0,44,45
 150 -5 150 -5 121 -5 c 0,46,47
 111 -5 111 -5 106 0 c 128,-1,48
 101 5 101 5 100 13 c 2,49,50
 100 28 100 28 108.5 32.5 c 128,-1,51
 117 37 117 37 133 37 c 0,52,53
 195 38 195 38 205 48 c 128,-1,54
 215 58 215 58 223 93 c 0,55,56
 248 192 248 192 258.5 234 c 128,-1,57
 269 276 269 276 269 278 c 0,58,59
 269 281 269 281 264 293 c 2,60,-1
 131 632 l 2,61,62
 126 647 126 647 122 651 c 128,-1,63
 118 655 118 655 104.5 659 c 128,-1,64
 91 663 91 663 62 663 c 0,65,66
 45 663 45 663 38 670 c 0,67,68
 34 674 34 674 34 680 c 0,69,70
 34 681 34 681 34 681 c 0,71,72
 34 691 34 691 40 697.5 c 128,-1,73
 46 704 46 704 58 704 c 0,74,75
 82 704 82 704 115 702 c 0,76,77
 140 701 140 701 175 701 c 2,78,-1
 180 701 l 1,79,-1
 192 701 l 1,80,-1
 224 702 l 1,81,-1
 239 702 l 1,82,-1
 303 704 l 2,83,84
 314 704 314 704 319 699 c 128,-1,85
 324 694 324 694 324 684 c 0,86,87
 324 671 324 671 316 667 c 128,-1,88
 308 663 308 663 294 663 c 0,89,90
 241 663 241 663 241 644 c 0,91,92
 241 641 241 641 247 628 c 2,93,-1
 363 331 l 1,94,-1
 601 597 l 2,95,96
 611 609 611 609 616.5 616.5 c 128,-1,97
 622 624 622 624 626 632 c 128,-1,98
 630 640 630 640 630 645 c 0,99,100
 630 659 630 659 602 663 c 0,101,102
 591 663 591 663 585.5 668 c 128,-1,103
 580 673 580 673 580 682.5 c 128,-1,104
 580 692 580 692 586 698 c 128,-1,105
 592 704 592 704 603 704 c 2,0,-1
312 44 m 129,-1,106
 312 44 312 44 312 44 c 129,-1,106
EndSplineSet
Validated: 3073
EndChar

StartChar: Phi
Encoding: 934 934 72
Width: 701
Flags: W
HStem: -5 42<95.158 225.324 328.645 436.811> 134 35<193.951 249 353 418.819> 531 34<451 503.515> 663 41<262.705 371.871 474.191 604.842>
VStem: 20 105<238.521 389.099> 576 105<306.8 460.202>
LayerCount: 2
Fore
SplineSet
353 170 m 1,0,1
 411 178 411 178 454 201 c 0,2,3
 501 227 501 227 523.5 255.5 c 128,-1,4
 546 284 546 284 559 319.5 c 128,-1,5
 572 355 572 355 574 373 c 128,-1,6
 576 391 576 391 576 406 c 0,7,8
 576 458 576 458 545 488 c 0,9,10
 512 521 512 521 442 531 c 1,11,-1
 353 170 l 1,0,1
125 294 m 0,12,13
 125 236 125 236 163 207 c 1,14,15
 195 177 195 177 257 169 c 1,16,-1
 347 530 l 1,17,18
 295 524 295 524 256 504 c 0,19,20
 211 481 211 481 187.5 454 c 128,-1,21
 164 427 164 427 149 393.5 c 128,-1,22
 134 360 134 360 129.5 337 c 128,-1,23
 125 314 125 314 125 294 c 0,12,13
342 -3 m 1,24,-1
 263 -2 l 2,25,26
 209 -2 209 -2 181.5 -3.5 c 128,-1,27
 154 -5 154 -5 112 -5 c 0,28,29
 100 -5 100 -5 95 0 c 128,-1,30
 90 5 90 5 89 13 c 2,31,32
 89 28 89 28 99 33 c 0,33,34
 108 37 108 37 127 37 c 0,35,36
 177 37 177 37 198 42 c 0,37,38
 220 47 220 47 225.5 54 c 128,-1,39
 231 61 231 61 237 86 c 0,40,41
 241 104 241 104 249 134 c 1,42,43
 132 144 132 144 66 209 c 0,44,45
 20 255 20 255 20 315 c 0,46,47
 20 406 20 406 121 480.5 c 128,-1,48
 222 555 222 555 357 566 c 1,49,-1
 376 647 l 1,50,51
 376 654 376 654 372 656.5 c 128,-1,52
 368 659 368 659 346.5 661 c 128,-1,53
 325 663 325 663 296 663 c 2,54,-1
 280 663 l 2,55,56
 274 663 274 663 268 665 c 0,57,58
 260 667 260 667 258 671 c 128,-1,59
 256 675 256 675 256 683 c 128,-1,60
 256 691 256 691 262.5 697.5 c 128,-1,61
 269 704 269 704 283 704 c 2,62,-1
 358 702 l 1,63,-1
 437 701 l 2,64,65
 491 701 491 701 518.5 702.5 c 128,-1,66
 546 704 546 704 589 704 c 0,67,68
 600 704 600 704 605 699 c 128,-1,69
 610 694 610 694 610 684 c 0,70,71
 610 670 610 670 600 666 c 0,72,73
 593 663 593 663 568 663 c 0,74,75
 520 663 520 663 501 658 c 0,76,77
 480 652 480 652 474 645 c 0,78,79
 469 638 469 638 463 611 c 2,80,-1
 451 565 l 1,81,82
 549 556 549 556 614 507 c 0,83,84
 681 456 681 456 681 385 c 0,85,86
 681 292 681 292 578 217.5 c 128,-1,87
 475 143 475 143 343 133 c 1,88,89
 325 60 325 60 324 53 c 0,90,91
 324 46 324 46 328.5 43.5 c 128,-1,92
 333 41 333 41 355.5 39 c 128,-1,93
 378 37 378 37 399 37 c 128,-1,94
 420 37 420 37 426 36 c 0,95,96
 433 35 433 35 438 30.5 c 128,-1,97
 443 26 443 26 443 16.5 c 128,-1,98
 443 7 443 7 437 1 c 128,-1,99
 431 -5 431 -5 418 -5 c 2,100,-1
 342 -3 l 1,24,-1
EndSplineSet
Validated: 3073
EndChar

StartChar: Chi
Encoding: 935 935 73
Width: 868
Flags: W
HStem: -5 42<31.2207 129.61 229.253 270.811 489.189 556.842 683.612 765.811> 663 41<212.189 294.388 419.638 487.812 648.189 694.484 789.939 888.295>
LayerCount: 2
Fore
SplineSet
410 702 m 1,0,-1
 474 704 l 2,1,2
 484 704 484 704 489 699 c 128,-1,3
 494 694 494 694 494 684.5 c 128,-1,4
 494 675 494 675 488 669 c 128,-1,5
 482 663 482 663 472 663 c 0,6,7
 454 662 454 662 441 656 c 0,8,9
 426 649 426 649 421.5 644.5 c 128,-1,10
 417 640 417 640 417 638 c 0,11,12
 417 635 417 635 422 627 c 2,13,-1
 510 429 l 1,14,-1
 672 599 l 2,15,16
 695 622 695 622 695 637 c 2,17,-1
 695 638 l 2,18,19
 695 659 695 659 662 663 c 0,20,21
 653 663 653 663 648 668 c 128,-1,22
 643 673 643 673 642 681 c 2,23,24
 642 692 642 692 648 698 c 128,-1,25
 654 704 654 704 667 704 c 2,26,-1
 723 702 l 1,27,-1
 779 701 l 2,28,29
 819 701 819 701 828 702 c 2,30,-1
 876 704 l 2,31,32
 885 704 885 704 890 699 c 128,-1,33
 895 694 895 694 895 685.5 c 128,-1,34
 895 677 895 677 888.5 670.5 c 128,-1,35
 882 664 882 664 866 663 c 0,36,37
 826 660 826 660 793 644 c 128,-1,38
 760 628 760 628 742 612 c 0,39,40
 719 592 719 592 680 553 c 0,41,42
 660 530 660 530 634 504 c 0,43,44
 630 500 630 500 589 457 c 0,45,46
 542 406 542 406 526 391 c 1,47,-1
 673 65 l 2,48,49
 680 52 680 52 683.5 48 c 128,-1,50
 687 44 687 44 701 40.5 c 128,-1,51
 715 37 715 37 742 37 c 0,52,53
 760 37 760 37 767 30 c 0,54,55
 772 25 772 25 772 16 c 128,-1,56
 772 7 772 7 766 1 c 128,-1,57
 760 -5 760 -5 748 -5 c 2,58,59
 663 -2 663 -2 631 -2 c 2,60,61
 630 -2 630 -2 568 -3 c 1,62,-1
 504 -5 l 2,63,64
 494 -5 494 -5 489 0 c 128,-1,65
 484 5 484 5 483 13 c 2,66,67
 483 24 483 24 489 30 c 128,-1,68
 495 36 495 36 506 37 c 0,69,70
 524 38 524 38 538 44 c 128,-1,71
 552 50 552 50 557 55 c 2,72,73
 557 56 557 56 561 62 c 1,74,75
 561 65 561 65 557 73 c 2,76,-1
 450 312 l 1,77,78
 421 280 421 280 397 255 c 0,79,80
 346 202 346 202 326 182 c 0,81,82
 268 122 268 122 267 122 c 0,83,84
 240 93 240 93 232 82 c 128,-1,85
 224 71 224 71 224 62 c 128,-1,86
 224 53 224 53 229 47 c 0,87,88
 237 39 237 39 258 37 c 0,89,90
 267 37 267 37 272 32 c 128,-1,91
 277 27 277 27 277 17 c 128,-1,92
 277 7 277 7 271 1 c 128,-1,93
 265 -5 265 -5 252 -5 c 2,94,-1
 196 -3 l 1,95,-1
 140 -2 l 2,96,97
 109 -2 109 -2 78 -3.5 c 128,-1,98
 47 -5 47 -5 44 -5 c 0,99,100
 35 -5 35 -5 30 0 c 128,-1,101
 25 5 25 5 25 13.5 c 128,-1,102
 25 22 25 22 31 29 c 0,103,104
 38 36 38 36 53 37 c 0,105,106
 93 40 93 40 126.5 56 c 128,-1,107
 160 72 160 72 179.5 88.5 c 128,-1,108
 199 105 199 105 238 145 c 0,109,110
 244 151 244 151 262.5 171 c 128,-1,111
 281 191 281 191 292.5 202.5 c 128,-1,112
 304 214 304 214 364 277 c 128,-1,113
 424 340 424 340 432 350 c 0,114,115
 431 352 431 352 428 360 c 2,116,-1
 305 634 l 2,117,118
 298 647 298 647 294.5 651 c 128,-1,119
 291 655 291 655 277 659 c 128,-1,120
 263 663 263 663 236 663 c 0,121,122
 217 663 217 663 210 670 c 0,123,124
 206 674 206 674 206 683 c 128,-1,125
 206 692 206 692 212 698 c 128,-1,126
 218 704 218 704 230 704 c 2,127,128
 315 701 315 701 347 701 c 2,129,-1
 410 702 l 1,0,-1
EndSplineSet
Validated: 3073
EndChar

StartChar: Psi
Encoding: 936 936 74
Width: 717
Flags: W
HStem: -5 42<72.158 202.809 306.13 414.295> 135 37<195.027 226> 538 34<28.6425 57.4407 699.343 732.995> 663 41<240.705 348.871 463.481 581.842>
VStem: 53 89<228.201 449.697> 74 93<346.384 533.014>
LayerCount: 2
Fore
SplineSet
319 -3 m 1,0,-1
 241 -2 l 2,1,2
 187 -2 187 -2 159.5 -3.5 c 128,-1,3
 132 -5 132 -5 89 -5 c 0,4,5
 77 -5 77 -5 72 0 c 128,-1,6
 67 5 67 5 67 15 c 0,7,8
 67 28 67 28 76 32.5 c 128,-1,9
 85 37 85 37 104 37 c 0,10,11
 155 37 155 37 175 41 c 0,12,13
 197 46 197 46 203 54 c 0,14,15
 210 64 210 64 226 135 c 1,16,17
 146 147 146 147 103 190 c 0,18,19
 53 240 53 240 53 330 c 0,20,21
 53 373 53 373 66 426 c 0,22,23
 74 459 74 459 74 487 c 0,24,25
 74 519 74 519 63 530 c 0,26,27
 57 536 57 536 45 538 c 128,-1,28
 33 540 33 540 28.5 544.5 c 128,-1,29
 24 549 24 549 24 556 c 128,-1,30
 24 563 24 563 27 566.5 c 128,-1,31
 30 570 30 570 35 572 c 128,-1,32
 40 574 40 574 58 573 c 2,33,-1
 87 573 l 2,34,35
 101 573 101 573 111.5 571.5 c 128,-1,36
 122 570 122 570 132 564.5 c 128,-1,37
 142 559 142 559 148 553 c 128,-1,38
 154 547 154 547 159 534 c 0,39,40
 167 515 167 515 167 483.5 c 128,-1,41
 167 452 167 452 156 405 c 0,42,43
 143 355 143 355 142 311 c 0,44,45
 142 195 142 195 236 172 c 1,46,-1
 350 628 l 2,47,48
 353 638 353 638 353 645 c 0,49,50
 353 653 353 653 349 656 c 128,-1,51
 345 659 345 659 324 661 c 128,-1,52
 303 663 303 663 273 663 c 2,53,54
 274 663 274 663 258 663 c 2,55,56
 253 663 253 663 246 665 c 0,57,58
 238 667 238 667 236 671 c 128,-1,59
 234 675 234 675 234 683 c 128,-1,60
 234 691 234 691 240.5 697.5 c 128,-1,61
 247 704 247 704 260 704 c 2,62,-1
 336 702 l 1,63,-1
 415 701 l 2,64,65
 469 701 469 701 496 702.5 c 128,-1,66
 523 704 523 704 566 704 c 0,67,68
 577 704 577 704 582 699 c 128,-1,69
 587 694 587 694 588 684 c 0,70,71
 588 669 588 669 577 666 c 0,72,73
 569 663 569 663 545 663 c 0,74,75
 478 663 478 663 463 655 c 0,76,77
 449 647 449 647 442 617 c 2,78,-1
 331 174 l 1,79,80
 477 212 477 212 530 417 c 0,81,82
 555 510 555 510 589 541.5 c 128,-1,83
 623 573 623 573 670 573 c 2,84,-1
 699 573 l 2,85,86
 710 573 710 573 716 572 c 0,87,88
 723 571 723 571 728 566.5 c 128,-1,89
 733 562 733 562 733 555 c 0,90,91
 733 540 733 540 712 538 c 0,92,93
 656 531 656 531 622 412 c 0,94,95
 589 291 589 291 516 221 c 0,96,97
 435 145 435 145 320 133 c 1,98,99
 302 56 302 56 302 52 c 0,100,101
 302 46 302 46 306 43.5 c 128,-1,102
 310 41 310 41 333 39 c 128,-1,103
 356 37 356 37 376.5 37 c 128,-1,104
 397 37 397 37 404 36 c 0,105,106
 412 35 412 35 416.5 30.5 c 128,-1,107
 421 26 421 26 421 17 c 128,-1,108
 421 8 421 8 414.5 1.5 c 128,-1,109
 408 -5 408 -5 395 -5 c 2,110,-1
 319 -3 l 1,0,-1
EndSplineSet
Validated: 3073
EndChar

StartChar: Omega
Encoding: 937 937 75
Width: 843
Flags: W
HStem: -5 76<123.289 256.891 539 683.043> 691 36<464.052 636.534>
VStem: 80 40<75.0963 169.998> 163 107<294.826 499.637> 257 40<71.375 166.851> 717 38<119.75 164.843> 720 108<431.315 601.665>
LayerCount: 2
Fore
SplineSet
163 409 m 0,0,1
 163 517 163 517 252 605 c 0,2,3
 302 655 302 655 370 687 c 0,4,5
 459 727 459 727 556 727 c 0,6,7
 693 727 693 727 770 650 c 0,8,9
 828 592 828 592 828 512 c 0,10,11
 828 463 828 463 800 406.5 c 128,-1,12
 772 350 772 350 742.5 314.5 c 128,-1,13
 713 279 713 279 664 227 c 0,14,15
 573 134 573 134 539 71 c 1,16,-1
 611 71 l 2,17,18
 661 71 661 71 671 77 c 0,19,20
 680 83 680 83 714 149 c 0,21,22
 717 155 717 155 717 158 c 0,23,24
 721 168 721 168 729 169 c 0,25,26
 732 170 732 170 735 170 c 0,27,28
 745 170 745 170 749.5 165 c 128,-1,29
 754 160 754 160 755 152 c 2,30,31
 755 148 755 148 687 13 c 0,32,33
 680 1 680 1 674.5 -2 c 128,-1,34
 669 -5 669 -5 650 -5 c 2,35,-1
 514 -5 l 2,36,37
 503 -5 503 -5 497 -4 c 0,38,39
 489 -3 489 -3 484.5 1.5 c 128,-1,40
 480 6 480 6 480 13 c 0,41,42
 480 42 480 42 518 116 c 0,43,44
 535 151 535 151 585.5 230 c 128,-1,45
 636 309 636 309 656.5 343.5 c 128,-1,46
 677 378 677 378 698.5 433.5 c 128,-1,47
 720 489 720 489 720 535 c 0,48,49
 720 611 720 611 672.5 651 c 128,-1,50
 625 691 625 691 556 691 c 0,51,52
 474 691 474 691 401 639 c 0,53,54
 363 612 363 612 334 576 c 128,-1,55
 305 540 305 540 287.5 486.5 c 128,-1,56
 270 433 270 433 270 377 c 128,-1,57
 270 321 270 321 283 251 c 1,58,59
 297 149 297 149 297 109.5 c 128,-1,60
 297 70 297 70 291 36 c 0,61,62
 287 7 287 7 280 1 c 128,-1,63
 273 -5 273 -5 251 -5 c 2,64,-1
 115 -5 l 2,65,66
 91 -5 91 -5 85.5 0.5 c 128,-1,67
 80 6 80 6 80 31 c 2,68,-1
 80 134 l 2,69,70
 80 152 80 152 81.5 157.5 c 128,-1,71
 83 163 83 163 86 165 c 0,72,73
 91 170 91 170 100 170 c 0,74,75
 114 170 114 170 117 161 c 0,76,77
 119 154 119 154 119 129.5 c 128,-1,78
 119 105 119 105 120 91.5 c 128,-1,79
 121 78 121 78 123 75 c 1,80,81
 132 71 132 71 174 71 c 2,82,-1
 257 71 l 1,83,84
 256 107 256 107 247 139 c 128,-1,85
 238 171 238 171 213 227 c 1,86,-1
 187 290 l 2,87,88
 178 312 178 312 170.5 345 c 128,-1,89
 163 378 163 378 163 409 c 0,0,1
EndSplineSet
Validated: 3073
EndChar

StartChar: alpha
Encoding: 945 945 76
Width: 673
Flags: W
HStem: -16 35<162.997 308.949 519.421 572.333> 422 36<261.415 373.757>
VStem: 39 89<69.3735 251.072> 423.5 84.5<106.669 166.924 198 355.062> 588 40<32.8069 73.3585> 600 37<340.236 402.844>
LayerCount: 2
Fore
SplineSet
324 422 m 0,0,1
 285 422 285 422 247 396 c 128,-1,2
 209 370 209 370 187 334 c 0,3,4
 159 290 159 290 143.5 227 c 128,-1,5
 128 164 128 164 128 126 c 0,6,7
 128 70 128 70 156 42 c 0,8,9
 179 19 179 19 218 19 c 0,10,11
 320 19 320 19 426 106 c 1,12,13
 424 127 424 127 423.5 200 c 128,-1,14
 423 273 423 273 419 303 c 0,15,16
 402 422 402 422 324 422 c 0,0,1
39 164 m 0,17,18
 39 279 39 279 131 371 c 0,19,20
 218 458 218 458 324 458 c 0,21,22
 400 458 400 458 453.5 403.5 c 128,-1,23
 507 349 507 349 508 241 c 2,24,-1
 508 198 l 1,25,26
 568 282 568 282 596 384 c 0,27,28
 599 394 599 394 600 397 c 0,29,30
 604 407 604 407 618 407 c 0,31,32
 627 407 627 407 632 403 c 0,33,34
 637 398 637 398 637 392 c 128,-1,35
 637 386 637 386 632 367.5 c 128,-1,36
 627 349 627 349 615.5 318.5 c 128,-1,37
 604 288 604 288 589 260 c 0,38,39
 560 204 560 204 517 150 c 0,40,41
 509 140 509 140 509 126 c 0,42,43
 509 42 509 42 527 23 c 0,44,45
 531 19 531 19 537 19 c 0,46,47
 550 19 550 19 565.5 30.5 c 128,-1,48
 581 42 581 42 588 61 c 0,49,50
 593 78 593 78 608 78 c 0,51,52
 618 78 618 78 622.5 73.5 c 128,-1,53
 627 69 627 69 628 61 c 2,54,55
 628 40 628 40 600 12 c 128,-1,56
 572 -16 572 -16 533 -16 c 0,57,58
 492 -16 492 -16 464 12 c 0,59,60
 443 33 443 33 433 67 c 1,61,62
 323 -16 323 -16 215 -16 c 0,63,64
 138 -16 138 -16 88.5 33.5 c 128,-1,65
 39 83 39 83 39 164 c 0,17,18
EndSplineSet
Validated: 3073
EndChar

StartChar: beta
Encoding: 946 946 77
Width: 620
Flags: W
HStem: -204 21G<41 53> -16 36<206.775 350.005> 373 35<334.221 380.751> 411 35<335.606 379.7> 692 36<376.42 503.25>
VStem: 27 37<-203.992 -167.435> 484 79<159.085 349.705> 534 71<509.611 663.169>
LayerCount: 2
Fore
SplineSet
278 407 m 2,0,1
 278 446 278 446 362 446 c 2,2,-1
 367 446 l 2,3,4
 413 446 413 446 447 434 c 1,5,6
 483 452 483 452 508.5 503 c 128,-1,7
 534 554 534 554 534 603 c 0,8,9
 534 650 534 650 508 671 c 128,-1,10
 482 692 482 692 442 692 c 128,-1,11
 402 692 402 692 366 668 c 0,12,13
 329 644 329 644 301 606 c 0,14,15
 248 531 248 531 228 456 c 1,16,-1
 159 176 l 2,17,18
 156 166 156 166 156 144 c 0,19,20
 156 85 156 85 191 50 c 0,21,22
 221 20 221 20 272 20 c 0,23,24
 354 20 354 20 417 88 c 0,25,26
 484 161 484 161 484 279 c 2,27,-1
 484 283 l 2,28,29
 484 358 484 358 444 387 c 1,30,31
 390 373 390 373 354 373 c 0,32,33
 278 373 278 373 278 406 c 2,34,-1
 278 407 l 2,0,1
271 -16 m 0,35,36
 172 -16 172 -16 131 71 c 1,37,-1
 64 -196 l 1,38,39
 61 -204 61 -204 45 -204 c 0,40,41
 37 -204 37 -204 32 -198.5 c 128,-1,42
 27 -193 27 -193 27 -189 c 0,43,44
 27 -188 27 -188 27 -186 c 2,45,-1
 188 458 l 1,46,47
 241 644 241 644 365 707 c 0,48,49
 402 727 402 727 442 728 c 1,50,51
 522 728 522 728 563.5 686.5 c 128,-1,52
 605 645 605 645 605 587.5 c 128,-1,53
 605 530 605 530 567 479 c 0,54,55
 533 432 533 432 493 409 c 1,56,57
 524 387 524 387 543.5 345 c 128,-1,58
 563 303 563 303 563 254 c 0,59,60
 563 149 563 149 484 73 c 0,61,62
 392 -16 392 -16 271 -16 c 0,35,36
334 410 m 1,63,64
 344 409 344 409 358 408 c 0,65,66
 369 408 369 408 381 410 c 1,67,68
 367 411 367 411 355.5 411 c 128,-1,69
 344 411 344 411 334 410 c 1,63,64
EndSplineSet
Validated: 3073
EndChar

StartChar: gamma
Encoding: 947 947 78
Width: 588
Flags: W
HStem: 372 86<139.586 290.106>
VStem: 13 39<255.156 303.228>
LayerCount: 2
Fore
SplineSet
538 437 m 0,0,1
 543 446 543 446 553.5 446 c 128,-1,2
 564 446 564 446 568.5 441.5 c 128,-1,3
 573 437 573 437 573 430 c 0,4,5
 573 425 573 425 555 391 c 0,6,7
 513 308 513 308 477.5 220.5 c 128,-1,8
 442 133 442 133 425.5 86.5 c 128,-1,9
 409 40 409 40 408 32 c 0,10,11
 393 -72 393 -72 369 -160 c 0,12,13
 361 -190 361 -190 353.5 -204 c 128,-1,14
 346 -218 346 -218 344 -220.5 c 128,-1,15
 342 -223 342 -223 341 -223 c 0,16,17
 337 -226 337 -226 329.5 -226 c 128,-1,18
 322 -226 322 -226 316.5 -220 c 128,-1,19
 311 -214 311 -214 310 -199 c 2,20,21
 310 -158 310 -158 365 27 c 1,22,23
 374 52 374 52 374 115 c 0,24,25
 374 139 374 139 372.5 157.5 c 128,-1,26
 371 176 371 176 366.5 210 c 128,-1,27
 362 244 362 244 351 269.5 c 128,-1,28
 340 295 340 295 322 320 c 0,29,30
 305 344 305 344 276 358 c 128,-1,31
 247 372 247 372 209 372 c 0,32,33
 176 372 176 372 130 352 c 0,34,35
 105 341 105 341 83.5 318.5 c 128,-1,36
 62 296 62 296 52 263 c 0,37,38
 50 258 50 258 45.5 254 c 128,-1,39
 41 250 41 250 32 250 c 128,-1,40
 23 250 23 250 18 255 c 128,-1,41
 13 260 13 260 13 266 c 0,42,43
 13 281 13 281 28 311.5 c 128,-1,44
 43 342 43 342 67 374 c 0,45,46
 92 407 92 407 134 432.5 c 128,-1,47
 176 458 176 458 222 458 c 0,48,49
 314 458 314 458 363 353 c 0,50,51
 404 265 404 265 412 158 c 1,52,53
 451 258 451 258 467 294 c 0,54,55
 510 388 510 388 538 437 c 0,0,1
EndSplineSet
Validated: 3073
EndChar

StartChar: delta
Encoding: 948 948 79
Width: 492
Flags: W
HStem: -17 35<159.04 258.531> 635 88<379.338 462.649> 688 46<259.894 364.277>
VStem: 39 78<68.4366 253.382> 205 42<592.195 675.109> 340 86<158.626 350.854>
LayerCount: 2
Fore
SplineSet
117 134 m 0,0,1
 117 74 117 74 145.5 46 c 128,-1,2
 174 18 174 18 212 18 c 0,3,4
 251 18 251 18 282 60 c 128,-1,5
 313 102 313 102 326.5 153 c 128,-1,6
 340 204 340 204 340 247 c 0,7,8
 340 320 340 320 287 416 c 1,9,10
 242 403 242 403 205.5 366.5 c 128,-1,11
 169 330 169 330 151 285 c 0,12,13
 117 200 117 200 117 134 c 0,0,1
205 624 m 2,14,15
 205 657 205 657 226 691 c 0,16,17
 238 711 238 711 264.5 722.5 c 128,-1,18
 291 734 291 734 326.5 734 c 128,-1,19
 362 734 362 734 412 723 c 0,20,21
 452 715 452 715 463 708 c 0,22,23
 477 701 477 701 477 682 c 128,-1,24
 477 663 477 663 463 649 c 128,-1,25
 449 635 449 635 431 635 c 0,26,27
 417 635 417 635 369 663 c 1,28,29
 331 688 331 688 300 688 c 2,30,-1
 298 688 l 2,31,32
 272 688 272 688 259.5 675.5 c 128,-1,33
 247 663 247 663 247 648 c 0,34,35
 247 605 247 605 348 480 c 0,36,37
 371 452 371 452 383.5 433 c 128,-1,38
 396 414 396 414 411 373.5 c 128,-1,39
 426 333 426 333 426 289 c 0,40,41
 426 174 426 174 364 79 c 0,42,43
 302 -17 302 -17 213 -17 c 0,44,45
 137 -17 137 -17 87 34 c 0,46,47
 39 82 39 82 39 163 c 0,48,49
 39 278 39 278 133 372 c 0,50,51
 193 432 193 432 266 449 c 1,52,53
 205 559 205 559 205 622 c 2,54,-1
 205 624 l 2,14,15
EndSplineSet
Validated: 3073
EndChar

StartChar: varepsilon
Encoding: 949 949 80
Width: 488
Flags: W
HStem: -28 62<98.4013 306.04> 211 36<220.224 263.593> 249 36<219.357 263.719> 408 61<194.379 384.989>
VStem: 24 38<70.7224 166.505> 74 39<276.675 356.803>
LayerCount: 2
Fore
SplineSet
264 248 m 1,0,1
 254 249 254 249 245 249 c 0,2,3
 231 249 231 249 219 247 c 1,4,5
 228 247 228 247 236 247 c 0,6,7
 251 247 251 247 264 248 c 1,0,1
247 285 m 0,8,9
 328 285 328 285 328 250 c 0,10,11
 328 211 328 211 238 211 c 0,12,13
 185 211 185 211 147 225 c 1,14,15
 109 207 109 207 85.5 174 c 128,-1,16
 62 141 62 141 62 115 c 0,17,18
 62 103 62 103 66.5 92 c 128,-1,19
 71 81 71 81 85 66 c 0,20,21
 98 52 98 52 130.5 43 c 128,-1,22
 163 34 163 34 211 34 c 0,23,24
 333 34 333 34 366 85 c 0,25,26
 376 102 376 102 384.5 102 c 128,-1,27
 393 102 393 102 397.5 97.5 c 128,-1,28
 402 93 402 93 402 85 c 0,29,30
 402 71 402 71 382 46 c 0,31,32
 362 22 362 22 312.5 -3 c 128,-1,33
 263 -28 263 -28 200 -28 c 0,34,35
 110 -28 110 -28 59 23 c 0,36,37
 24 58 24 58 24 107 c 128,-1,38
 24 156 24 156 54 193 c 0,39,40
 80 226 80 226 111 246 c 1,41,42
 74 274 74 274 74 316 c 0,43,44
 74 375 74 375 146.5 422 c 128,-1,45
 219 469 219 469 313 469 c 0,46,47
 363 469 363 469 399 450 c 0,48,49
 431 435 431 435 442 423.5 c 128,-1,50
 453 412 453 412 454 403 c 2,51,52
 454 389 454 389 442.5 379.5 c 128,-1,53
 431 370 431 370 421 370 c 0,54,55
 410 370 410 370 397 378 c 0,56,57
 355 408 355 408 302 408 c 0,58,59
 226 408 226 408 169 381 c 0,60,61
 113 355 113 355 113 316 c 0,62,63
 113 285 113 285 148 266 c 1,64,65
 194 284 194 284 247 285 c 0,8,9
EndSplineSet
Validated: 3073
EndChar

StartChar: zeta
Encoding: 950 950 81
Width: 515
Flags: W
HStem: -215 36<239.182 327.126> 563 35<385.56 429.686> 601 36<385.57 429.999>
VStem: 43 71<109.594 303.797> 305 39<628.251 713.843> 343 68<-157.544 -75.7285>
LayerCount: 2
Fore
SplineSet
431 600 m 1,0,1
 418 601 418 601 406.5 601 c 128,-1,2
 395 601 395 601 385 600 c 1,3,4
 394 598 394 598 405.5 598 c 128,-1,5
 417 598 417 598 431 600 c 1,0,1
305 660 m 2,6,7
 305 718 305 718 330 719 c 2,8,9
 339 719 339 719 344 714 c 128,-1,10
 349 709 349 709 349 700 c 0,11,12
 349 699 349 699 346.5 686.5 c 128,-1,13
 344 674 344 674 344 657 c 128,-1,14
 344 640 344 640 348 628 c 1,15,16
 374 637 374 637 411 637 c 0,17,18
 500 637 500 637 500 602 c 0,19,20
 500 563 500 563 400 563 c 2,21,22
 357 564 357 564 335 582 c 1,23,24
 253 533 253 533 183.5 422 c 128,-1,25
 114 311 114 311 114 201 c 0,26,27
 114 130 114 130 145 99 c 0,28,29
 150 94 150 94 157 89 c 0,30,31
 181 72 181 72 198 64.5 c 128,-1,32
 215 57 215 57 249 46 c 0,33,34
 268 39 268 39 284 34 c 0,35,36
 319 23 319 23 334 18 c 0,37,38
 411 -11 411 -11 411 -86 c 0,39,40
 411 -134 411 -134 376 -174 c 0,41,42
 341 -215 341 -215 293 -215 c 0,43,44
 256 -215 256 -215 221 -195 c 0,45,46
 201 -184 201 -184 192.5 -176 c 128,-1,47
 184 -168 184 -168 184 -160.5 c 128,-1,48
 184 -153 184 -153 188.5 -148.5 c 128,-1,49
 193 -144 193 -144 202 -143 c 2,50,51
 210 -143 210 -143 218 -151 c 0,52,53
 266 -176 266 -176 290 -179 c 1,54,-1
 293 -179 l 2,55,56
 314 -179 314 -179 328.5 -159.5 c 128,-1,57
 343 -140 343 -140 343 -119 c 0,58,59
 343 -95 343 -95 330 -82 c 0,60,61
 325 -77 325 -77 314.5 -71 c 128,-1,62
 304 -65 304 -65 292.5 -60.5 c 128,-1,63
 281 -56 281 -56 256 -48 c 0,64,65
 174 -22 174 -22 147 -9 c 0,66,67
 116 5 116 5 89 34 c 0,68,69
 43 85 43 85 43 172 c 0,70,71
 43 305 43 305 128 431 c 0,72,73
 211 555 211 555 314 612 c 1,74,75
 305 632 305 632 305 660 c 2,6,7
EndSplineSet
Validated: 3073
EndChar

StartChar: eta
Encoding: 951 951 82
Width: 543
Flags: W
HStem: -16 21G<108.5 132.5> 422 36<105.522 157.068 328.116 434.53>
VStem: 80 78<-5.17126 88.6094> 449 79<246.938 411.755>
LayerCount: 2
Fore
SplineSet
243 376 m 1,0,1
 310 458 310 458 401 458 c 0,2,3
 453 458 453 458 490 431 c 0,4,5
 528 404 528 404 528 340 c 0,6,7
 528 314 528 314 520 282 c 2,8,-1
 404 -180 l 2,9,10
 393 -226 393 -226 356 -226 c 0,11,12
 339 -226 339 -226 329.5 -216.5 c 128,-1,13
 320 -207 320 -207 320 -191 c 0,14,15
 320 -182 320 -182 324 -168 c 2,16,-1
 439 291 l 1,17,18
 448 331 448 331 449 355 c 0,19,20
 449 393 449 393 433 410 c 0,21,22
 421 422 421 422 398 422 c 0,23,24
 339 422 339 422 293 379 c 0,25,26
 277 363 277 363 262 343 c 0,27,28
 238 311 238 311 230 291 c 0,29,30
 229 286 229 286 216 232 c 0,31,32
 215 227 215 227 199 160 c 1,33,-1
 175 69 l 2,34,35
 162 14 162 14 158 7 c 0,36,37
 146 -16 146 -16 119 -16 c 2,38,-1
 117 -16 l 2,39,40
 100 -16 100 -16 90 -5.5 c 128,-1,41
 80 5 80 5 80 18 c 0,42,43
 80 24 80 24 87 49 c 2,44,-1
 128 218 l 2,45,46
 130 223 130 223 134 237 c 0,47,48
 142 273 142 273 150 300 c 0,49,50
 164 361 164 361 164 379 c 0,51,52
 164 406 164 406 154 416 c 0,53,54
 148 422 148 422 138 422 c 0,55,56
 115 422 115 422 99 395.5 c 128,-1,57
 83 369 83 369 67 307 c 0,58,59
 62 287 62 287 57.5 282.5 c 128,-1,60
 53 278 53 278 43.5 278 c 128,-1,61
 34 278 34 278 29.5 282.5 c 128,-1,62
 25 287 25 287 25 293 c 0,63,64
 25 306 25 306 36.5 342.5 c 128,-1,65
 48 379 48 379 57 395 c 0,66,67
 89 457 89 457 140 458 c 1,68,69
 185 458 185 458 216 427 c 0,70,71
 237 406 237 406 243 376 c 1,0,1
EndSplineSet
Validated: 3073
EndChar

StartChar: theta
Encoding: 952 952 83
Width: 497
Flags: W
HStem: -16 35<140.019 214.468> 334 43<160 360> 691 36<305.88 380.367>
VStem: 37 82<71.9717 293.283> 402 80<416.341 638.688>
LayerCount: 2
Fore
SplineSet
482 507 m 0,0,1
 482 393 482 393 437 271 c 128,-1,2
 392 149 392 149 319 67 c 0,3,4
 245 -16 245 -16 171 -16 c 0,5,6
 126 -16 126 -16 94 16 c 0,7,8
 73 37 73 37 60 70 c 0,9,10
 37 133 37 133 37 203 c 0,11,12
 37 317 37 317 82 439 c 128,-1,13
 127 561 127 561 200 643 c 0,14,15
 274 727 274 727 348 727 c 0,16,17
 417 727 417 727 449.5 662 c 128,-1,18
 482 597 482 597 482 507 c 0,0,1
119 142 m 2,19,20
 119 19 119 19 172 19 c 0,21,22
 224 19 224 19 285 127 c 0,23,24
 325 198 325 198 360 334 c 1,25,-1
 149 334 l 1,26,27
 120 182 120 182 119 146 c 2,28,-1
 119 142 l 2,19,20
402 569 m 0,29,30
 402 691 402 691 347 691 c 0,31,32
 300 691 300 691 242 595 c 0,33,34
 197 519 197 519 160 377 c 1,35,-1
 371 377 l 1,36,37
 402 507 402 507 402 569 c 0,29,30
EndSplineSet
Validated: 3073
EndChar

StartChar: iota
Encoding: 953 953 84
Width: 371
Flags: W
HStem: -16 35<132.532 213.813> 438 20G<188 205.5>
VStem: 52 76<20.7869 128.841> 152.5 81.5<340.857 447.171> 308 38<106.191 158.359>
LayerCount: 2
Fore
SplineSet
346 146 m 0,0,1
 346 123 346 123 323 86 c 0,2,3
 300 50 300 50 252 17 c 128,-1,4
 204 -16 204 -16 147 -16 c 0,5,6
 104 -16 104 -16 78 10 c 128,-1,7
 52 36 52 36 52 75 c 0,8,9
 52 96 52 96 69 140 c 0,10,11
 84 179 84 179 87 195 c 0,12,13
 97 227 97 227 99 232.5 c 128,-1,14
 101 238 101 238 112.5 278 c 128,-1,15
 124 318 124 318 128 331 c 0,16,17
 148 412 148 412 152.5 424.5 c 128,-1,18
 157 437 157 437 165 445 c 0,19,20
 178 458 178 458 198 458 c 0,21,22
 213 458 213 458 223.5 447.5 c 128,-1,23
 234 437 234 437 234 423 c 0,24,25
 234 418 234 418 223 373 c 128,-1,26
 212 328 212 328 190 251.5 c 128,-1,27
 168 175 168 175 145 115 c 0,28,29
 128 70 128 70 128 47 c 0,30,31
 128 30 128 30 136 22 c 0,32,33
 138 20 138 20 140.5 19.5 c 128,-1,34
 143 19 143 19 150 19 c 0,35,36
 190 19 190 19 238 50 c 128,-1,37
 286 81 286 81 308 148 c 0,38,39
 309 154 309 154 313.5 158.5 c 128,-1,40
 318 163 318 163 328 164 c 2,41,42
 336 163 336 163 341 158.5 c 128,-1,43
 346 154 346 154 346 146 c 0,0,1
EndSplineSet
Validated: 3073
EndChar

StartChar: kappa
Encoding: 954 954 85
Width: 606
Flags: W
HStem: -16 35<436.032 492.824> 344 102<448.862 527.806> 438 20G<188 205.5>
VStem: 51 78<-5.17126 64.2963> 350 79<24.376 172.548> 357 84<92.9472 192.01>
LayerCount: 2
Fore
SplineSet
90 -16 m 2,0,-1
 88 -16 l 2,1,2
 71 -16 71 -16 61 -5.5 c 128,-1,3
 51 5 51 5 51 18 c 0,4,5
 51 23 51 23 54 37 c 2,6,-1
 150 414 l 1,7,8
 154 434 154 434 166 446 c 128,-1,9
 178 458 178 458 198 458 c 0,10,11
 213 458 213 458 223.5 447.5 c 128,-1,12
 234 437 234 437 234 423 c 1,13,-1
 234 422 l 1,14,-1
 198 275 l 1,15,16
 223 284 223 284 245 299 c 128,-1,17
 267 314 267 314 311 349.5 c 128,-1,18
 355 385 355 385 373.5 399 c 128,-1,19
 392 413 392 413 428.5 429.5 c 128,-1,20
 465 446 465 446 496 446 c 0,21,22
 516 446 516 446 528.5 436 c 128,-1,23
 541 426 541 426 542 418.5 c 128,-1,24
 543 411 543 411 543 404 c 0,25,26
 543 381 543 381 524.5 362.5 c 128,-1,27
 506 344 506 344 481 344 c 0,28,29
 460 344 460 344 448.5 357 c 128,-1,30
 437 370 437 370 437 386 c 0,31,32
 437 390 437 390 439 397 c 1,33,34
 402 379 402 379 342.5 331.5 c 128,-1,35
 283 284 283 284 253 264 c 1,36,37
 330 258 330 258 364 245.5 c 128,-1,38
 398 233 398 233 416 215 c 0,39,40
 441 190 441 190 441 154 c 2,41,-1
 441 152 l 2,42,43
 441 135 441 135 436 117 c 1,44,-1
 435 108 l 1,45,-1
 431 87 l 2,46,47
 429 74 429 74 429 63 c 0,48,49
 429 36 429 36 439 25 c 0,50,51
 445 19 445 19 457 19 c 0,52,53
 509 19 509 19 539 136 c 0,54,55
 544 154 544 154 549 159 c 128,-1,56
 554 164 554 164 562.5 164 c 128,-1,57
 571 164 571 164 575.5 159.5 c 128,-1,58
 580 155 580 155 580 146 c 0,59,60
 580 142 580 142 576 125.5 c 128,-1,61
 572 109 572 109 562 83 c 0,62,63
 524 -16 524 -16 454 -16 c 0,64,65
 410 -16 410 -16 380 14.5 c 128,-1,66
 350 45 350 45 350 92 c 0,67,68
 350 108 350 108 353.5 123 c 128,-1,69
 357 138 357 138 357 148 c 0,70,71
 357 193 357 193 293 214 c 0,72,73
 252 226 252 226 186 229 c 1,74,75
 135 17 135 17 129 8 c 0,76,77
 117 -16 117 -16 90 -16 c 2,0,-1
436 117 m 129,-1,78
 436 117 436 117 436 117 c 129,-1,78
EndSplineSet
Validated: 3073
EndChar

StartChar: lambda
Encoding: 955 955 86
Width: 613
Flags: W
HStem: -16 21G<81 97 528.5 574> 680 36<174.037 223.853>
LayerCount: 2
Fore
SplineSet
174 697 m 1,0,1
 174 715 174 715 202 716 c 1,2,3
 306 716 306 716 335 643 c 0,4,5
 553 57 553 57 553 57 c 0,6,7
 564 27 564 27 575 14 c 0,8,9
 582 7 582 7 583 0 c 1,10,11
 583 -14 583 -14 565 -16 c 1,12,-1
 542 -16 l 2,13,14
 515 -16 515 -16 506.5 -12.5 c 128,-1,15
 498 -9 498 -9 491 -2 c 0,16,17
 482 7 482 7 478 13 c 128,-1,18
 474 19 474 19 461 53 c 0,19,20
 415 180 415 180 373 287 c 1,21,-1
 126 3 l 1,22,-1
 126 2 l 2,23,24
 106 -18 106 -18 88 -18 c 0,25,26
 74 -18 74 -18 62 -9 c 0,27,28
 50 1 50 1 50 17.5 c 128,-1,29
 50 34 50 34 71 55 c 0,30,31
 170 151 170 151 356 331 c 1,32,-1
 252 611 l 2,33,34
 243 635 243 635 237.5 646 c 128,-1,35
 232 657 232 657 221.5 667.5 c 128,-1,36
 211 678 211 678 198 680 c 0,37,38
 175 683 175 683 174 697 c 1,0,1
EndSplineSet
Validated: 3073
EndChar

StartChar: mu
Encoding: 956 956 87
Width: 633
Flags: W
HStem: -16 35<212.881 322.754 472.478 527.974> 438 20G<215 233>
VStem: 471 79<335.003 435.687>
LayerCount: 2
Fore
SplineSet
395 52 m 1,0,1
 335 -16 335 -16 260 -16 c 2,2,-1
 258 -16 l 2,3,4
 198 -16 198 -16 160 11 c 1,5,-1
 113 -176 l 1,6,7
 108 -201 108 -201 95.5 -213.5 c 128,-1,8
 83 -226 83 -226 65 -226 c 0,9,10
 46 -226 46 -226 36.5 -216.5 c 128,-1,11
 27 -207 27 -207 27 -191 c 0,12,13
 27 -182 27 -182 31 -168 c 2,14,-1
 177 414 l 1,15,16
 181 434 181 434 193 446 c 128,-1,17
 205 458 205 458 225 458 c 0,18,19
 241 458 241 458 251.5 447.5 c 128,-1,20
 262 437 262 437 262 423 c 0,21,22
 262 416 262 416 248 365 c 1,23,-1
 205 193 l 2,24,25
 191 133 191 133 190 104 c 0,26,27
 190 58 190 58 211 37 c 0,28,29
 229 19 229 19 262 19 c 0,30,31
 285 19 285 19 307 28.5 c 128,-1,32
 329 38 329 38 344 51 c 128,-1,33
 359 64 359 64 370.5 79.5 c 128,-1,34
 382 95 382 95 387 104 c 128,-1,35
 392 113 392 113 393 116 c 2,36,-1
 440 301 l 2,37,38
 444 318 444 318 462 386 c 0,39,40
 467 404 467 404 471 414 c 0,41,42
 475 425 475 425 486 435.5 c 128,-1,43
 497 446 497 446 514 446 c 128,-1,44
 531 446 531 446 540.5 436 c 128,-1,45
 550 426 550 426 550 414 c 128,-1,46
 550 402 550 402 542 372 c 0,47,48
 540 366 540 366 511.5 251.5 c 128,-1,49
 483 137 483 137 483 136 c 0,50,51
 469 82 469 82 469 58 c 0,52,53
 469 19 469 19 496 19 c 0,54,55
 518 19 518 19 534.5 45 c 128,-1,56
 551 71 551 71 567 135 c 0,57,58
 570 154 570 154 575.5 159 c 128,-1,59
 581 164 581 164 590 164 c 128,-1,60
 599 164 599 164 603.5 159.5 c 128,-1,61
 608 155 608 155 608 146 c 0,62,63
 608 142 608 142 604 125.5 c 128,-1,64
 600 109 600 109 592 83.5 c 128,-1,65
 584 58 584 58 574 43 c 0,66,67
 543 -16 543 -16 493 -16 c 0,68,69
 460 -16 460 -16 431 3 c 0,70,71
 405 21 405 21 395 52 c 1,0,1
EndSplineSet
Validated: 3073
EndChar

StartChar: nu
Encoding: 957 957 88
Width: 570
Flags: W
HStem: -5 21G<66.5 145.5> 406 41<73.2202 104.502> 438 20G<93 223 500 526>
VStem: 142 96<368.695 443.75> 469 86<351.051 447.171>
LayerCount: 2
Fore
SplineSet
141 399 m 0,0,1
 139 400 139 400 130 402.5 c 128,-1,2
 121 405 121 405 105 405 c 128,-1,3
 89 405 89 405 83 406 c 0,4,5
 76 407 76 407 71.5 411.5 c 128,-1,6
 67 416 67 416 67 424.5 c 128,-1,7
 67 433 67 433 73 439 c 0,8,9
 80 446 80 446 93 447 c 2,10,-1
 218 458 l 1,11,12
 228 458 228 458 233 453 c 128,-1,13
 238 448 238 448 238 439.5 c 128,-1,14
 238 431 238 431 234 417 c 2,15,-1
 140 45 l 1,16,17
 245 81 245 81 336 174 c 128,-1,18
 427 267 427 267 469 412 c 0,19,20
 482 458 482 458 518 458 c 0,21,22
 534 458 534 458 544.5 447.5 c 128,-1,23
 555 437 555 437 555 423 c 0,24,25
 555 416 555 416 550 396.5 c 128,-1,26
 545 377 545 377 529 340 c 0,27,28
 488 246 488 246 409 167 c 0,29,30
 366 124 366 124 313 88 c 0,31,32
 204 14 204 14 87 -5 c 1,33,-1
 73 -5 l 2,34,35
 60 -5 60 -5 55 0.5 c 128,-1,36
 50 6 50 6 49 13 c 1,37,-1
 49 14 l 1,38,-1
 58 54 l 1,39,-1
 99 216 l 2,40,41
 120 296 120 296 125 319 c 0,42,43
 142 388 142 388 142 393 c 128,-1,44
 142 398 142 398 141 399 c 0,0,1
EndSplineSet
Validated: 3073
EndChar

StartChar: xi
Encoding: 958 958 89
Width: 485
Flags: W
HStem: -215 36<222 323.139> 287 35<279.739 345.275> 325 35<279.872 345.762> 563 36<354.436 400.042> 601 36<354.578 405.108>
VStem: 19 66<82.1866 188.87> 100 95<357.301 502.131> 276 38<633.3 713.843> 335 70<-163.847 -75.5>
LayerCount: 2
Fore
SplineSet
346 324 m 1,0,1
 333 325 333 325 313 325 c 128,-1,2
 293 325 293 325 279 324 c 1,3,4
 289 323 289 323 301 322 c 0,5,6
 332 322 332 322 346 324 c 1,0,1
354 600 m 1,7,8
 364 599 364 599 375.5 599 c 128,-1,9
 387 599 387 599 401 600 c 1,10,11
 389 601 389 601 377 601 c 128,-1,12
 365 601 365 601 354 600 c 1,7,8
470 602 m 0,13,14
 470 563 470 563 371 563 c 0,15,16
 325 563 325 563 302 585 c 1,17,18
 259 563 259 563 227 517.5 c 128,-1,19
 195 472 195 472 195 423.5 c 128,-1,20
 195 375 195 375 222 348 c 1,21,22
 261 360 261 360 307 360 c 128,-1,23
 353 360 353 360 375 354 c 0,24,25
 386 351 386 351 393 344.5 c 128,-1,26
 400 338 400 338 400 326 c 0,27,28
 400 287 400 287 298 287 c 0,29,30
 245 287 245 287 205 300 c 1,31,32
 148 269 148 269 116.5 220 c 128,-1,33
 85 171 85 171 85 135 c 0,34,35
 85 104 85 104 102 87 c 0,36,37
 109 80 109 80 125 69.5 c 128,-1,38
 141 59 141 59 157.5 52.5 c 128,-1,39
 174 46 174 46 212 32 c 0,40,41
 231 24 231 24 262.5 12.5 c 128,-1,42
 294 1 294 1 325 -12 c 2,43,-1
 361 -26 l 1,44,45
 405 -52 405 -52 405 -99 c 0,46,47
 405 -140 405 -140 373 -177 c 0,48,49
 341 -215 341 -215 292 -215 c 0,50,51
 252 -215 252 -215 212 -196 c 0,52,53
 187 -184 187 -184 178.5 -176 c 128,-1,54
 170 -168 170 -168 170 -161 c 128,-1,55
 170 -154 170 -154 175 -148.5 c 128,-1,56
 180 -143 180 -143 187.5 -143 c 128,-1,57
 195 -143 195 -143 206 -152 c 0,58,59
 246 -179 246 -179 289 -179 c 2,60,-1
 292 -179 l 2,61,62
 312 -179 312 -179 323.5 -164 c 128,-1,63
 335 -149 335 -149 335 -132 c 0,64,65
 335 -118 335 -118 325 -107 c 0,66,67
 322 -104 322 -104 317 -102 c 0,68,69
 316 -102 316 -102 298 -94.5 c 128,-1,70
 280 -87 280 -87 252 -78 c 2,71,72
 216 -64 216 -64 142 -37 c 0,73,74
 124 -30 124 -30 109.5 -22 c 128,-1,75
 95 -14 95 -14 78.5 -2.5 c 128,-1,76
 62 9 62 9 55 17 c 0,77,78
 19 53 19 53 19 106 c 0,79,80
 19 142 19 142 46 199 c 0,81,82
 63 236 63 236 101 273 c 0,83,84
 127 299 127 299 161 321 c 1,85,86
 100 360 100 360 100 429 c 0,87,88
 100 487 100 487 146 543 c 0,89,90
 191 598 191 598 281 624 c 1,91,92
 276 640 276 640 276 660 c 2,93,94
 276 718 276 718 300 719 c 2,95,96
 309 719 309 719 314 714 c 128,-1,97
 319 709 319 709 319 700 c 0,98,99
 319 699 319 699 316.5 686.5 c 128,-1,100
 314 674 314 674 314 658 c 128,-1,101
 314 642 314 642 316 633 c 1,102,103
 343 637 343 637 370 637 c 128,-1,104
 397 637 397 637 410 636.5 c 128,-1,105
 423 636 423 636 438 633.5 c 128,-1,106
 453 631 453 631 461.5 622.5 c 128,-1,107
 470 614 470 614 470 602 c 0,13,14
EndSplineSet
Validated: 3073
EndChar

StartChar: omicron
Encoding: 959 959 90
Width: 514
Flags: W
HStem: -16 35<164.491 275.063> 422 36<261.87 374.198>
VStem: 39 89<69.5567 251.072> 410 89<194.86 371.277>
LayerCount: 2
Fore
SplineSet
128 126 m 0,0,1
 128 71 128 71 154 45 c 128,-1,2
 180 19 180 19 216 19 c 128,-1,3
 252 19 252 19 291 46 c 128,-1,4
 330 73 330 73 353 115 c 1,5,6
 380 159 380 159 395 220 c 128,-1,7
 410 281 410 281 410 315 c 0,8,9
 410 370 410 370 384 396 c 128,-1,10
 358 422 358 422 322 422 c 128,-1,11
 286 422 286 422 248 396 c 128,-1,12
 210 370 210 370 187 334 c 0,13,14
 159 290 159 290 143.5 227 c 128,-1,15
 128 164 128 164 128 126 c 0,0,1
499 278 m 0,16,17
 499 164 499 164 407 72 c 0,18,19
 319 -16 319 -16 214 -16 c 0,20,21
 138 -16 138 -16 88.5 33.5 c 128,-1,22
 39 83 39 83 39 164 c 0,23,24
 39 279 39 279 131 371 c 0,25,26
 218 458 218 458 324 458 c 0,27,28
 401 458 401 458 450 407.5 c 128,-1,29
 499 357 499 357 499 278 c 0,16,17
EndSplineSet
Validated: 3073
EndChar

StartChar: pi
Encoding: 960 960 91
Width: 607
Flags: W
HStem: -16 21G<134.5 153 395.5 413.5> 373 73<122.812 243 284 390 425.816 591.558>
VStem: 106 78<-5.17163 74.5625> 349 65<78.3663 288.886> 358 94<-3.58875 98.0732>
LayerCount: 2
Fore
SplineSet
175 -3 m 0,0,1
 162 -16 162 -16 144 -16 c 0,2,3
 125 -16 125 -16 115.5 -5.5 c 128,-1,4
 106 5 106 5 106 16.5 c 128,-1,5
 106 28 106 28 123 64 c 0,6,7
 203 236 203 236 243 373 c 1,8,-1
 191 373 l 2,9,10
 111 373 111 373 62 299 c 0,11,12
 54 285 54 285 43 285 c 128,-1,13
 32 285 32 285 27.5 289.5 c 128,-1,14
 23 294 23 294 23 299.5 c 128,-1,15
 23 305 23 305 28.5 315 c 128,-1,16
 34 325 34 325 46 344 c 0,17,18
 69 377 69 377 88 397 c 0,19,20
 137 446 137 446 201 446 c 2,21,-1
 555 446 l 2,22,23
 568 446 568 446 577 445 c 0,24,25
 587 444 587 444 594.5 436 c 128,-1,26
 602 428 602 428 602 412.5 c 128,-1,27
 602 397 602 397 592 387 c 0,28,29
 578 373 578 373 546 373 c 2,30,-1
 430 373 l 1,31,32
 414 294 414 294 414 225 c 0,33,34
 414 127 414 127 445 56 c 0,35,36
 452 40 452 40 452 31 c 0,37,38
 452 12 452 12 437 -2 c 128,-1,39
 422 -16 422 -16 405 -16 c 0,40,41
 386 -16 386 -16 376 -4 c 0,42,43
 366 9 366 9 358 42.5 c 128,-1,44
 350 76 350 76 349 122 c 1,45,46
 349 201 349 201 390 373 c 1,47,-1
 284 373 l 1,48,-1
 215 108 l 2,49,50
 197 35 197 35 184 11 c 0,51,52
 181 3 181 3 175 -3 c 0,0,1
EndSplineSet
Validated: 3073
EndChar

StartChar: rho
Encoding: 961 961 92
Width: 548
Flags: W
HStem: -16 35<220.276 320.682> 422 36<325.37 421.166>
VStem: 447 86<201.278 379.464>
LayerCount: 2
Fore
SplineSet
269 19 m 0,0,1
 309 19 309 19 352 62 c 0,2,3
 404 114 404 114 430 221 c 0,4,5
 447 293 447 293 447 327 c 0,6,7
 447 369 447 369 428 396 c 0,8,9
 410 422 410 422 378 422 c 0,10,11
 366 422 366 422 349.5 416 c 128,-1,12
 333 410 333 410 306 393 c 0,13,14
 280 376 280 376 255 331.5 c 128,-1,15
 230 287 230 287 213 221 c 1,16,17
 183 119 183 119 183 104 c 0,18,19
 183 100 183 100 187 88 c 128,-1,20
 191 76 191 76 198 63.5 c 128,-1,21
 205 51 205 51 212 44 c 128,-1,22
 219 37 219 37 227 31 c 0,23,24
 245 19 245 19 269 19 c 0,0,1
270 -16 m 0,25,26
 202 -16 202 -16 168 41 c 1,27,28
 150 -22 150 -22 139 -71 c 0,29,30
 109 -193 109 -193 106 -198 c 0,31,32
 92 -226 92 -226 65 -226 c 2,33,-1
 63 -226 l 2,34,35
 46 -226 46 -226 36.5 -216.5 c 128,-1,36
 27 -207 27 -207 27 -191 c 0,37,38
 27 -182 27 -182 31 -168 c 2,39,-1
 130 226 l 2,40,41
 155 323 155 323 228 390.5 c 128,-1,42
 301 458 301 458 379 458 c 0,43,44
 447 458 447 458 490 409 c 128,-1,45
 533 360 533 360 533 284 c 0,46,47
 533 159 533 159 434 60 c 0,48,49
 358 -16 358 -16 270 -16 c 0,25,26
EndSplineSet
Validated: 3073
EndChar

StartChar: sigmafinal
Encoding: 962 962 93
Width: 439
Flags: W
HStem: -116 36<181.174 271.071> -110 41<175.191 239.375> 396 53<345.457 426.781> 422 36<223.2 386.039>
VStem: 29 66<191.126 307.252> 281 70<-66.7213 4.4165>
LayerCount: 2
Fore
SplineSet
351 2 m 0,0,1
 351 -47 351 -47 313 -85 c 0,2,3
 282 -116 282 -116 240 -116 c 0,4,5
 221 -116 221 -116 201 -110 c 128,-1,6
 181 -104 181 -104 175 -98 c 128,-1,7
 169 -92 169 -92 169 -85 c 128,-1,8
 169 -78 169 -78 173.5 -73.5 c 128,-1,9
 178 -69 178 -69 187 -69 c 0,10,11
 192 -69 192 -69 201 -72 c 0,12,13
 220 -80 220 -80 240 -80 c 0,14,15
 259 -80 259 -80 270 -64 c 128,-1,16
 281 -48 281 -48 281 -31.5 c 128,-1,17
 281 -15 281 -15 271 -5 c 128,-1,18
 261 5 261 5 235 20 c 0,19,20
 165 58 165 58 135 73 c 0,21,22
 122 80 122 80 106.5 89.5 c 128,-1,23
 91 99 91 99 71 117 c 0,24,25
 29 154 29 154 29 220 c 0,26,27
 29 311 29 311 116 384.5 c 128,-1,28
 203 458 203 458 322 458 c 0,29,30
 360 458 360 458 395 449 c 0,31,32
 434 440 434 440 434 421 c 0,33,34
 434 410 434 410 427 403 c 128,-1,35
 420 396 420 396 411 396 c 0,36,37
 408 396 408 396 397 399 c 1,38,39
 352 422 352 422 315 422 c 0,40,41
 230 422 230 422 162 370 c 0,42,43
 95 319 95 319 95 253 c 0,44,45
 95 195 95 195 153 162 c 0,46,47
 153 162 153 162 289 89 c 0,48,49
 351 58 351 58 351 2 c 0,0,1
EndSplineSet
Validated: 3073
EndChar

StartChar: sigma
Encoding: 963 963 94
Width: 606
Flags: W
HStem: -16 35<149.097 261.542> 373 73<216.507 363.291 441 590.558>
VStem: 35 78<62.2148 237.293> 388 80<167.601 348.382>
LayerCount: 2
Fore
SplineSet
201 19 m 128,-1,1
 235 19 235 19 269 40 c 0,2,3
 304 61 304 61 330 98 c 0,4,5
 360 140 360 140 374 195 c 128,-1,6
 388 250 388 250 388 280 c 0,7,8
 388 330 388 330 362.5 351.5 c 128,-1,9
 337 373 337 373 296 373 c 0,10,11
 232 373 232 373 185 327 c 0,12,13
 163 305 163 305 150 275 c 0,14,15
 113 191 113 191 113 125 c 0,16,17
 113 68 113 68 140 43.5 c 128,-1,0
 167 19 167 19 201 19 c 128,-1,1
468 268 m 0,18,19
 468 153 468 153 383.5 68.5 c 128,-1,20
 299 -16 299 -16 200 -16 c 0,21,22
 128 -16 128 -16 81.5 30.5 c 128,-1,23
 35 77 35 77 35 153 c 0,24,25
 35 219 35 219 71 286 c 128,-1,26
 107 353 107 353 172.5 399.5 c 128,-1,27
 238 446 238 446 313 446 c 2,28,-1
 554 446 l 2,29,30
 567 446 567 446 576 445 c 0,31,32
 586 444 586 444 593.5 436 c 128,-1,33
 601 428 601 428 601 412.5 c 128,-1,34
 601 397 601 397 591 387 c 0,35,36
 577 373 577 373 545 373 c 2,37,-1
 441 373 l 1,38,39
 468 324 468 324 468 268 c 0,18,19
EndSplineSet
Validated: 3073
EndChar

StartChar: tau
Encoding: 964 964 95
Width: 548
Flags: W
HStem: -17 21G<190.5 219.5> 373 73<122.812 271 314 533.558>
VStem: 163 86<-7.71729 68.7147>
LayerCount: 2
Fore
SplineSet
191 373 m 2,0,1
 111 373 111 373 62 299 c 0,2,3
 54 285 54 285 43 285 c 128,-1,4
 32 285 32 285 27.5 289.5 c 128,-1,5
 23 294 23 294 23 299.5 c 128,-1,6
 23 305 23 305 28.5 315 c 128,-1,7
 34 325 34 325 46 344 c 0,8,9
 69 377 69 377 88 397 c 0,10,11
 137 446 137 446 201 446 c 2,12,-1
 497 446 l 2,13,14
 510 446 510 446 518 445 c 128,-1,15
 526 444 526 444 535 437 c 0,16,17
 544 429 544 429 544 413.5 c 128,-1,18
 544 398 544 398 534 387 c 0,19,20
 520 373 520 373 487 373 c 2,21,-1
 314 373 l 1,22,-1
 249 31 l 2,23,24
 239 -17 239 -17 200 -17 c 0,25,26
 181 -17 181 -17 172 -8 c 128,-1,27
 163 1 163 1 163 16 c 0,28,29
 163 24 163 24 168 40 c 2,30,-1
 271 373 l 1,31,-1
 191 373 l 2,0,1
EndSplineSet
Validated: 3073
EndChar

StartChar: upsilon
Encoding: 965 965 96
Width: 569
Flags: W
HStem: -16 35<225.203 352.241> 422 36<123.53 180.798>
VStem: 113 80<46.1304 215.912> 185 77<309.182 419.785> 500 56<247.246 393.5>
LayerCount: 2
Fore
SplineSet
544 432 m 0,0,1
 556 413 556 413 556 374 c 128,-1,2
 556 335 556 335 536 255.5 c 128,-1,3
 516 176 516 176 476 113 c 0,4,5
 394 -16 394 -16 288 -16 c 0,6,7
 196 -16 196 -16 148 31 c 0,8,9
 113 66 113 66 113 127 c 0,10,11
 113 145 113 145 115 160 c 0,12,13
 119 190 119 190 172 335 c 0,14,15
 185 370 185 370 185 390.5 c 128,-1,16
 185 411 185 411 178 418 c 0,17,18
 174 422 174 422 166 422 c 0,19,20
 136 422 136 422 108.5 389 c 128,-1,21
 81 356 81 356 65 300 c 1,22,23
 54 279 54 279 44 278 c 1,24,25
 34 278 34 278 29.5 282.5 c 128,-1,26
 25 287 25 287 25 295 c 128,-1,27
 25 303 25 303 33 326.5 c 128,-1,28
 41 350 41 350 55 376 c 0,29,30
 74 411 74 411 103.5 434.5 c 128,-1,31
 133 458 133 458 171 458 c 128,-1,32
 209 458 209 458 235.5 432 c 128,-1,33
 262 406 262 406 262 367 c 0,34,35
 262 348 262 348 248 307 c 2,36,37
 194 170 194 170 193 115 c 0,38,39
 193 102 193 102 195.5 90.5 c 128,-1,40
 198 79 198 79 206 60 c 0,41,42
 213 42 213 42 234.5 30.5 c 128,-1,43
 256 19 256 19 291 19 c 0,44,45
 347 19 347 19 398.5 73.5 c 128,-1,46
 450 128 450 128 475 189.5 c 128,-1,47
 500 251 500 251 500 288 c 0,48,49
 500 337 500 337 465 369 c 0,50,51
 447 384 447 384 447 403 c 128,-1,52
 447 422 447 422 465.5 440.5 c 128,-1,53
 484 459 484 459 504 459 c 0,54,55
 521 459 521 459 532 449 c 0,56,57
 537 443 537 443 544 432 c 0,0,1
EndSplineSet
Validated: 3073
EndChar

StartChar: varphi
Encoding: 966 966 97
Width: 687
Flags: W
HStem: -16 73<299 432.324> -6 70<178.096 227> 384 74<449.253 581.518>
VStem: 47 40<142.376 294.562> 612 42<207.28 351.822>
LayerCount: 2
Fore
SplineSet
612 287 m 0,0,1
 612 332 612 332 586 358 c 128,-1,2
 560 384 560 384 518 384 c 0,3,4
 444 384 444 384 384 305 c 0,5,6
 334 241 334 241 309 116 c 0,7,8
 304 86 304 86 299 58 c 1,9,10
 309 57 309 57 325 57 c 0,11,12
 456 57 456 57 548 149 c 0,13,14
 612 213 612 213 612 287 c 0,0,1
527 458 m 0,15,16
 586 458 586 458 620 417 c 128,-1,17
 654 376 654 376 654 308 c 0,18,19
 654 184 654 184 550.5 84 c 128,-1,20
 447 -16 447 -16 315 -16 c 0,21,22
 301 -16 301 -16 285 -14 c 1,23,24
 262 -150 262 -150 254 -186 c 0,25,26
 250 -205 250 -205 238.5 -216.5 c 128,-1,27
 227 -228 227 -228 206 -228 c 0,28,29
 190 -228 190 -228 178 -216 c 0,30,31
 169 -207 169 -207 169 -194 c 0,32,33
 169 -186 169 -186 227 -6 c 1,34,35
 152 12 152 12 99.5 64.5 c 128,-1,36
 47 117 47 117 47 196 c 0,37,38
 47 242 47 242 68 301.5 c 128,-1,39
 89 361 89 361 116 403 c 0,40,41
 128 423 128 423 140 434.5 c 128,-1,42
 152 446 152 446 162 446 c 128,-1,43
 172 446 172 446 176.5 441.5 c 128,-1,44
 181 437 181 437 181 430 c 128,-1,45
 181 423 181 423 171 413 c 0,46,47
 132 368 132 368 109.5 303 c 128,-1,48
 87 238 87 238 87 207 c 0,49,50
 87 153 87 153 130 116 c 128,-1,51
 173 79 173 79 249 64 c 1,52,53
 262 109 262 109 270.5 134.5 c 128,-1,54
 279 160 279 160 295.5 208.5 c 128,-1,55
 312 257 312 257 327 284.5 c 128,-1,56
 342 312 342 312 362 347 c 0,57,58
 386 387 386 387 409 407.5 c 128,-1,59
 432 428 432 428 463 443 c 128,-1,60
 494 458 494 458 527 458 c 0,15,16
EndSplineSet
Validated: 3073
EndChar

StartChar: chi
Encoding: 967 967 98
Width: 655
Flags: W
HStem: -215 36<489.109 550.032> -204 21G<41.5 48.5> 422 36<105.491 165.829>
VStem: 53 40<371.641 410.974> 564 38<-165.735 -128.641>
LayerCount: 2
Fore
SplineSet
588 432 m 2,0,1
 600 446 600 446 609.5 446 c 128,-1,2
 619 446 619 446 623.5 441.5 c 128,-1,3
 628 437 628 437 628 430 c 0,4,5
 628 428 628 428 628 426 c 2,6,7
 627 419 627 419 616 407 c 2,8,-1
 368 137 l 1,9,10
 449 -122 449 -122 495 -170 c 0,11,12
 504 -179 504 -179 512 -179 c 2,13,-1
 513 -179 l 2,14,15
 525 -179 525 -179 540 -170 c 128,-1,16
 555 -161 555 -161 564 -138 c 0,17,18
 565 -133 565 -133 569.5 -128.5 c 128,-1,19
 574 -124 574 -124 583.5 -124 c 128,-1,20
 593 -124 593 -124 597.5 -128.5 c 128,-1,21
 602 -133 602 -133 602 -140 c 0,22,23
 602 -159 602 -159 577 -187 c 128,-1,24
 552 -215 552 -215 506 -215 c 0,25,26
 436 -215 436 -215 405 -183 c 0,27,28
 390 -167 390 -167 384 -156.5 c 128,-1,29
 378 -146 378 -146 370 -130 c 0,30,31
 332 -48 332 -48 301 63 c 1,32,33
 251 9 251 9 79 -177 c 1,34,35
 67 -192 67 -192 60 -199 c 1,36,37
 52 -204 52 -204 45 -204 c 128,-1,38
 38 -204 38 -204 33 -199 c 128,-1,39
 28 -194 28 -194 28 -185.5 c 128,-1,40
 28 -177 28 -177 40 -164 c 2,41,-1
 220 31 l 1,42,-1
 280 96 l 2,43,44
 286 102 286 102 287 105 c 0,45,46
 285 114 285 114 253 213 c 0,47,48
 242 243 242 243 222 294 c 0,49,50
 187 385 187 385 160 412 c 0,51,52
 150 422 150 422 142 422 c 0,53,54
 129 422 129 422 113 411 c 0,55,56
 98 400 98 400 93 383 c 0,57,58
 87 367 87 367 73 367 c 0,59,60
 63 367 63 367 58.5 371.5 c 128,-1,61
 54 376 54 376 53 384 c 2,62,63
 53 404 53 404 80 431 c 128,-1,64
 107 458 107 458 150 458 c 0,65,66
 247 458 247 458 283 380 c 0,67,68
 308 325 308 325 356 180 c 1,69,-1
 588 432 l 2,0,1
EndSplineSet
Validated: 3073
EndChar

StartChar: psi
Encoding: 968 968 99
Width: 686
Flags: W
HStem: -14 36<247.465 297 345 430.037> 422 36<123.53 180.798>
VStem: 114 81<63.917 222.858> 185 77<309.841 419.785> 252 36<-210.359 -168.691> 473 41<669.201 710.359> 617 56<247.963 397.75>
LayerCount: 2
Fore
SplineSet
617 288 m 0,0,1
 617 337 617 337 582 369 c 0,2,3
 564 384 564 384 563 402 c 2,4,5
 563 422 563 422 581.5 440.5 c 128,-1,6
 600 459 600 459 621 459 c 0,7,8
 638 459 638 459 649 449 c 0,9,10
 655 443 655 443 661 432 c 0,11,12
 673 413 673 413 673 382.5 c 128,-1,13
 673 352 673 352 668 322 c 0,14,15
 654 248 654 248 635.5 203 c 128,-1,16
 617 158 617 158 582 114 c 0,17,18
 480 -14 480 -14 336 -16 c 1,19,-1
 294 -185 l 2,20,21
 290 -203 290 -203 288 -206 c 128,-1,22
 286 -209 286 -209 285 -210 c 0,23,24
 280 -215 280 -215 270.5 -215 c 128,-1,25
 261 -215 261 -215 256.5 -210.5 c 128,-1,26
 252 -206 252 -206 252 -199 c 2,27,-1
 252 -198 l 1,28,-1
 297 -14 l 1,29,30
 205 -7 205 -7 160 33 c 0,31,32
 114 74 114 74 114 137 c 0,33,34
 114 183 114 183 170 328 c 0,35,36
 185 369 185 369 185 390 c 128,-1,37
 185 411 185 411 178 418 c 0,38,39
 174 422 174 422 166 422 c 0,40,41
 136 422 136 422 108.5 389 c 128,-1,42
 81 356 81 356 65 300 c 1,43,44
 54 279 54 279 44 278 c 1,45,46
 34 278 34 278 29.5 282.5 c 128,-1,47
 25 287 25 287 25 295 c 128,-1,48
 25 303 25 303 33 326.5 c 128,-1,49
 41 350 41 350 55 376 c 0,50,51
 74 411 74 411 103.5 434.5 c 128,-1,52
 133 458 133 458 171 458 c 128,-1,53
 209 458 209 458 235.5 432 c 128,-1,54
 262 406 262 406 262 367 c 0,55,56
 262 346 262 346 248 307 c 0,57,58
 196 173 196 173 195 130 c 0,59,60
 195 38 195 38 306 22 c 1,61,-1
 473 690 l 2,62,63
 477 707 477 707 481.5 711.5 c 128,-1,64
 486 716 486 716 496 716 c 2,65,66
 505 715 505 715 509.5 710.5 c 128,-1,67
 514 706 514 706 514 699 c 2,68,-1
 514 698 l 1,69,-1
 345 19 l 1,70,71
 440 22 440 22 520 102 c 0,72,73
 566 148 566 148 591.5 200 c 128,-1,74
 617 252 617 252 617 288 c 0,0,1
EndSplineSet
Validated: 3073
EndChar

StartChar: omega
Encoding: 969 969 100
Width: 654
Flags: W
HStem: -16 87<83.4524 206.408 354.42 479.859> 432 20G<127 140 578.5 603.5>
VStem: 9 47<99.1209 275.412> 275 84<187 279.354> 584 58<250.574 392.25>
LayerCount: 2
Fore
SplineSet
642 376.5 m 128,-1,1
 642 345 642 345 622.5 261.5 c 128,-1,2
 603 178 603 178 580 132 c 0,3,4
 509 -16 509 -16 406 -16 c 0,5,6
 376 -16 376 -16 356 -8 c 0,7,8
 330 3 330 3 316 21 c 128,-1,9
 302 39 302 39 295.5 52.5 c 128,-1,10
 289 66 289 66 284 80 c 1,11,12
 258 43 258 43 220 15 c 0,13,14
 177 -16 177 -16 132 -16 c 0,15,16
 67 -16 67 -16 38 28 c 128,-1,17
 9 72 9 72 9 142.5 c 128,-1,18
 9 213 9 213 37 293 c 128,-1,19
 65 373 65 373 108 434 c 0,20,21
 119 452 119 452 135 452 c 0,22,23
 145 452 145 452 152 445 c 128,-1,24
 159 438 159 438 159 428.5 c 128,-1,25
 159 419 159 419 151 410 c 0,26,27
 56 284 56 284 56 180 c 0,28,29
 56 133 56 133 77 101 c 0,30,31
 98 71 98 71 141 71 c 0,32,33
 213 71 213 71 275 157 c 1,34,35
 275 184 275 184 283 228 c 0,36,37
 291 278 291 278 307 294 c 0,38,39
 317 304 317 304 331 304 c 0,40,41
 359 304 359 304 359 275 c 2,42,-1
 359 273 l 2,43,44
 359 250 359 250 341 200 c 1,45,-1
 323 148 l 1,46,47
 331 114 331 114 356 92 c 128,-1,48
 381 70 381 70 419 70 c 0,49,50
 465 70 465 70 505.5 112 c 128,-1,51
 546 154 546 154 565 202.5 c 128,-1,52
 584 251 584 251 584 285 c 0,53,54
 584 335 584 335 547 371 c 0,55,56
 533 385 533 385 533 401 c 0,57,58
 533 423 533 423 550.5 440.5 c 128,-1,59
 568 458 568 458 589 458 c 0,60,61
 618 458 618 458 630 433 c 128,-1,0
 642 408 642 408 642 376.5 c 128,-1,1
EndSplineSet
Validated: 3073
EndChar

StartChar: vartheta
Encoding: 977 977 101
Width: 623
Flags: W
HStem: -16 35<208.401 302.508> 422 36<105.522 160.833> 691 36<386.381 468.875>
VStem: 109 79<36.3541 206.774> 164 80<271.327 421.776> 279 38<474.414 609.572> 488 75<417.362 649.024>
LayerCount: 2
Fore
SplineSet
188 94 m 0,0,1
 188 56 188 56 206.5 37.5 c 128,-1,2
 225 19 225 19 261 19 c 0,3,4
 287 19 287 19 317 48.5 c 128,-1,5
 347 78 347 78 381.5 145.5 c 128,-1,6
 416 213 416 213 452 358 c 1,7,8
 423 367 423 367 396 379.5 c 128,-1,9
 369 392 369 392 341 412 c 0,10,11
 312 433 312 433 295.5 465 c 128,-1,12
 279 497 279 497 279 535 c 0,13,14
 279 603 279 603 327 665 c 0,15,16
 376 727 376 727 439 727 c 0,17,18
 485 727 485 727 514.5 691 c 128,-1,19
 544 655 544 655 553.5 610.5 c 128,-1,20
 563 566 563 566 563 507.5 c 128,-1,21
 563 449 563 449 546 370 c 1,22,23
 550 369 550 369 557 367 c 128,-1,24
 564 365 564 365 570 364 c 0,25,26
 597 359 597 359 597 346 c 0,27,28
 597 336 597 336 592.5 331.5 c 128,-1,29
 588 327 588 327 581 327 c 128,-1,30
 574 327 574 327 536 335 c 1,31,32
 513 251 513 251 475 176 c 0,33,34
 435 95 435 95 376 39.5 c 128,-1,35
 317 -16 317 -16 257 -16 c 0,36,37
 177 -16 177 -16 140 21 c 0,38,39
 109 52 109 52 109 108 c 0,40,41
 109 137 109 137 119 179 c 0,42,43
 133 238 133 238 138 258 c 2,44,-1
 154 316 l 1,45,46
 164 357 164 357 164 382 c 0,47,48
 164 422 164 422 138 422 c 0,49,50
 115 422 115 422 99 395.5 c 128,-1,51
 83 369 83 369 67 307 c 0,52,53
 62 287 62 287 57.5 282.5 c 128,-1,54
 53 278 53 278 43.5 278 c 128,-1,55
 34 278 34 278 29.5 282.5 c 128,-1,56
 25 287 25 287 25 293 c 0,57,58
 25 306 25 306 36.5 342.5 c 128,-1,59
 48 379 48 379 57 395 c 0,60,61
 89 457 89 457 140 458 c 1,62,63
 186 458 186 458 217 427 c 0,64,65
 244 400 244 400 244 357 c 0,66,67
 243 345 243 345 219 242 c 1,68,69
 188 119 188 119 188 94 c 0,0,1
437 691 m 0,70,71
 392 691 392 691 354.5 640 c 128,-1,72
 317 589 317 589 317 536 c 0,73,74
 317 443 317 443 460 393 c 1,75,76
 488 507 488 507 488 572 c 0,77,78
 488 617 488 617 479 650 c 0,79,80
 468 691 468 691 437 691 c 0,70,71
EndSplineSet
Validated: 3073
EndChar

StartChar: Upsilon
Encoding: 978 978 102
Width: 745
Flags: W
HStem: -5 42<72.7675 184.394 309.13 417.295> 641 86<128.691 254.937 540.773 674.069>
VStem: 25 41<546.126 595.204> 695 45<546.125 622.65>
LayerCount: 2
Fore
SplineSet
397 -5 m 2,0,-1
 319 -3 l 1,1,2
 292 -2 292 -2 241.5 -2 c 128,-1,3
 191 -2 191 -2 156 -3.5 c 128,-1,4
 121 -5 121 -5 86 -5 c 0,5,6
 74 -5 74 -5 69 0 c 128,-1,7
 64 5 64 5 64 15 c 0,8,9
 64 28 64 28 72.5 32.5 c 128,-1,10
 81 37 81 37 97 37 c 0,11,12
 166 38 166 38 185 44 c 0,13,14
 202 49 202 49 209 78 c 2,15,-1
 259 276 l 2,16,17
 285 378 285 378 291 411.5 c 128,-1,18
 297 445 297 445 297 488 c 0,19,20
 297 577 297 577 260 614 c 0,21,22
 233 641 233 641 187 641 c 0,23,24
 171 641 171 641 150.5 636 c 128,-1,25
 130 631 130 631 103 611 c 0,26,27
 77 591 77 591 66 560 c 0,28,29
 64 553 64 553 58.5 547.5 c 128,-1,30
 53 542 53 542 43 542 c 128,-1,31
 33 542 33 542 29 546 c 128,-1,32
 25 550 25 550 25 557 c 0,33,34
 25 570 25 570 37 597 c 128,-1,35
 49 624 49 624 70 653 c 0,36,37
 92 683 92 683 129 705 c 128,-1,38
 166 727 166 727 208 727 c 128,-1,39
 250 727 250 727 281 709 c 128,-1,40
 312 691 312 691 327.5 667.5 c 128,-1,41
 343 644 343 644 351.5 611 c 128,-1,42
 360 578 360 578 361.5 557.5 c 128,-1,43
 363 537 363 537 363 520.5 c 128,-1,44
 363 504 363 504 363 495 c 1,45,46
 410 596 410 596 474 657 c 0,47,48
 547 727 547 727 632 727 c 0,49,50
 683 727 683 727 711.5 693.5 c 128,-1,51
 740 660 740 660 740 606 c 0,52,53
 740 570 740 570 734 557 c 0,54,55
 727 542 727 542 711 542 c 0,56,57
 702 542 702 542 698 546 c 128,-1,58
 694 550 694 550 693.5 554 c 128,-1,59
 693 558 693 558 694 565 c 128,-1,60
 695 572 695 572 695 578 c 0,61,62
 695 607 695 607 671.5 624 c 128,-1,63
 648 641 648 641 614 641 c 0,64,65
 538 641 538 641 475.5 564 c 128,-1,66
 413 487 413 487 377 344 c 0,67,68
 374 331 374 331 356.5 263.5 c 128,-1,69
 339 196 339 196 324 135.5 c 128,-1,70
 309 75 309 75 307 69 c 0,71,72
 305 58 305 58 305 52 c 128,-1,73
 305 46 305 46 309 43.5 c 128,-1,74
 313 41 313 41 336 39 c 128,-1,75
 359 37 359 37 379.5 37 c 128,-1,76
 400 37 400 37 407 36 c 0,77,78
 415 35 415 35 419.5 30.5 c 128,-1,79
 424 26 424 26 424 17 c 128,-1,80
 424 8 424 8 417.5 1.5 c 128,-1,81
 411 -5 411 -5 397 -5 c 2,0,-1
EndSplineSet
Validated: 3073
EndChar

StartChar: phi
Encoding: 981 981 103
Width: 625
Flags: W
HStem: -17 35<195.713 248 297 361.18> 422 37<285.897 358 406 462.758>
VStem: 46 80<86.154 259.168> 527 81<178.951 353.754>
LayerCount: 2
Fore
SplineSet
527 287 m 0,0,1
 527 353 527 353 489.5 385.5 c 128,-1,2
 452 418 452 418 397 423 c 1,3,-1
 297 19 l 1,4,5
 395 30 395 30 460 107 c 0,6,7
 527 187 527 187 527 287 c 0,0,1
126 155 m 0,8,9
 126 90 126 90 164 56 c 128,-1,10
 202 22 202 22 256 18 c 1,11,-1
 358 422 l 1,12,13
 253 410 253 410 191 331 c 0,14,15
 126 248 126 248 126 155 c 0,8,9
432 710 m 0,16,17
 435 716 435 716 445.5 716 c 128,-1,18
 456 716 456 716 460.5 711 c 128,-1,19
 465 706 465 706 466 698 c 2,20,21
 466 694 466 694 463 682 c 2,22,-1
 406 459 l 1,23,24
 504 451 504 451 556 394.5 c 128,-1,25
 608 338 608 338 608 267 c 0,26,27
 608 164 608 164 512 76.5 c 128,-1,28
 416 -11 416 -11 288 -17 c 1,29,-1
 246 -184 l 2,30,31
 240 -206 240 -206 235.5 -210.5 c 128,-1,32
 231 -215 231 -215 221.5 -215 c 128,-1,33
 212 -215 212 -215 207.5 -210.5 c 128,-1,34
 203 -206 203 -206 203 -199 c 0,35,36
 203 -196 203 -196 223.5 -114.5 c 128,-1,37
 244 -33 244 -33 248 -17 c 1,38,39
 154 -10 154 -10 100 44.5 c 128,-1,40
 46 99 46 99 46 175 c 0,41,42
 46 278 46 278 142 365.5 c 128,-1,43
 238 453 238 453 367 459 c 1,44,-1
 425 690 l 2,45,46
 430 706 430 706 432 710 c 0,16,17
EndSplineSet
Validated: 3073
EndChar

